<?xml version="1.0" encoding="UTF-8"?><svg xmlns="http://www.w3.org/2000/svg" xmlns:xlink="http://www.w3.org/1999/xlink" viewBox="0 0 780 600"><defs><style>.k{fill:#fff;}.l{opacity:.2;}.m{stroke-width:13.82px;}.m,.n,.o,.p,.q,.r,.s{fill:none;stroke:#000;stroke-miterlimit:10;}.n,.s{stroke-width:6.91px;}.o{stroke-width:6px;}.t{fill:#333;}.p,.q{stroke-width:10px;}.q,.s{stroke-linecap:round;}.u{clip-path:url(#e);}.r{stroke-width:2.76px;}.v{fill:#999;}.w{fill:#ccc;}.x{fill:#666;}.y{font-family:ProximaNova-Semibold, Proxima Nova;font-size:37.37px;font-weight:700;}</style><clipPath id="e"><circle class="k" cx="250.67" cy="278.67" r="220.83"/></clipPath></defs><g id="a"/><g id="b"/><g id="c"><g><g id="d" class="l"><polygon class="w" points="500.63 436.93 499.64 436.1 593.73 576.67 525.55 456.93 525.62 456.83 519.62 452.82 500.63 436.93"/><g><polygon class="t" points="676.48 515.84 617.05 501.81 616.96 501.79 674.12 465.79 676.48 515.84"/><g><polygon class="k" points="560.66 478.75 527.87 456.8 589.81 438.09 560.66 478.75"/><polygon class="v" points="618.2 502.4 561.5 478.49 589.81 438.09 618.2 502.4"/><polygon class="k" points="551.56 400.8 551.71 400.85 529.46 457.75 500.63 436.93 551.56 400.8"/><polygon class="v" points="554.48 398.39 501.84 435.43 505 412.88 554.48 398.39"/></g></g><polygon points="593.73 576.67 616.54 503.4 557.54 479.25 593.73 576.67"/><polygon class="x" points="589.16 565.29 557.13 479.57 528.48 461.19 589.16 565.29"/><polygon class="w" points="551.71 400.85 529.94 456.41 589.81 438.09 582.68 406.87 552.61 398.55 551.71 400.85"/><polygon class="k" points="567.51 387.45 552.61 398.55 580.44 406.61 582.34 405.08 567.51 387.45"/><polygon points="568.77 386.59 568.81 386.63 583.93 405.49 584.04 405.54 639.8 431.82 639.94 431.84 700.48 443.36 723.83 436.98 723.83 436.97 723.81 436.92 708.6 421.87 673.11 402.75 629.94 388.72 589.99 383.33 589.95 383.35 568.77 386.59"/><g><polygon class="w" points="701.83 445.08 674.7 465.67 636.97 433.05 701.83 445.08"/><polygon class="x" points="730.69 456.41 700.96 445.29 724.93 437.58 730.69 456.41"/><polygon points="638.33 433.82 589.81 438.09 582.68 406.87 638.33 433.82"/></g><polygon class="v" points="589.81 438.09 617.34 500.95 674.7 465.67 638.97 434.36 589.81 438.09"/><polygon class="k" points="616.54 503.4 593.73 576.67 677.45 518.33 677.47 517.6 676.09 517.47 616.63 503.42 616.54 503.4"/><polygon class="v" points="677.45 518.33 593.73 576.67 717.26 519.95 717.28 519.16 677.47 517.6 677.45 518.33"/><polygon class="k" points="593.73 576.67 750.71 517.65 724.73 519.44 724.68 519.45 717.28 519.16 717.26 519.95 593.73 576.67"/><polygon class="x" points="701.49 445.62 674.7 465.67 715.68 516.74 730.29 457.94 730.69 456.41 701.49 445.62"/><g><polygon class="k" points="715.1 516.57 676.83 516.07 674.7 465.67 715.1 516.57"/><polygon class="k" points="730.82 458.46 748.59 515.81 715.11 518.01 730.82 458.46"/></g><polygon class="k" points="723.81 436.92 723.83 436.97 723.85 436.97 723.81 436.92"/><polygon class="k" points="723.83 436.97 723.83 436.98 730.69 456.41 759.12 495.97 745.14 461.11 723.85 436.97 723.83 436.97"/><polygon class="x" points="730.69 456.41 749.37 515.91 758.23 494.09 730.69 456.41"/><polygon points="506.89 413.71 538.33 393.79 563.94 389.84 553.64 398.33 506.89 413.71"/></g><g><g><path class="s" d="M723.85,436.97l21.29,24.14,13.98,34.86-8.4,21.68-25.99,1.78h-.05l-48.1-1.87h-.08l-59.87-14.15-.09-.02-56.76-23.75-40.16-26.83-19.98-16.72,5.9-22.5,31.87-19.99,26.96-6.41"/><path class="n" d="M629.94,388.72l43.18,14.03,35.49,19.12,15.21,15.05,.04,.05-23.37,6.39-60.54-11.52-.14-.03-55.76-26.27-.11-.05-15.11-18.86-.03-.04,21.17-3.24h.04l39.95,5.38Z"/><polyline class="n" points="750.72 517.65 593.73 576.67 499.64 436.1"/></g><g><line class="r" x1="561.56" y1="477.32" x2="589.81" y2="438.09"/><line class="r" x1="674.7" y1="465.67" x2="676.48" y2="515.84"/><polyline class="r" points="759.12 495.97 730.69 456.41 715.1 516.57 674.7 465.67 700.72 446.03 730.69 456.41 723.81 436.92"/><line class="r" x1="749.09" y1="517.28" x2="730.87" y2="458.09"/><polyline class="r" points="505.54 413.6 552.61 398.55 529.94 456.41 589.81 438.09 617.34 500.95 674.7 465.67 638.97 434.36 589.81 438.09 582.68 406.87 552.61 398.55 568.81 386.63"/><line class="r" x1="500.37" y1="437.11" x2="551.56" y2="400.8"/><line class="r" x1="593.73" y1="576.67" x2="558.73" y2="481.91"/><line class="r" x1="593.73" y1="576.67" x2="525.55" y2="456.93"/><line class="r" x1="593.73" y1="576.67" x2="677.45" y2="518.33"/><line class="r" x1="593.73" y1="576.67" x2="717.26" y2="519.94"/><line class="r" x1="593.73" y1="576.67" x2="616.54" y2="503.4"/></g></g></g><g><g><circle class="k" cx="250.67" cy="278.67" r="220.83"/><g class="u"><g><g><path class="q" d="M807.25,274.2l67.87,76.97,44.58,111.16-26.78,69.14-82.86,5.68-.15,.04-153.36-6h-.24l-190.9-45.1-.28-.08-180.97-75.72-128.06-85.54-63.72-53.32,18.81-71.73,101.62-63.72,95.52-21.95"/><path class="p" d="M507.83,120.36l137.66,44.73,113.15,60.96,48.5,47.99,.12,.16-74.5,20.38-193.03-36.73-.45-.08-177.8-83.77-.37-.17-48.19-60.14-.1-.14,67.51-10.33,.12-.04,127.37,17.18Z"/><polyline class="p" points="892.92 531.46 392.38 719.64 92.37 271.42"/></g><g><line class="r" x1="282.91" y1="410.09" x2="379.89" y2="277.77"/><line class="r" x1="650.55" y1="365.71" x2="656.21" y2="525.68"/><polyline class="r" points="919.7 462.33 829.06 336.2 779.35 528.01 650.55 365.71 733.52 303.1 829.06 336.2 807.13 274.05"/><polyline class="r" points="110.94 204.41 261.27 151.72 181.78 340.71 379.89 277.77 467.65 478.21 650.55 365.71 536.63 265.9 379.89 277.77 358.64 176.56 261.27 151.72 312.71 115.98"/><line class="r" x1="94.33" y1="270.85" x2="259.46" y2="154.08"/><line class="r" x1="392.38" y1="719.64" x2="281.45" y2="411.56"/><line class="r" x1="392.38" y1="719.64" x2="179.34" y2="341.69"/><line class="r" x1="392.38" y1="719.64" x2="659.31" y2="533.62"/><line class="r" x1="392.38" y1="719.64" x2="786.24" y2="538.76"/><line class="r" x1="392.38" y1="719.64" x2="465.12" y2="486"/></g></g></g></g><circle class="m" cx="250.67" cy="278.67" r="220.83"/><text class="y" transform="translate(286.68 39.41) rotate(10.3)"><tspan x="0" y="0">10x Magnifcation</tspan></text><g id="f"><g id="g"><path d="M238.98,400.31c1.28,.65,1.92,2.12,.82,4.29s.04,3.65-1.83,4.03c-1.41,.28-3.42-3.33-2.32-5.5s2.05-3.47,3.33-2.82Z"/><path d="M382.73,355.76c.26,.53,.83,.89-.38,1.49s-1.48,.16-1.75-.37-.41-.97,.79-1.56,1.07-.09,1.33,.45Z"/><path d="M369.66,128.3c.94-1.12,4.68-1.27,6.31,1.1,.94,1.36,.11,2.47,.86,4.89,.65,2.09-1.11,1.82-4.27-.85-3.16-2.67-3.84-4.02-2.9-5.14Z"/></g><g id="h"><ellipse cx="258.15" cy="282.15" rx="2.6" ry="4.4" transform="translate(-74.48 93.45) rotate(-17.98)"/><path d="M363.74,366.7c.5-1.2,.41-2.6,2.65-1.66s1.9,2.01,1.4,3.21-.99,2.08-3.22,1.14-1.32-1.49-.82-2.69Z"/><path d="M390.87,172.38c.28-.66,.23-1.44,1.46-.92s1.05,1.11,.77,1.78-.55,1.15-1.78,.63-.73-.82-.45-1.49Z"/><path d="M402.73,205.76c.26,.53,.83,.89-.38,1.49s-1.48,.16-1.75-.37-.41-.97,.79-1.56,1.07-.09,1.33,.45Z"/><path d="M120.08,235.63c.26,.53,.83,.89-.38,1.49s-1.48,.16-1.75-.37-.41-.97,.79-1.56,1.07-.09,1.33,.45Z"/></g><g id="i"><path d="M318.5,201.82c.28-.66,.23-1.44,1.46-.92s1.05,1.11,.77,1.78-.55,1.15-1.78,.63-.73-.82-.45-1.49Z"/></g></g></g><g><path class="k" d="M550.22,364.19c39.76,0,72,32.24,72,72s-32.24,72-72,72-72-32.24-72-72,32.24-72,72-72m0-9c-44.66,0-81,36.34-81,81s36.34,81,81,81,81-36.34,81-81-36.34-81-81-81h0Z"/><circle class="o" cx="550.22" cy="436.19" r="72"/></g><line class="p" x1="483.55" y1="405.93" x2="445.33" y2="386.96"/></g><g id="j"/></svg>