<?xml version="1.0" encoding="UTF-8"?><svg xmlns="http://www.w3.org/2000/svg" xmlns:xlink="http://www.w3.org/1999/xlink" viewBox="0 0 780 600"><defs><style>.f{stroke-width:4px;}.f,.g,.h,.i{fill:none;stroke:#000;stroke-miterlimit:10;}.j{fill:#fff;}.k{fill:#333;}.l{fill:#e6e6e6;}.g,.h{stroke-width:10px;}.h{stroke-linecap:round;}.m{clip-path:url(#d);}.n{opacity:.12;}.i{stroke-width:2.76px;}.o{fill:#999;}.p{fill:#ccc;}.q{fill:#666;}</style><clipPath id="d"><circle class="j" cx="-659.56" cy="278.67" r="220.83"/></clipPath></defs><g id="a"><g><g id="b" class="n"><polygon class="p" points="652.49 290.64 654.91 289.67 388.07 499.69 592.51 313.38 592.44 313.14 606.38 309.22 652.49 290.64"/><g><polygon class="k" points="267.84 332.23 390 342.3 390.18 342.31 303.39 238.12 267.84 332.23"/><g><polygon class="j" points="511.95 333.26 588.18 311.68 481.52 237.54 511.95 333.26"/><polygon class="o" points="387.43 342.71 510.51 332.23 481.52 237.54 387.43 342.71"/><polygon class="j" points="577.68 190.08 577.36 190.09 584.55 312.51 652.49 290.64 577.68 190.08"/><polygon class="o" points="573.59 183.67 651.12 287.03 659.07 242.03 573.59 183.67"/></g></g><polygon points="388.07 499.69 389.97 345.65 517.6 336.14 388.07 499.69"/><polygon class="q" points="403.87 480.79 518.19 337.02 584.27 319.7 403.87 480.79"/><polygon class="p" points="577.36 190.09 584.46 309.66 481.52 237.54 514.49 182.37 577.07 185.14 577.36 190.09"/><polygon class="j" points="555.51 154.7 577.07 185.14 518.93 183.26 516.26 179.15 555.51 154.7"/><polygon class="l" points="553.63 152.27 553.54 152.32 512.98 178.95 512.73 179 389.97 194.56 389.69 194.52 266.96 178.95 226.35 152.3 226.35 152.28 226.42 152.2 264.8 132.89 344.41 118.4 435.53 118.4 515.14 132.89 515.21 132.95 553.63 152.27"/><g><polygon class="p" points="263.32 181.41 302.34 237.54 394.62 198.67 263.32 181.41"/><polygon class="q" points="201.21 185.14 264.86 182.34 223.87 152.75 201.21 185.14"/><polygon points="391.54 199.29 481.52 237.54 514.49 182.37 391.54 199.29"/></g><polygon class="o" points="481.52 237.54 389.97 340.48 302.34 237.54 389.97 199.94 481.52 237.54"/><polygon class="j" points="389.97 345.65 388.07 499.69 264.44 336.37 264.84 334.97 267.56 335.57 389.79 345.64 389.97 345.65"/><polygon class="o" points="264.44 336.37 388.07 499.69 187.44 314.76 187.87 313.25 264.84 334.97 264.44 336.37"/><polygon class="j" points="388.07 499.69 124.98 289.63 173.48 309.16 173.57 309.22 187.87 313.25 187.44 314.76 388.07 499.69"/><polygon class="q" points="263.63 182.65 302.34 237.54 192.43 309.63 201.01 188.3 201.21 185.14 263.63 182.65"/><g><polygon class="j" points="193.65 309.66 267.02 332.44 302.34 237.54 193.65 309.66"/><polygon class="j" points="199.68 188.97 130.18 287.44 192.74 312.4 199.68 188.97"/></g><polygon class="j" points="226.42 152.2 226.35 152.28 226.33 152.27 226.42 152.2"/><polygon class="j" points="226.35 152.28 226.35 152.3 201.21 185.14 122.39 243.03 170.71 185.14 226.33 152.27 226.35 152.28"/><polygon class="q" points="201.21 185.14 128.63 287.13 125.24 239.97 201.21 185.14"/><polygon points="654.96 242.44 607.29 184.91 560.85 161.48 575.23 184.09 654.96 242.44"/></g><g><g><path class="h" d="M226.32,152.26l-55.61,32.88-48.32,57.88,2.59,46.61,48.51,19.52,.08,.05,93,26.25,.15,.04,123.08,10.14h.18l123.09-10.12,93.32-26.3,48.53-19.53,2.69-46.61-48.45-57.93-47.5-28.97"/><path class="g" d="M435.54,118.4h-91.13l-79.61,14.49-38.38,19.3-.1,.07,40.64,26.7,122.72,15.56,.29,.04,122.76-15.57,.25-.03,40.56-26.63,.09-.06-38.41-19.32-.07-.05-79.61-14.49Z"/><polyline class="g" points="124.98 289.63 388.07 499.69 654.91 289.68"/></g><g><line class="f" x1="511.12" y1="329.97" x2="481.52" y2="237.54"/><line class="f" x1="302.35" y1="237.54" x2="267.84" y2="332.22"/><polyline class="f" points="122.39 243.03 201.2 185.14 193.65 309.66 302.35 237.54 264.85 183.91 201.2 185.14 226.43 152.19"/><line class="f" x1="128.31" y1="289.94" x2="199.82" y2="188.23"/><polyline class="f" points="657.6 243.07 577.07 185.14 584.46 309.66 481.52 237.54 389.97 340.48 302.35 237.54 389.97 199.94 481.52 237.54 514.5 182.37 577.07 185.14 553.54 152.32"/><line class="f" x1="652.89" y1="291.17" x2="577.68" y2="190.07"/><line class="f" x1="388.07" y1="499.69" x2="513.68" y2="340.48"/><line class="f" x1="388.07" y1="499.69" x2="592.51" y2="313.37"/><line class="f" x1="388.07" y1="499.69" x2="264.44" y2="336.37"/><line class="f" x1="388.07" y1="499.69" x2="187.44" y2="314.76"/><line class="f" x1="388.07" y1="499.69" x2="389.97" y2="345.64"/></g></g></g></g><g id="c"><g><circle class="j" cx="-659.56" cy="278.67" r="220.83"/><g class="m"><g><path class="h" d="M-102.97,274.2l67.87,76.97L9.48,462.33l-26.78,69.14-82.86,5.68-.15,.04-153.36-6h-.24l-190.9-45.1-.28-.08-180.97-75.72-128.06-85.54-63.72-53.32,18.81-71.73,101.62-63.72,95.52-21.95"/><polyline class="i" points="9.48 462.33 -81.16 336.2 -130.87 528.01 -259.67 365.71 -176.7 303.1 -81.16 336.2 -103.09 274.05"/></g></g></g></g><g id="e"/></svg>