<?xml version="1.0" encoding="UTF-8"?><svg xmlns="http://www.w3.org/2000/svg" xmlns:xlink="http://www.w3.org/1999/xlink" viewBox="0 0 780 600"><defs><style>.g{fill:#ffffe8;}.h{fill:#fff;}.i{stroke-linecap:round;stroke-width:10px;}.i,.j{fill:none;stroke:#000;stroke-miterlimit:10;}.k{clip-path:url(#e);}.j{stroke-width:2.76px;}</style><clipPath id="e"><circle class="h" cx="-659.56" cy="278.67" r="220.83"/></clipPath></defs><g id="a"/><g id="b"><path id="c" class="g" d="M658.81,242.21l-49.86-59.61-45.88-27.99,.06-.04-.69-.35-.92-.56c-.49-.3-1-.5-1.52-.66l-43.84-22.05-.85-.66-80.13-14.59h-90.41l-79.47,14.47-38.43,19.33-.27,.18c-.08,.04-.16,.07-.24,.11l-55.43,32.78-49.75,59.6,2.92,52.59,3.08,1.24,260.9,208.3,264.61-208.25,3.08-1.24,3.04-52.59Z"/></g><g id="d"><g><circle class="h" cx="-659.56" cy="278.67" r="220.83"/><g class="k"><g><path class="i" d="M-102.97,274.2l67.87,76.97L9.48,462.33l-26.78,69.14-82.86,5.68-.15,.04-153.36-6h-.24l-190.9-45.1-.28-.08-180.97-75.72-128.06-85.54-63.72-53.32,18.81-71.73,101.62-63.72,95.52-21.95"/><polyline class="j" points="9.48 462.33 -81.16 336.2 -130.87 528.01 -259.67 365.71 -176.7 303.1 -81.16 336.2 -103.09 274.05"/></g></g></g></g><g id="f"/></svg>