<?xml version="1.0" encoding="UTF-8"?><svg xmlns="http://www.w3.org/2000/svg" viewBox="0 0 780 600"><defs><style>.h{stroke-width:4px;}.h,.i,.j{fill:none;stroke-miterlimit:10;}.h,.j{stroke:#000;}.k{fill:#fff;}.l{fill:#4d4d4d;}.i{stroke:#f38da4;}.i,.j{stroke-width:10px;}.m{fill:gray;}.n{opacity:.15;}.o{fill:#b3b3b3;}.p{fill:#1a1a1a;}.q{fill:#f38da4;}.r{fill:#666;}</style></defs><g id="a"/><g id="b"/><g id="c"/><g id="d"><g id="e"><g><polyline class="i" points="240.21 68.84 240.21 368.42 539.79 368.42 539.79 79.68"/><polygon class="q" points="580.69 112.82 573.37 119.64 539.8 83.52 506.23 119.64 498.9 112.82 539.8 68.84 580.69 112.82"/></g></g><g><g id="f" class="n"><polygon points="164.33 276.02 268.24 395 134.79 276.02 164.33 276.02"/><polygon class="k" points="203.72 213.21 203.72 266.02 168.21 266.02 200.55 215.69 203.72 213.21"/><polygon class="k" points="579.45 215.69 611.79 266.02 576.28 266.02 576.28 213.21 579.45 215.69"/><polygon points="610.36 276.02 489.91 413.93 573.58 276.02 610.36 276.02"/><polygon class="k" points="295 276.02 357.94 434.81 212.99 276.02 295 276.02"/><polygon class="r" points="313.36 208.33 381.23 266.02 298.52 266.02 313.36 208.33"/><polygon class="k" points="466.66 208.42 481.48 266.02 399.14 266.02 466.66 208.42"/><polygon class="m" points="299.3 276.02 387.42 276.02 362.96 436.61 299.3 276.02"/><polygon class="m" points="480.7 276.02 417.05 436.57 392.97 276.02 480.7 276.02"/><polygon points="485 276.02 567.01 276.02 422.06 434.8 485 276.02"/><polygon class="r" points="485.61 266.02 470.76 208.31 562.56 266.02 485.61 266.02"/><polygon points="468.03 201.99 409.04 183.34 489.9 183.34 468.03 201.99"/><polygon points="464.44 205.05 392.98 266.02 387.41 266.02 315.65 205.03 384.23 183.34 395.77 183.34 464.44 205.05"/><polygon class="k" points="312.05 201.97 290.13 183.34 370.96 183.34 312.05 201.97"/><polygon class="p" points="294.39 266.02 217.44 266.02 309.24 208.31 294.39 266.02"/><polygon points="206.42 276.02 290.09 413.93 169.64 276.02 206.42 276.02"/><polygon class="l" points="218.06 287.5 362.1 443.92 382.57 495.11 300.99 423.01 218.06 287.5"/><polygon class="k" points="365.88 443.98 390.19 284.4 414.12 443.98 390.78 502.86 390 503.56 389.22 502.86 365.88 443.98"/><polygon class="l" points="417.9 443.92 561.94 287.5 479.01 423.01 397.43 495.11 417.9 443.92"/><polygon class="k" points="615.67 276.02 645.21 276.02 511.76 395 615.67 276.02"/><polygon points="643.82 266.02 616.55 266.02 589 223.16 643.82 266.02"/><polygon class="o" points="572.28 210.08 572.28 266.02 570.08 266.02 471.66 204.15 496.06 183.34 538.07 183.34 572.28 210.08"/><polygon points="241.93 183.34 283.95 183.34 308.4 204.12 209.92 266.02 207.72 266.02 207.72 210.08 241.93 183.34"/><polygon points="163.45 266.02 136.18 266.02 191 223.16 163.45 266.02"/></g><polygon class="j" points="539.79 178.34 658.33 271.02 390 510.25 121.67 271.02 240.21 178.34 539.79 178.34"/><g><line class="j" x1="121.67" y1="271.02" x2="658.33" y2="271.02"/><g><polyline class="h" points="281.16 178.34 390.2 271.02 363.82 444.21 205.72 271.02 205.72 203.95 162.62 271.02 303.79 432.66 205.72 271.02 312.42 203.95"/><polyline class="h" points="390 179.42 312.42 203.95 295.17 271.02 390 510.25"/></g><g><polyline class="h" points="498.84 178.34 390.2 271.02 416.18 444.21 574.28 271.02 574.28 203.95 617.38 271.02 476.21 432.66 574.28 271.02 467.58 203.95"/><polyline class="h" points="390 179.42 467.58 203.95 484.83 271.02 390 510.25"/></g></g></g></g><g id="g"/></svg>