<?xml version="1.0" encoding="UTF-8"?>
<svg id="Layer_5" data-name="Layer 5" xmlns="http://www.w3.org/2000/svg" viewBox="0 0 395 395">
  <defs>
    <style>
      .cls-1 {
        fill: #000;
        stroke-width: 0px;
      }

      .cls-2 {
        fill: none;
        stroke: #07ff0e;
        stroke-miterlimit: 10;
        stroke-width: .5px;
      }
    </style>
  </defs>
  <g>
    <path class="cls-1" d="M326.22136,163.53699l-.03076-.06765-.11378-.03835-13.39463-6.77048-.07478-.00228-7.13094-.15629-.29664-.09926-.02175.09184-32.40042-.70993v-.01386l-.31195.00677-.31182-.00677v.01386l-32.40042.70993-.02158-.09184-.29664.09926-7.1311.15629-.07478.00228-13.39463,6.77048-.11392.03835-.03062.06765-16.92765,13.09301v5.94129l2.81903,7.71603,3.48434,5.54974,14.15456,18.70879.02175.02805,38.75388,33.02963,11.45463,5.54393,11.65553-5.62191,38.58341-32.95165.02159-.02805,14.15438-18.70879,3.48434-5.54974,2.81919-7.71603v-5.94129l-16.92781-13.09301ZM342.11373,176.66416l-3.11695.95908-7.23792-1.84463-4.96145-10.96834,15.31632,11.8539ZM338.38156,178.14724v7.39533l-6.38712-6.25452-.12167-2.79985,6.50879,1.65904ZM287.66211,176.31515l-13.68437-.66096,29.58255-11.99246-1.23281,11.93445-14.66537.71897ZM302.29491,176.25812v9.58676l-14.30279-4.16625v-4.71893l14.30279-.70158ZM302.95507,176.29033l14.63246,2.00838.04498-.00614.21204-.02868v7.78724l-.02385.01934-5.12677,4.12982-9.73886-4.1511v-9.75886ZM317.5877,177.6329l-14.60154-2.00449,1.23961-11.98283,26.14461,12.23805-12.78268,1.74926ZM318.50455,178.17397l12.70499-1.73927.122,2.79952-12.82699,6.48239v-7.54265ZM312.51798,157.31662l9.18538,4.64323-14.12684-4.75151,4.94145.10827ZM305.65761,157.25893l20.05037,6.74438,5.14724,11.37761-26.52794-12.41691,1.33033-5.70507ZM305.00533,157.15162l-1.30469,5.60485-27.92368-6.24581,29.22836.64096ZM272.79406,156.52063l30.04759,6.72055-30.04759,12.18099v-18.90154ZM272.79406,176.25812l14.53789.70188v4.61003l-14.53789-1.12279v-4.18912ZM242.56428,175.59618l-1.23301-11.93445,29.58272,11.99246-13.68437.66096-14.66533-.71897ZM256.89945,176.9597v4.71893l-14.30279,4.16625v-9.58676l14.30279.70158ZM214.52121,175.88364l26.14458-12.23805,1.23945,11.98283-14.60138,2.00449-12.78265-1.74926ZM226.38685,178.17397v7.54265l-12.82651-6.48239.12151-2.79952,12.705,1.73927ZM227.04718,178.2639l.21189.02868.04495.00614,14.63246-2.00838v9.75886l-9.73886,4.1511-5.12691-4.12982-.02353-.01934v-7.78724ZM257.55961,176.96l14.53789-.70188v4.18912l-14.53789,1.12279v-4.61003ZM242.04994,163.24117l30.04756-6.72055v18.90154l-30.04756-12.18099ZM269.11443,156.51066l-27.92351,6.24581-1.30469-5.60485,29.2282-.64096ZM232.37358,157.31662l4.94145-.10827-14.12684,4.75151,9.18538-4.64323ZM219.18358,164.00331l20.0504-6.74438,1.3303,5.70507-26.52761,12.41691,5.14691-11.37761ZM218.09415,164.81026l-4.96145,10.96834-7.23792,1.84463-3.11695-.95908,15.31632-11.8539ZM213.01862,176.4882l-.12147,2.79985-6.38715,6.25452v-7.39533l6.50862-1.65904ZM202.40255,182.45463v-5.21555l3.44728,1.06092v7.97221l-.99871,2.88427-2.44857-6.70184ZM205.2232,190.09941l1.24314-3.59066,6.81688-6.67478,13.40044,6.77209,5.15401,4.15143.82533,5.36283-9.34781,4.91905-14.27748-4.86493-3.8145-6.07504ZM269.67018,244.86945l-45.76575-43.39404,9.02715-4.75147,36.7386,48.14552ZM234.41787,197.58309l22.69186,14.49c2.02432,4.99739,10.36454,25.56503,13.45235,32.87787l-36.14421-47.36787ZM222.70369,214.11853l-10.92676-14.33599,41.94722,40.77239-31.02046-26.4364ZM210.10182,197.23438l13.04612,4.44533,33.99868,41.28191-47.0448-45.72724ZM272.0975,252.25382l-10.69873-5.16754-34.39428-41.76206,45.09302,42.75658v4.17301ZM272.0975,246.86007c-1.3034-2.85721-10.29881-24.97496-14.15344-34.485l14.15344,4.41438v30.07062ZM257.51658,211.55007l-24.18811-15.44489-.81856-5.32062,9.72147-4.14625,15.0577-4.38573,15.15664-1.17015,15.1568,1.17015,15.0577,4.38573,9.72144,4.14625-.81853,5.32062-24.18814,15.44489-14.92927,4.6561-14.92913-4.6561ZM287.78184,212.07309l22.69202-14.49-36.14417,47.36787c3.08761-7.31283,11.42783-27.88048,13.45215-32.87787ZM272.79406,246.86007v-30.07062l14.15327-4.41438c-3.8543,9.51004-12.84971,31.62779-14.15327,34.485ZM311.95998,196.72393l9.02715,4.75147-45.76575,43.39404,36.7386-48.14552ZM283.49279,247.08629l-10.69873,5.16754v-4.17301l45.09303-42.75658-34.3943,41.76206ZM322.18773,214.11853l-31.02032,26.4364,41.94722-40.77239-10.9269,14.33599ZM287.74494,242.96162l33.9987-41.28191,13.04613-4.44533-47.04483,45.72724ZM335.85373,196.17445l-14.27702,4.86493-9.34795-4.91905.825-5.36283,5.15398-4.15143,13.40077-6.77209,6.81658,6.67478,1.24314,3.59066-3.8145,6.07504ZM342.48901,182.45463l-2.44857,6.70184-.99871-2.88427v-7.97221l3.44728-1.06092v5.21555Z"/>
    <path class="cls-1" d="M183.37774,196.79414c-.00805-9.14057-1.03834-18.1371-2.98386-26.02037-2.28099-9.24337-5.70458-16.66048-10.17456-22.04651-.23219-.27812-.47487-.55334-.72204-.8255l.05059-.16064-.18061.01772c-4.79952-5.18829-12.6064-9.17426-23.2352-11.85581-11.59448-2.92555-22.81221-3.36237-28.46719-3.36237-11.04355,0-38.1377,1.45052-51.18158,14.88544-.11213.1157-.22414.23397-.33465.35191l-.36739-.03689.10345.32178c-4.72699,5.14642-8.34187,12.47377-10.74965,21.79983-2.61858,10.14041-3.17836,20.22313-3.1848,26.93206l-.09943.09989.10072.10313c.00548,10.1836,1.00643,19.41717,2.97644,27.44221,2.35125,9.58871,6.05088,17.1932,10.99395,22.60952l-.10233.33162.37287-.04353c5.8114,6.15721,16.62213,9.7247,24.70908,11.63573,9.01827,2.13081,19.69783,3.40346,28.56995,3.40346,13.76222,0,38.58505-4.79305,49.47779-15.0611l.55912.06544-.1418-.46632c.12956-.12761.25895-.25621.38333-.38607,12.05566-12.49489,13.622-33.01742,13.62847-49.53128l.09956-.1028-.10022-.10055ZM182.47123,195.88697l-21.14435-21.14722,18.34272-3.07553c1.75458,7.32346,2.73039,15.55528,2.80163,24.22276ZM99.81976,222.2209l-.01564-.19853-.20754-.0203-10.87663-24.97235.0793-.13375-.08009-.13213,10.88485-25.78188.20011-.03046.01307-.16629,17.8427-7.34943,17.78294,7.73197,10.77239,25.72822-11.22195,25.24985-17.98259,7.88872-17.19092-7.81364ZM116.39193,230.32395l-15.04625,11.86904-1.48147-19.3804,16.52772,7.51136ZM87.81859,196.89954l-13.15746,22.3346-21.70733-22.33364,21.70796-21.71215,13.15684,21.71119ZM75.38976,174.76697l23.4561-3.66627-10.54436,24.9748-12.91175-21.30853ZM88.31246,197.72163l10.54258,24.20794-23.45399-2.29033,12.91141-21.91761ZM99.86533,170.2095l1.49081-17.9813,15.75268,10.87951-17.24349,7.1018ZM118.21337,163.11272l15.7604-10.88452,1.52579,18.39974-17.28619-7.51522ZM136.09702,171.04011l23.8425,3.72685-13.17697,21.74618-10.66553-25.47303ZM146.75579,197.27818l13.17182,22.36106-24.15768,2.3593,10.98586-24.72037ZM147.51265,196.89954l13.15568-21.71119,21.70733,21.71215-21.70733,22.33364-13.15568-22.3346ZM169.43976,149.0534c4.39507,5.29386,7.83509,12.92221,10.07579,21.97737l-18.34562,3.07553,8.04504-25.31651c.07511.08844.15164.17497.2248.2636ZM160.2291,174.15515l-23.84237-3.72603-1.53589-18.53801,33.52754-3.38428-8.14928,25.64833ZM168.37258,147.85989l-33.43649,3.37491,8.0589-15.3777c10.24594,2.26377,19.72941,6.09873,25.37759,12.00279ZM142.34577,135.71724l-8.00026,15.26474-15.85805-17.79726c7.40405.053,15.8429.8187,23.85831,2.53252ZM133.85939,151.63634l-16.19452,11.18423-16.19495-11.18423,16.19495-18.17511,16.19452,18.17511ZM116.84166,133.18472l-15.85772,17.79726-8.06487-15.38945c9.26208-1.94941,18.33193-2.3722,23.92259-2.40781ZM67.22662,147.7898c6.20393-6.38939,15.68111-10.01699,25.04212-12.05853l8.12463,15.50353-33.25024-3.3564c.02805-.02963.05498-.0593.08349-.0886ZM100.47894,151.8911l-1.53608,18.53801-23.84263,3.72603-8.14915-25.64833,33.52787,3.38428ZM66.16362,148.94318l7.99574,25.16313-18.42314-3.08827c1.93974-8.01006,5.15077-16.07638,10.42741-22.07486ZM55.58541,171.65097l18.41684,3.08877-21.14416,21.14755c.0493-5.63191.52949-14.85469,2.72732-24.23632ZM52.85809,197.93109l21.13544,21.74552-18.69331,2.54235c-1.79794-8.2732-2.39283-16.85063-2.44213-24.28787ZM55.44103,222.85189l18.73024-2.54621-7.97494,25.85504c-5.46384-6.2468-8.78995-14.58574-10.75529-23.30882ZM75.11035,220.25733l23.8325,2.32772,1.53803,20.12614-33.49404,3.88459,8.12351-26.33846ZM91.1869,258.36491c-7.84476-1.85493-18.28807-5.28287-24.01169-11.14103l33.07993-3.83658-8.08612,15.20062c-.32776-.07346-.65855-.14662-.98211-.22301ZM93.03107,258.78259l8.02217-15.08074,15.76328,17.99335c-7.58337-.20364-16.17046-1.25166-23.78544-2.91261ZM101.51761,243.01704l15.82581-12.48426-.07379-.04706,18.21993-7.99184-1.50642,19.69912-15.32553-12.08948-.67112.42926,15.82601,12.48426-16.14763,18.43199-16.14726-18.43199ZM119.47149,261.73517c-.32465,0-.6566-.00515-.98693-.00838l15.79136-18.02493,8.0223,15.08074c-8.31574,1.98901-16.68563,2.95258-22.82673,2.95258ZM143.15335,258.57505l-8.07919-15.18775,32.86675,3.81242c-5.72761,5.23199-15.16855,8.99184-24.78755,11.37533ZM134.84953,242.71119l1.53721-20.12614,23.83154-2.32772,8.12483,26.33846-33.49358-3.88459ZM169.10316,246.06277l-7.94449-25.75709,19.09133,2.59522c-1.85803,8.72533-5.2041,16.94923-11.14684,23.16188ZM180.38326,222.26667l-19.04767-2.59007,21.13706-21.74743c-.03092,7.70471-.43181,16.21963-2.0894,24.3375Z"/>
  </g>
  <polygon class="cls-1" points="357.95788 156.76813 357.95788 252.65246 361.29917 252.65246 361.29917 253.14746 354.12142 253.14746 354.12142 252.65246 357.46288 252.65246 357.46288 156.76813 354.12142 156.76813 354.12142 156.27313 361.29917 156.27313 361.29917 156.76813 357.95788 156.76813"/>
  <polygon class="cls-1" points="232.77915 140.96203 311.88665 140.96203 311.88665 137.62073 312.38165 137.62073 312.38165 144.79848 311.88665 144.79848 311.88665 141.45703 232.77915 141.45703 232.77915 144.79848 232.28415 144.79848 232.28415 137.62073 232.77915 137.62073 232.77915 140.96203"/>
  <polygon class="cls-1" points="37.53728 133.11818 37.53728 261.88182 40.87858 261.88182 40.87858 262.37682 33.70083 262.37682 33.70083 261.88182 37.04228 261.88182 37.04228 133.11818 33.70083 133.11818 33.70083 132.62318 40.87858 132.62318 40.87858 133.11818 37.53728 133.11818"/>
  <polygon class="cls-1" points="52.51087 117.73196 182.98296 117.73196 182.98296 114.39066 183.47796 114.39066 183.47796 121.56841 182.98296 121.56841 182.98296 118.22696 52.51087 118.22696 52.51087 121.56841 52.01587 121.56841 52.01587 114.39066 52.51087 114.39066 52.51087 117.73196"/>
</svg>