<?xml version="1.0" encoding="UTF-8"?>
<svg id="Layer_4" data-name="Layer 4" xmlns="http://www.w3.org/2000/svg" viewBox="0 0 395 395">
  <defs>
    <style>
      .cls-1 {
        fill: #000;
        stroke-width: 0px;
      }

      .cls-2 {
        fill: none;
        stroke: #07ff0e;
        stroke-miterlimit: 10;
        stroke-width: .5px;
      }
    </style>
  </defs>
  <g>
    <path class="cls-1" d="M159.19431,119.19192h-85.35605l-15.86095,12.68816v130.88629l15.86095,12.6882h85.35605l15.86095-12.6882v-130.88629l-15.86095-12.68816ZM173.74782,132.02615l-13.49455,7.21029-8.47107-8.91121,7.33734-10.00119,14.62828,11.70211ZM159.69414,202.70951v43.17687l-10.69471-48.56317,10.69471-48.56309v53.9494ZM73.33842,191.93694v-43.17683l10.69471,48.56309-10.69471,48.56317v-53.94944ZM147.1377,145.11368l12.55644-4.63168v3.95009l-10.83618,49.20541-1.72025-48.52382ZM148.05681,197.32321l-1.84658,52.09073-29.69394,2.1421-29.69394-2.1421-1.84658-52.09073,1.84658-52.09069,29.69394-2.1421,29.69394,2.1421,1.84658,52.09069ZM147.38778,144.02925l3.99674-12.77139,7.95029,8.3644-11.94703,4.40698ZM146.32495,144.30729l-27.16335-1.99442,31.30995-11.25416-4.14659,13.24858ZM116.51628,142.1349l-31.45609-11.30629h62.91219l-31.45609,11.30629ZM113.87096,142.31287l-27.16335,1.99442-4.14659-13.24858,31.30995,11.25416ZM85.64478,144.02925l-11.94703-4.40698,7.95029-8.3644,3.99674,12.77139ZM85.89485,145.11368l-1.72025,48.52382-10.83618-49.20541v-3.95009l12.55644,4.63168ZM73.33842,250.21441l10.83618-49.20545,1.72025,48.52386-12.55644,4.63164v-3.95005ZM85.64478,250.61724l-3.99674,12.77139-7.95029-8.3644,11.94703-4.40698ZM86.70761,250.33917l27.16335,1.99446-31.30995,11.25416,4.14659-13.24862ZM116.51628,252.51156l31.45609,11.30633h-62.91219l31.45609-11.30633ZM119.1616,252.33363l27.16335-1.99446,4.14659,13.24862-31.30995-11.25416ZM147.38778,250.61724l11.94703,4.40698-7.95029,8.3644-3.99674-12.77139ZM147.1377,249.53282l1.72025-48.52386,10.83618,49.20545v3.95005l-12.55644-4.63164ZM112.98924,120.12295h45.12289l-7.17105,9.77464h-68.84961l-7.17105-9.77464h38.06882ZM73.91302,120.32404l7.33734,10.00119-8.47107,8.91121-13.49455-7.21029,14.62828-11.70211ZM58.90833,202.73832v-69.85816l13.49906,7.21255v114.46106l-13.49906,7.21259v-59.02802ZM59.28474,262.62035l13.49455-7.21033,8.47107,8.91125-7.33734,10.00119-14.62828-11.70211ZM120.04332,274.52355h-45.12289l7.17105-9.77464h68.84961l7.17105,9.77464h-38.06882ZM159.11954,274.32246l-7.33734-10.00119,8.47107-8.91125,13.49455,7.21033-14.62828,11.70211ZM174.12423,202.73832v59.02802l-13.49906-7.21259v-114.46106l13.49906-7.21255v69.85816Z"/>
    <path class="cls-1" d="M336.88606,191.43993l-16.05915-16.05882c-.02706-.02706-.05798-.05188-.09151-.07121l-13.72915-8.14559c-.07154-.04254-.15404-.06541-.2372-.06541h-38.24132l-.04706-.00934-.0464.00934h-36.84268c-.07669,0-.15243.01868-.21978.05511l-15.20581,8.14559c-.04125.02224-.07927.05092-.11246.08474l-15.98147,16.29151c-.08573.08732-.13342.2043-.13342.32644v4.42213c0,.00838.00452.01709.00548.02643.00257.0432.01.0854.02482.12632.00581.01772.01353.03287.02191.049.0161.03316.03577.06379.05996.09247.00706.00838.0103.01967.01835.02901l12.80684,13.27154,1.29132,1.29133,8.25063,8.25095c.01676.01677.03481.03224.05415.04673l38.0918,27.92882c.01676.01195.03416.0229.05287.0329l8.54423,4.65478c.06927.03805.14596.05673.22268.05673.07217,0,.14372-.01709.21011-.04996l7.8246-3.95676c.02515-.01257.049-.02706.07092-.04416l38.16912-28.85919c.01419-.01096.02709-.02191.03996-.03386l8.64125-8.19651,12.56835-14.4114c.07412-.08379.11474-.19335.11474-.30518v-4.65544c0-.12375-.049-.24169-.13665-.32904ZM335.66661,191.53662h-14.20934l-9.40114-15.3611h8.24937l15.3611,15.3611ZM275.78256,247.60408l-6.7057-21.05202,24.99621-5.89423-18.29051,26.94625ZM261.15878,246.80518l-18.02496-25.91919,24.76257,5.6722-5.99445,20.65239-.74316-.4054ZM201.7169,196.88912h13.20224l-2.43728,8.73404-10.76496-8.73404ZM215.92043,192.46764v3.4911h-15.05077v-3.4911h15.05077ZM225.6651,176.82261l3.15434-.6471h79.37919l3.16335.64805,9.00408,14.71305h-103.17493l8.47397-14.71401ZM233.35756,175.24448l35.12309-7.20522,35.17338,7.20522h-70.29647ZM320.73087,192.46764v3.4911h-103.87941v-3.4911h103.87941ZM324.46723,205.19937l-2.63485-8.31026h13.66342l-11.02857,8.31026ZM323.65642,205.7218l-9.35217,4.48816,6.78048-12.59768,2.57169,8.10952ZM216.12539,196.88912l9.15621,14.90158-11.98765-5.61386,2.59166-9.28772h.23978ZM226.22069,213.25827l28.05739,28.01136-38.61548-32.95588,10.55809,4.94453ZM241.75389,220.5315l15.73493,22.62724-28.78669-28.73868,13.05176,6.11144ZM294.97348,219.4893l-26.49412,6.24809-26.26239-6.01639-15.4014-7.21228-9.59739-15.61959h103.20011l-7.51139,13.99246-17.93342,8.60772ZM323.71958,206.72404l-.02.41893-40.69827,35.75312-.19077.14405,30.71062-31.42092,10.19842-4.89519ZM324.67668,206.2068l7.96643-6.00283-8.12496,9.31927.15853-3.31643ZM321.66157,195.95875v-3.4911h14.42978v3.4911h-14.42978ZM318.80116,175.24448h-7.41084l-5.18974-7.21456h.44022l12.16037,7.21456ZM305.05396,168.02992l5.19103,7.21456h-1.95228l-35.22073-7.21456h31.98198ZM228.72532,175.24448h-1.96871l5.07665-7.21456h32.06287l-35.17081,7.21456ZM225.62062,175.24448h-7.37989l11.84165-6.34349-4.46177,6.34349ZM216.58139,176.17551h8.38441l-.00066.00096-8.84845,15.36015h-14.60379l15.06849-15.3611ZM206.04558,201.60033l6.28673,5.10081.5743,2.00967-6.86103-7.11048ZM214.27106,210.09816l-.66-2.31099,34.68548,29.60107-25.24533-18.5093-8.78014-8.78077ZM269.39139,251.2911l-6.65287-3.62452,5.76276-19.85349,6.56522,20.60824-5.67511,2.86978ZM277.04712,247.39783l18.39687-27.10125,15.62471-7.5004-33.24684,34.01577-.77474.58588ZM315.07642,218.644l-21.95081,16.59732,30.5121-26.80445-.10441,2.18849-8.45688,8.01864Z"/>
  </g>
  <polygon class="cls-1" points="43.66375 120.04043 43.66375 274.95957 47.00504 274.95957 47.00504 275.45457 39.82729 275.45457 39.82729 274.95957 43.16875 274.95957 43.16875 120.04043 39.82729 120.04043 39.82729 119.54543 47.00504 119.54543 47.00504 120.04043 43.66375 120.04043"/>
  <polygon class="cls-1" points="58.30733 104.38321 174.56025 104.38321 174.56025 101.04192 175.05525 101.04192 175.05525 108.21967 174.56025 108.21967 174.56025 104.87821 58.30733 104.87821 58.30733 108.21967 57.81233 108.21967 57.81233 101.04192 58.30733 101.04192 58.30733 104.38321"/>
  <polygon class="cls-1" points="351.83141 167.58456 351.83141 251.78643 355.17271 251.78643 355.17271 252.28143 347.99496 252.28143 347.99496 251.78643 351.33641 251.78643 351.33641 167.58456 347.99496 167.58456 347.99496 167.08956 355.17271 167.08956 355.17271 167.58456 351.83141 167.58456"/>
  <polygon class="cls-1" points="231.93721 152.28085 306.44808 152.28085 306.44808 148.93955 306.94308 148.93955 306.94308 156.1173 306.44808 156.1173 306.44808 152.77585 231.93721 152.77585 231.93721 156.1173 231.44221 156.1173 231.44221 148.93955 231.93721 148.93955 231.93721 152.28085"/>

</svg>