<?xml version="1.0" encoding="UTF-8"?>
<svg id="Layer_4" data-name="Layer 4" xmlns="http://www.w3.org/2000/svg" viewBox="0 0 395 395">
  <defs>
    <style>
      .cls-1 {
        fill: #000;
        stroke-width: 0px;
      }

      .cls-2 {
        fill: none;
        stroke: #07ff0e;
        stroke-miterlimit: 10;
        stroke-width: .5px;
      }
    </style>
  </defs>
  <path class="cls-1" d="M46.48613,133.12626v127.87177h128.31393v-127.87177H46.48613ZM162.59713,197.33155v43.62768l-12.34213-43.62768h12.34213ZM150.34716,196.79273l12.24996-43.29818v43.29818h-12.24996ZM162.60746,242.97273l.25908-.07313-.1914.12471-16.03467-9.95607,3.43151-34.40316,12.53548,44.30765ZM162.60746,151.48073l-12.53548,44.30748-3.43213-34.40313,16.02044-9.963.20625.13197-.25908-.07333ZM147.17029,160.42135l9.07371-14.9554,17.39202-11.17585-10.34603,16.10605-16.11971,10.0252ZM146.21444,160.95938l-34.12794-3.60132,42.86971-11.81572h.61231l-9.35408,15.41704ZM110.91216,133.66492h62.70195l-17.64662,11.33893h-45.05533v-11.33893ZM110.91216,145.54234h42.01831l-42.01831,11.58079v-11.58079ZM110.91216,157.77554l35.19721,3.71428,3.52173,35.3029h-38.71893v-39.01719ZM110.91216,197.33155h38.7518l-3.5546,35.63195-35.19721,3.71412v-39.34606ZM155.47312,248.92788l-44.00019-11.76783,34.74088-3.66577,9.2593,15.4336ZM110.91216,237.56802l43.08562,11.52261h-43.08562v-11.52261ZM70.27256,197.33155l-11.76272,43.53871v-43.53871h11.76272ZM58.50985,196.79273v-43.22436l11.7614,43.22436h-11.7614ZM70.50587,198.52975l3.60099,34.53592-15.43202,9.25934,11.83103-43.79526ZM58.67613,152.12928l15.43073,9.25822-3.60037,34.218-11.83037-43.47621ZM73.6454,160.48273l-15.21128-9.12671-10.80103-17.07704,17.40555,11.18489,8.60676,15.01886ZM65.79562,145.70091l43.37375,11.65794-34.63066,3.60053-8.74309-15.25847ZM47.0243,134.32442l10.94739,17.30761v45.1607h-10.94739v-62.46831ZM47.0243,197.33155h10.94739v45.48875l-10.94739,16.99404v-62.48279ZM58.43381,243.09777l15.14938-9.08982-9.34765,15.15875-16.58154,10.66408,10.77981-16.73301ZM74.53257,233.49361l34.0029,3.53526-43.51552,11.89129,9.51261-15.42654ZM110.374,260.45986h-62.70257l16.8403-10.83073h45.86228v10.83073ZM110.374,249.09063h-43.93511l43.30732-11.83489.62779.16823v11.66665ZM110.374,236.67825l-35.73669-3.71507-3.71507-35.63162h39.45176v39.34669ZM110.374,196.79273h-39.4511l3.71379-35.30257,35.73732-3.71478v39.01735ZM110.374,157.12521l-43.09595-11.58287h43.09595v11.58287ZM110.374,145.00385h-45.05533l-17.64662-11.33893h62.70195v11.33893ZM110.91216,260.45986v-10.83073h45.0579l17.60923,10.83073h-62.66713ZM156.24334,249.16541l-9.08401-15.14132,16.13198,10.01665,10.35504,15.82805-17.40301-10.70338ZM174.26187,259.82596l-11.12654-17.00695v-45.48746h11.12654v62.49441ZM174.26187,196.79273h-11.12654v-45.15941l11.12654-17.32081v62.48022Z"/>
  <path class="cls-1" d="M332.62552,155.22746l-20.06621-8.66507h-40.41371v.11359h-39.73213l-20.06618,8.66507-15.88834,11.27382v5.73906l33.24588,47.36338,8.65316,10.47671,7.98801,7.30802,9.35923,6.6232,8.18232,5.45497s8.48687,4.31515,8.5436,4.36897l8.65412-4.48206,8.18265-5.45516,9.35923-6.62399,7.98831-7.30755,8.6522-10.47638,33.24621-47.36384v-5.73906l-15.88835-11.27366ZM332.32196,155.83928l14.0353,9.96702-22.02427-10.63478-9.21357-6.76114,17.20254,7.42889ZM324.07839,155.80543l21.80901,10.53099h-73.06019v-10.53099h51.25118ZM272.82721,155.12368v-7.81704l46.62765,7.81704h-46.62765ZM312.37725,147.2443l10.60029,7.77883-46.39562-7.77883h35.79533ZM272.82721,243.49068v-4.83849l67.92327-61.0173-67.92327,65.85579ZM333.60005,185.51767l-60.77283,62.93526v-4.01237l60.77283-58.92289ZM272.82721,237.73535v-7.02428l62.09669-48.75796-62.09669,55.78224ZM272.82721,229.84403v-9.22759l68.32868-44.4243-68.32868,53.65189ZM272.82721,219.80256v-48.23801h73.66022l-1.40184,1.25908-72.25838,46.97893ZM225.51795,155.23697l46.62765-7.81658v7.81658h-46.62765ZM272.1456,155.91921v10.53099h-73.06052l21.80934-10.53099h51.25118ZM232.59556,147.35822h35.79599l-46.39661,7.77836,10.60062-7.77836ZM212.65053,155.95303l17.2032-7.42853-9.2139,6.76015-22.0246,10.6354,14.0353-9.96702ZM197.14119,167.13178h75.00441v3.8646h-75.00441v-3.8646ZM204.22266,177.74897l67.92294,61.0173v4.83803l-67.92294-65.85533ZM272.1456,244.55464v4.01141l-60.77254-62.93476,60.77254,58.92335ZM210.0492,182.06653l62.0964,48.75783v7.02507l-62.0964-55.7829ZM203.81659,176.30539l68.32901,44.42463v9.22713l-68.32901-53.65176ZM199.88688,172.93741l-1.40121-1.25911h73.65993v48.23768l-72.25871-46.97857ZM246.79008,236.9843l-7.92129-7.24274-8.61386-10.42645-26.60077-37.89713,3.27938,3.71121,41.91099,53.3079-2.05445-1.45279ZM256.0913,243.56368l-5.69732-4.03059-.7093-1.12936-34.87173-44.35504,47.27636,53.51316-5.99801-3.99818ZM264.28975,249.02287l-56.8322-64.32971-9.03246-11.48941,73.72051,76.34425v3.50849l-7.85585-4.03362ZM294.79089,239.26998l-5.90971,4.18011-5.99768,3.99835,47.27669-53.51399-34.87235,44.3552-.49695.98033ZM314.71755,219.20103l-8.6132,10.42708-7.92162,7.24291-2.05379,1.45263,41.91063-53.30804,3.27938-3.71108-26.6014,37.89651ZM337.51556,184.57892l-56.83217,64.32954-7.85618,4.03395v-3.5077l73.72052-76.34441-9.03217,11.48862ZM347.83196,170.88263h-75.00474v-3.8643h75.00474v3.8643Z"/>
  <polygon class="cls-1" points="32.17259 133.62126 32.17259 260.50302 35.51388 260.50302 35.51388 260.99802 28.33613 260.99802 28.33613 260.50302 31.67759 260.50302 31.67759 133.62126 28.33613 133.62126 28.33613 133.12626 35.51388 133.12626 35.51388 133.62126 32.17259 133.62126"/>
  <polygon class="cls-1" points="46.98113 118.31755 174.30506 118.31755 174.30506 114.97626 174.80006 114.97626 174.80006 122.15401 174.30506 122.15401 174.30506 118.81255 46.98113 118.81255 46.98113 122.15401 46.48613 122.15401 46.48613 114.97626 46.98113 114.97626 46.98113 118.31755"/>
  <polygon class="cls-1" points="363.32257 147.05739 363.32257 253.45417 366.66387 253.45417 366.66387 253.94917 359.48612 253.94917 359.48612 253.45417 362.82757 253.45417 362.82757 147.05739 359.48612 147.05739 359.48612 146.56239 366.66387 146.56239 366.66387 147.05739 363.32257 147.05739"/>
  <polygon class="cls-1" points="232.87737 131.75368 312.51183 131.75368 312.51183 128.41239 313.00683 128.41239 313.00683 135.59014 312.51183 135.59014 312.51183 132.24868 232.87737 132.24868 232.87737 135.59014 232.38237 135.59014 232.38237 128.41239 232.87737 128.41239 232.87737 131.75368"/>

</svg>