<?xml version="1.0" encoding="UTF-8"?>
<svg id="Layer_4" data-name="Layer 4" xmlns="http://www.w3.org/2000/svg" viewBox="0 0 395 395">
  <defs>
    <style>
      .cls-1 {
        fill: #000;
        stroke-width: 0px;
      }

      .cls-2 {
        fill: none;
        stroke: #07ff0e;
        stroke-miterlimit: 10;
        stroke-width: .5px;
      }
    </style>
  </defs>
  <path class="cls-1" d="M152.76014,156.58459l.06607-.38574-.22041-.03821c-.07541-.20671-.15051-.41441-.22721-.62149-1.49081-4.01026-3.20364-7.93013-5.13176-11.74529l-.00257-.03802.07412-.1094-.08831-.073-.03029-.4093-.26618.02063c-3.09471-6.03765-6.72504-11.80974-10.86485-17.2528-11.21452-14.74654-22.58213-22.295-23.65948-22.99381l-.31258-.13424s-12.77202,8.25904-23.97077,22.75116c-6.88746,8.91274-12.37563,18.76053-16.31114,29.26961-4.91908,13.13459-7.41371,27.34423-7.41371,42.2334,0,14.96279,2.3957,29.18936,7.12011,42.28399,3.80434,10.54743,9.12625,20.40294,15.81842,29.29344,10.97507,14.58333,24.61015,23.50719,24.6878,23.56055.15533-.11312,13.38529-8.98009,24.04007-22.76759,6.88743-8.9129,12.3753-18.76037,16.31114-29.27011,4.91842-13.13426,7.41309-27.34327,7.41309-42.23257,0-14.49776-2.36577-28.4-7.03154-41.34121ZM159.06981,196.00655l-8.80915-19.82884,7.97029,6.98026c.48276,4.10857.77375,8.39213.83886,12.84858ZM148.88201,219.99131l-13.70691,12.00487,8.04309-33.13454,5.66382,21.12967ZM134.71297,162.55986l14.16904,12.41064-5.6432,21.17831-8.52585-33.58895ZM143.65389,197.764h15.23316l-9.52357,21.29645-5.70959-21.29645ZM143.65389,197.19746l5.70959-21.29625,9.52357,21.29625h-15.23316ZM158.10201,182.10705l-8.26802-7.24112,6.12978-4.77114c.884,3.81965,1.60941,7.8241,2.13823,12.01226ZM152.50267,158.0944c1.23331,3.54846,2.34382,7.29528,3.28515,11.24287l-6.00669,4.67481,2.72154-15.91768ZM152.01893,156.73253l-2.60647,15.24346-2.0132-26.20969c1.6468,3.40649,3.20783,7.06164,4.61967,10.96623ZM148.86106,174.01433l-13.84099-12.12364,11.58868-17.19237,2.25232,29.31601ZM134.67848,161.13433l-10.72081-36.02221,22.41905,18.66853-11.69824,17.35368ZM133.98561,161.28065l-21.47805-26.08096,10.37695-10.98105.09379.07814,11.00731,36.98386ZM135.52506,126.38378c3.31162,4.35544,6.81721,9.63768,10.08467,15.8397l-21.65463-18.03173,7.28544-3.10665c1.41636,1.64967,2.85173,3.41279,4.28452,5.29868ZM130.75779,120.52337l-7.24614,3.09022-.0825-.27555-10.40338-19.13c2.64742,1.84869,9.84232,7.24261,17.73202,16.31533ZM112.49017,104.70271l10.17875,18.71493-10.17875,10.77206v-29.48698ZM101.51668,123.41764l10.18651-18.72813v29.50745l-10.18651-10.77932ZM111.30069,134.80073l-20.58923,24.76353,10.49618-35.26746.09441-.07814,9.99864,10.58208ZM111.07477,104.36723l-10.31798,18.97081-.08184.27555-7.41728-3.16288c7.8739-8.9327,15.08202-14.2232,17.8171-16.08347ZM88.66572,126.01124c1.3725-1.77649,2.74537-3.44081,4.10338-5.00155l7.46176,3.18206-22.19187,18.47855c3.41989-6.5831,7.13272-12.13476,10.62673-16.65906ZM100.22892,125.11212l-10.66474,35.83272-.01805.02175-.05188.06283-.0161.06174-11.66827-17.31051,22.41904-18.66853ZM89.16587,161.89069l-13.84099,12.12364,2.25199-29.31601,11.58901,17.19237ZM74.71903,197.764l5.78111.11989-5.67768,21.17656-9.52357-21.29645h9.42015ZM65.36106,197.0581l9.4614-21.15689,5.6722,21.15689h-15.1336ZM80.95808,198.90257l8.0518,33.09299-13.70596-12.00425,5.65415-21.08875ZM75.30393,174.9705l13.72338-12.01923-8.05184,33.17272-5.67155-21.15349ZM76.84341,145.04363l-2.07025,26.93173-2.68801-15.71995c1.44989-4.00432,3.05798-7.74164,4.75827-11.21178ZM71.60205,157.6165l2.80309,16.39559-6.15816-4.79275c.95261-4.08359,2.08666-7.95191,3.35508-11.60283ZM68.07165,169.97731l6.28033,4.88862-8.37764,7.33715c.50566-4.26855,1.21882-8.34408,2.09731-12.22577ZM65.85606,183.24595l8.06985-7.06824-8.81202,19.83511c.03448-4.43018.2936-8.68636.74217-12.76688ZM65.12227,198.63929l8.80364,20.14449-8.03309-7.0357c-.46632-4.28-.72125-8.65154-.77055-13.10879ZM66.01462,212.79286l8.33735,7.30287-6.28647,4.89281c-.88074-3.97822-1.56394-8.04392-2.05088-12.19568ZM68.23503,225.75133l6.17011-4.80176-2.82949,16.55237c-1.31423-3.82434-2.42603-7.74276-3.34062-11.75061ZM72.05937,238.86385l2.71379-15.87755,2.0957,27.27542c-1.81305-3.69768-3.41342-7.50007-4.80949-11.39787ZM75.32488,220.94765l13.84099,12.12298-11.58901,17.1927-2.25199-29.31568ZM100.22892,269.84936l-22.41904-18.6682,11.69824-17.35401,10.72081,36.02221ZM90.57705,234.94332l21.09489,24.82653-10.36989,10.97379-.09441-.07861-10.63059-35.72171ZM87.90356,268.21128c-3.86202-5.13048-7.23456-10.5136-10.12077-16.1339l22.44808,18.69236-7.63415,3.25472c-1.55044-1.79292-3.1247-3.72844-4.69316-5.81318ZM93.08654,274.58391l7.58842-3.23651.08184.27634,10.44559,19.2056c-2.91746-1.93862-10.18166-7.19991-18.11585-16.24544ZM111.70319,290.27214l-10.18651-18.72862,10.18651-10.77915v29.50778ZM112.40926,259.65738v-.10989l-22.33169-26.28222-.13504-.45325-.00901-.00805-8.49268-34.90073.01096.00033-.09474-.35722,8.61739-35.50401.22493-.75781,21.58471-25.96123v.10972l22.13772,26.88051,8.91515,35.12147-8.58449,35.3693-.00838.00772-.27232.91298-21.56184,25.93401-.00066-.00162ZM133.46032,235.44492l-10.48202,35.22011-.09379.07861-9.9854-10.56739,20.56121-24.73132ZM112.49017,290.25907v-29.48682l10.17875,10.77127-10.17875,18.71555ZM113.08797,290.63725l10.34118-19.01351.0825-.27634,7.43596,3.17189c-7.90647,8.97286-15.14486,14.27445-17.85963,16.11796ZM135.52797,268.97216c-1.36834,1.77164-2.73732,3.43131-4.09118,4.98802l-7.48169-3.19044,22.22471-18.5061c-3.42728,6.60485-7.14915,12.17278-10.65184,16.70853ZM123.95767,269.84936l10.64989-35.78471.03963-.04739.05191-.06333.01739-.06976,11.66022,17.29698-22.41905,18.6682ZM135.02007,233.07063l13.84099-12.12298-2.25232,29.31568-11.58868-17.1927ZM147.33966,249.96155l2.0728-26.97575,2.69316,15.74849c-1.4521,4.01059-3.06375,7.75305-4.76596,11.22726ZM152.58936,237.37367l-2.80823-16.4241,6.16882,4.80097c-.95456,4.09081-2.09022,7.9664-3.36059,11.62313ZM156.12396,224.99273l-6.28996-4.897,8.38857-7.34702c-.50596,4.27518-1.21882,8.35636-2.0986,12.24402ZM150.26065,218.78378l8.8175-19.71912c-.03736,4.3854-.29452,8.59967-.73702,12.64217l-8.08048,7.07695Z"/>
  <path class="cls-1" d="M310.74608,175.93608l-.02706-.02643-.00257.0029-.07283-.06059-16.96213-9.66702h-67.75893l-17.02143,9.66702-.07283.06059-.00386-.0029-.02515.02643-19.85349,16.33417v5.03395l70.82691,61.56193,70.82625-61.56193v-5.03395l-19.85287-16.33417ZM329.50773,192.25834c-.49434.11068-1.23555.26344-2.13015.40752l-11.81812-11.88792,13.94827,11.4804ZM318.12531,193.07641c2.73798.99129,6.41375.72656,9.02088.32789l.19463.19595v3.01947c-1.65191-.14952-7.32187-.56011-9.52228.60812v-4.24327l.34096.16965-.03419-.07781ZM326.53645,192.79103c-2.71283.37125-6.35507.54272-8.79849-.61568l-6.23713-14.50838,15.03562,15.12406ZM279.24656,196.65404c4.87522.10329,17.03044.67756,19.17158.77989v.34046l-38.32897,41.06002v-40.62092c2.07085-.24509,14.27956-1.66033,19.15739-1.55945ZM260.08916,197.52369v-4.62469c4.76952,1.51127,10.56063,2.02287,16.19769,2.02303,10.28158,0,20.04301-1.69191,22.13128-2.07748v3.90439c-2.18691-.10474-14.28989-.6766-19.15739-.77972-4.8572-.10375-16.87062,1.28261-19.17158,1.55447ZM299.01111,198.1429l.09217-.69287c1.22074-.00145,5.35346-.0161,9.17555-.11151,3.39346-.08587,6.86423.47437,8.36019.75362l-54.23085,39.26129,36.60294-39.21053ZM285.00479,176.65148l31.25849,15.55901c-3.37092.32129-13.10077,1.1057-17.3147-.0822l-13.94379-15.4768ZM308.26141,196.65404c-3.82592.0954-7.96254.1094-9.15813.11085v-3.88796c4.9835,1.21654,15.82195.16807,18.03011-.06382v4.67656c-1.24588-.24522-5.10276-.93004-8.87198-.83563ZM293.80137,167.21055l13.01886,7.28643-20.8493-7.36055,7.83044.07412ZM283.85751,167.11646l26.36393,9.30735,6.57099,15.2857-32.91235-16.38252-.27136-8.21311.24879.00257ZM298.09781,192.20742c-3.76084.68303-24.50573,4.14869-37.59485.10765l22.99169-16.31665,14.60316,16.20901ZM282.92233,167.10742l.2636,7.93822-22.16349-8.14704,21.89989.20882ZM236.6224,167.10742l21.89926-.20882-22.16353,8.14704.26426-7.93822ZM259.04244,192.31507c-13.08915,4.04105-33.83467.57539-37.59551-.10765l14.60316-16.20901,22.99235,16.31665ZM257.13656,237.35343l-54.23151-39.26129c1.49662-.27925,4.96739-.83949,8.36085-.75362,3.82209.0954,7.95482.11006,9.17621.11151v.45923l36.69445,39.44417ZM202.41134,197.48966v-4.67656c2.20816.23189,13.04596,1.28037,18.03077.06382v3.88796c-1.19562-.00145-5.33415-.01544-9.15816-.11085-3.77051-.09441-7.62673.5904-8.87261.83563ZM220.59678,192.12829c-4.21522,1.1879-13.94441.40349-17.31533.0822l31.25783-15.55901-13.9425,15.4768ZM225.74402,167.21055l7.82975-.07412-20.84927,7.36055,13.01952-7.28643ZM209.32328,176.42382l26.36456-9.30735.24945-.00257-.27265,8.21311-32.91235,16.38252,6.57099-15.2857ZM201.80678,192.17534c-2.44408,1.1584-6.08566.98693-8.79849.61568l15.03562-15.12406-6.23713,14.50838ZM201.72685,192.98457v4.24327c-2.20107-1.16823-7.87165-.75765-9.5236-.60812v-3.01947l.19529-.19595c2.60647.39867,6.2829.6634,9.02085-.32789l-.03415.07781.34162-.16965ZM203.98527,180.77794l-11.81812,11.88792c-.89394-.14408-1.63515-.29684-2.12952-.40752l13.94765-11.4804ZM189.63093,192.86937c.40283.09603,1.06154.24265,1.88846.3896v3.41458l-1.88846.11151v-3.91568ZM190.14527,197.44069l1.59004-.09412,25.46287,23.62031-27.05291-23.52619ZM192.657,197.26797c2.4286-.19387,6.87588-.33564,8.61158.48418l.56592.41059,30.07769,35.51978-39.25518-36.41454ZM259.45556,257.71549l-23.88052-20.76776-31.42217-37.10682,55.30269,40.03636v17.83822ZM259.45556,238.83441l-38.32963-41.06002v-.34046c2.14243-.10233,14.29702-.6766,19.17224-.77989,4.87651-.10088,17.08651,1.31436,19.15739,1.55945v40.62092ZM259.45556,197.52369c-2.30162-.27185-14.31566-1.65822-19.17158-1.55447-4.8675.10312-16.97114.67498-19.15805.77972v-3.90439c2.08893.38557,11.84971,2.07748,22.13257,2.07748,5.63643-.00017,11.42691-.51176,16.19706-2.02303v4.62469ZM236.7281,175.63941l23.04459-8.47074,23.04456,8.47074-23.04456,16.35417-23.04459-16.35417ZM260.08916,257.71549v-17.83822l55.30335-40.03636-31.42283,37.10682-23.88052,20.76776ZM317.70961,198.16273l.56654-.41059c1.7357-.81982,6.18235-.67805,8.61092-.48418l-39.25518,36.41454,30.07772-35.51978ZM302.3459,220.96689l25.46349-23.62031,1.58878.09412-27.05228,23.52619ZM329.91446,196.78505l-1.88849-.11151v-3.41458c.82629-.14695,1.485-.29357,1.88849-.3896v3.91568Z"/>
  <polygon class="cls-1" points="50.08751 103.29893 50.08751 291.70107 53.4288 291.70107 53.4288 292.19607 46.25106 292.19607 46.25106 291.70107 49.59251 291.70107 49.59251 103.29893 46.25106 103.29893 46.25106 102.80393 53.4288 102.80393 53.4288 103.29893 50.08751 103.29893"/>
  <polygon class="cls-1" points="64.64856 87.99522 159.29668 87.99522 159.29668 84.65393 159.79168 84.65393 159.79168 91.83168 159.29668 91.83168 159.29668 88.49022 64.64856 88.49022 64.64856 91.83168 64.15356 91.83168 64.15356 84.65393 64.64856 84.65393 64.64856 87.99522"/>
  <polygon class="cls-1" points="345.40765 166.43244 345.40765 258.37113 348.74894 258.37113 348.74894 258.86613 341.5712 258.86613 341.5712 258.37113 344.91265 258.37113 344.91265 166.43244 341.5712 166.43244 341.5712 165.93744 348.74894 165.93744 348.74894 166.43244 345.40765 166.43244"/>
  <polygon class="cls-1" points="226.1074 151.37624 293.37755 151.37624 293.37755 148.03494 293.87255 148.03494 293.87255 155.21269 293.37755 155.21269 293.37755 151.87124 226.1074 151.87124 226.1074 155.21269 225.6124 155.21269 225.6124 148.03494 226.1074 148.03494 226.1074 151.37624"/>

</svg>