<?xml version="1.0" encoding="UTF-8"?>
<svg id="Layer_4" data-name="Layer 4" xmlns="http://www.w3.org/2000/svg" viewBox="0 0 395 395">
  <defs>
    <style>
      .cls-1 {
        fill: #000;
        stroke-width: 0px;
      }

      .cls-2 {
        fill: none;
        stroke: #07ff0e;
        stroke-miterlimit: 10;
        stroke-width: .5px;
      }
    </style>
  </defs>
  <path class="cls-1" d="M157.30655,154.61427c-2.8348-9.61448-7.46899-18.1297-13.77314-25.30994-4.93274-5.61838-10.85713-10.26092-17.17627-13.47826l.00386-.02079-.07557-.01515c-.24153-.12263-.48322-.24766-.72574-.36544-6.55825-3.19737-13.58204-4.88654-20.31417-4.88654-7.02412,0-13.88934,1.52048-20.40538,4.51978-6.55971,3.01868-12.45651,7.39682-17.52706,13.01084-10.87871,12.04807-16.87478,28.57044-17.39202,47.4275l-.07669.11088.07171.10246c-.10732,4.25713.063,8.63254.51932,13.10202,1.37254,13.42753,4.94631,26.64268,10.62511,39.29996l-.02369.18147.1616.12243c.12923.28489.25766.57044.38851.85529,4.78724,10.405,11.0052,20.44937,18.48224,29.85375,12.7311,16.01305,24.87118,24.73743,24.99202,24.82379l.17434.12438.18127-.11471c.11395-.07283,11.53584-7.41437,23.85992-22.79835,7.23582-9.03217,13.36708-19.03173,18.22267-29.72095,6.0689-13.36114,10.15186-27.84213,12.13443-43.04246,1.55427-11.90868.77085-23.2748-2.32726-33.78197ZM159.75255,174.98002l-14.60296-21.04605,10.36567-2.84899c2.63373,7.41886,4.06635,15.45796,4.23729,23.89504ZM148.25188,228.05653l-24.74696,18.68493v-31.06188l20.88652-17.78423,3.91344,30.03482c-.01772.04254-.03561.08445-.053.12636ZM105.01624,237.44348l17.7502,10.06596-17.45436,34.9078-18.0472-34.9078,17.75136-10.06596ZM87.16337,246.83429v-30.4193l17.16676,20.68559-17.16676,9.73371ZM105.70135,237.10058l17.1668-20.68559v30.4193l-17.1668-9.73371ZM105.01624,236.92881l-17.88013-21.54412-10.04969-39.96706,7.46127-21.44951,20.46855-11.00761,20.46756,11.00761,7.46173,21.44951-10.05015,39.96706-17.87914,21.54412ZM65.36192,154.35984l11.03325,21.04364-11.03533,21.25599-14.73915-21.05364,14.74123-21.24599ZM65.08172,153.3278l-10.14057-2.78682c2.42101-6.96656,5.8177-13.29923,10.14057-18.82515v21.61196ZM122.70233,130.12725l-17.68609,12.32698-17.68628-12.32698,17.68628-18.82419,17.68609,18.82419ZM133.33694,174.60392l-7.14464-20.53927h17.9125l-10.76786,20.53927ZM133.38142,176.29484l10.85099,20.89959-20.49415,17.44971,9.64316-38.3493ZM125.97058,153.42753l-.13533-.38801-2.2934-22.51781,20.77162,1.43989v21.46594h-18.34288ZM125.20052,153.09205l-19.37961-10.42239,17.10364-11.92092,2.27598,22.34331ZM104.21104,142.66966l-19.38007,10.42239,2.27601-22.34331,17.10406,11.92092ZM84.19611,153.03951l-.13471.38801h-18.34272v-21.46594l20.77099-1.43989-2.29357,22.51781ZM65.92668,154.06466h17.91299l-7.14463,20.53927-10.76836-20.53927ZM86.29323,214.64414l-20.49382-17.44971,10.8507-20.89959,9.64313,38.3493ZM61.72453,227.94661l3.91552-30.05125,20.88652,17.78423v31.06188l-24.75548-18.69203c-.01515-.03449-.03128-.06801-.04656-.10283ZM61.22758,226.829c-3.33481-7.59548-6.18974-15.99018-8.12447-25.11511l11.91528-3.97838-3.79081,29.09349ZM145.01343,197.7355l11.68422,3.80952c-2.03383,9.28736-4.7787,17.69107-7.90228,25.21824l-3.78193-29.02776ZM144.67165,196.65947l-11.035-21.25599,11.03292-21.04364,14.74123,21.24599-14.73915,21.05364ZM144.95026,131.98769c4.41969,5.53057,7.88456,11.75173,10.34873,18.49561l-10.34873,2.8445v-21.34011ZM143.05501,129.72488c.46309.5279.91667,1.06382,1.36191,1.60522l-20.84752-1.44504,2.6635-13.43314c6.13385,3.14899,11.87083,7.63349,16.82211,13.27296ZM125.64236,116.1535l-2.64789,13.35467-17.21785-18.325c6.75002.0859,13.51274,1.81064,19.86574,4.97033ZM104.24955,111.18848l-17.2125,18.31969-2.68514-13.54079c6.23522-2.99723,12.96507-4.63548,19.89765-4.7789ZM67.786,128.49576c4.70686-5.21215,10.11496-9.33072,15.97358-12.24221l2.70253,13.63151-21.09182,1.46164c.77666-.97614,1.58153-1.92713,2.4157-2.85094ZM54.73424,151.14475l10.14816,2.78923-14.29263,20.59807c.31515-8.33201,1.71412-16.19092,4.14447-23.3873ZM50.53416,176.59198l14.36048,20.51382-11.92204,3.98029c-.8218-3.97802-1.46985-8.09272-1.90331-12.33923-.42313-4.13949-.59958-8.19779-.53513-12.15489ZM86.3029,247.37087l-9.39371,6.55908c-4.94307-6.75761-10.12509-15.02952-14.58154-24.66172l23.97526,18.10264ZM80.56786,258.72848c-1.07346-1.34967-2.17094-2.77923-3.28178-4.28485l9.43899-6.59033,18.18676,35.19269c-2.44167-1.83754-13.15505-10.24353-24.34397-24.3175ZM128.79766,260.7394c-10.55017,13.17518-20.42568,20.41684-23.04713,22.22603l17.55607-35.11213,9.96204,6.96996c-1.52256,2.13467-3.02221,4.10728-4.47098,5.91614ZM133.6637,254.26701l-9.93478-6.89614,24.01166-18.13066c-4.34379,9.94415-9.31283,18.28052-14.07688,25.0268ZM159.00298,188.31344c-.57575,4.41052-1.31696,8.64993-2.19417,12.72143l-11.67197-3.92908,14.63101-20.89923c.02241,3.95871-.22978,8.00184-.76487,12.10687Z"/>
  <path class="cls-1" d="M322.4074,165.51326l-.03095-.03059-.0029.00287-.08362-.06894-19.43502-11.07691h-77.63944l-19.50336,11.07691-.08362.06894-.0029-.00287-.03013.03059-22.74792,18.71592v5.76791l81.1539,70.53813,81.15423-70.53813v-5.76791l-22.74825-18.71592ZM343.90396,184.21436c-.56592.12761-1.41524.30291-2.43956.46728l-13.54175-13.62088,15.98131,13.1536ZM330.86219,185.15245c3.1379,1.13537,7.35022.83177,10.33715.37544l.22301.22496v3.45982c-1.89268-.17144-8.38939-.64195-10.91129.6961v-4.86169l.39009.19434-.03897-.08897ZM340.50017,184.82503c-3.10774.42573-7.28237.62231-10.0811-.70544l-7.14671-16.62342,17.22782,17.32886ZM286.3146,189.25135c5.58601.11893,19.51366.77698,21.96774.89397v.38993l-43.91839,47.04757v-46.54449c2.3727-.2807,16.36256-1.90202,21.95065-1.78698ZM264.36395,190.24782v-5.29871c5.46562,1.73121,12.10061,2.31838,18.55914,2.31838,11.78219,0,22.96625-1.93938,25.35925-2.38059v4.47338c-2.50579-.11989-16.37321-.77537-21.95081-.89331-5.56522-.1186-19.33128,1.46886-21.96758,1.78084ZM308.96151,190.95775l.1052-.79375c1.39913-.00191,6.13467-.01868,10.5136-.12824,3.88829-.09831,7.86538.54364,9.58.86335l-62.13911,44.98603,41.9403-44.92739ZM292.91266,166.33249l35.81599,17.82772c-3.86173.36802-15.01051,1.26713-19.83917-.09412l-15.97682-17.73361ZM319.56115,189.25135c-4.38395.10959-9.12463.1257-10.49443.12731v-4.45533c5.71105,1.39412,18.12875.19335,20.65965-.07283v5.35927c-1.42715-.28165-5.84687-1.06603-10.16522-.95842ZM302.99138,155.51532l14.91798,8.3486-23.89002-8.43371,8.97204.08511ZM291.598,155.40701l30.2087,10.66507,7.52875,17.5132-37.71088-18.7707-.31195-9.41078.28538.0032ZM307.91512,184.15602c-4.30934.78342-28.07901,4.75471-43.07712.12375l26.3449-18.69592,16.73222,18.57217ZM290.52646,155.39672l.30245,9.09562-25.39486-9.33474,25.09242.23912ZM237.47572,155.39672l25.09257-.23912-25.39469,9.33474.30211-9.09562ZM263.16496,184.27977c-14.99824,4.63096-38.76774.65967-43.07741-.12375l16.73219-18.57217,26.34522,18.69592ZM260.98099,235.88514l-62.1388-44.98603c1.71478-.3197,5.69171-.96165,9.57983-.86335,4.3791.10956,9.11463.12632,10.51377.12824v.52562l42.0452,45.19551ZM198.27664,190.20977v-5.35927c2.52994.26618,14.94843,1.46695,20.65915.07283v4.45533c-1.37013-.00162-6.11048-.01772-10.4941-.12731-4.31868-.10761-8.7379.67676-10.16505.95842ZM219.1132,184.06609c-4.82915,1.36125-15.97728.46213-19.8398.09412l35.81612-17.82772-15.97632,17.73361ZM225.01112,155.51532l8.97158-.08511-23.88956,8.43371,14.91798-8.3486ZM206.19664,166.07208l30.2077-10.66507.28555-.0032-.31211,9.41078-37.71122,18.7707,7.53008-17.5132ZM197.58327,184.11959c-2.79952,1.32776-6.97286,1.13117-10.08143.70544l17.22831-17.32886-7.14688,16.62342ZM197.49176,185.04708v4.86169c-2.52189-1.33805-9.01926-.86754-10.91128-.6961v-3.45982l.22252-.22496c2.98676.45632,7.19925.75992,10.33652-.37544l-.03821.08897.39046-.19434ZM200.07985,171.06076l-13.54158,13.62088c-1.02415-.16437-1.87384-.33967-2.44005-.46728l15.98164-13.1536ZM183.63206,184.91495c.46167.11022,1.21688.27812,2.16322.44698v3.91261l-2.16322.12698v-4.48658ZM184.22213,190.15304l1.82176-.10761,29.1757,27.06449-30.99746-26.95687ZM187.10046,189.95517c2.78197-.22202,7.8773-.38478,9.86631.55496l.64858.47051,34.46355,40.6986-44.97844-41.72408ZM263.63855,259.2165l-27.36294-23.79574-36.00336-42.51779,63.3663,45.87482v20.43871ZM263.63855,237.58282l-43.91821-47.04757v-.38993c2.45392-.11699,16.3819-.77504,21.96741-.89397,5.58743-.11504,19.57794,1.50628,21.95081,1.78698v46.54449ZM263.63855,190.24782c-2.63663-.31198-16.40285-1.89945-21.96741-1.78084-5.57776.11794-19.44568.77342-21.95081.89331v-4.47338c2.39283.44121,13.57723,2.38059,25.35892,2.38059,6.45823,0,13.09334-.58717,18.5593-2.31838v5.29871ZM237.59673,165.17297l26.40469-9.70599,26.40465,9.70599-26.40465,18.73908-26.40469-18.73908ZM264.36395,259.2165v-20.43871l63.36661-45.87482-36.00366,42.51779-27.36295,23.79574ZM330.38637,190.98065l.64967-.47051c1.98838-.93974,7.08388-.77699,9.86568-.55496l-44.97877,41.72408,34.46342-40.6986ZM312.78245,217.10992l29.17583-27.06449,1.82144.10761-30.99726,26.95687ZM344.37074,189.40153l-2.16434-.12698v-3.91261c.94796-.16886,1.70224-.33677,2.16434-.44698v4.48658Z"/>
  <polygon class="cls-1" points="35.53081 111.42229 35.53081 283.57771 38.87211 283.57771 38.87211 284.07271 31.69436 284.07271 31.69436 283.57771 35.03581 283.57771 35.03581 111.42229 31.69436 111.42229 31.69436 110.92729 38.87211 110.92729 38.87211 111.42229 35.53081 111.42229"/>
  <polygon class="cls-1" points="50.50441 95.72945 159.9147 95.72945 159.9147 92.38815 160.4097 92.38815 160.4097 99.5659 159.9147 99.5659 159.9147 96.22445 50.50441 96.22445 50.50441 99.5659 50.00941 99.5659 50.00941 92.38815 50.50441 92.38815 50.50441 95.72945"/>
  <polygon class="cls-1" points="359.96435 155.4051 359.96435 260.04021 363.30564 260.04021 363.30564 260.53521 356.12789 260.53521 356.12789 260.04021 359.46935 260.04021 359.46935 155.4051 356.12789 155.4051 356.12789 154.9101 363.30564 154.9101 363.30564 155.4051 359.96435 155.4051"/>
  <polygon class="cls-1" points="225.67275 139.53099 302.28736 139.53099 302.28736 136.18969 302.78236 136.18969 302.78236 143.36744 302.28736 143.36744 302.28736 140.02599 225.67275 140.02599 225.67275 143.36744 225.17775 143.36744 225.17775 136.18969 225.67275 136.18969 225.67275 139.53099"/>
</svg>