<?xml version="1.0" encoding="UTF-8"?>
<svg id="Layer_4" data-name="Layer 4" xmlns="http://www.w3.org/2000/svg" viewBox="0 0 395 395">
  <defs>
    <style>
      .cls-1 {
        fill: #000;
        stroke-width: 0px;
      }

      .cls-2 {
        fill: none;
        stroke: #07ff0e;
        stroke-miterlimit: 10;
        stroke-width: .5px;
      }
    </style>
  </defs>
  <path class="cls-1" d="M328.47633,177.77844l-.02515-.02241-17.09443-7.99814-.04752-.02208h-70.24199l-16.82323,8.49041-18.49257,15.0448-.08653.06993v3.66369l70.528,60.96733.15355.13246,70.75698-60.87276.08151-.07059v-2.8746l-18.70862-16.50805ZM315.03155,176.92925l-21.90843-6.72358h17.99903l3.9094,6.72358ZM342.00405,196.33592v-2.40072c.68854-.20414,1.3105-.49417,1.83081-.88978v4.18077c-.52031-.39623-1.14226-.6861-1.83081-.89027ZM207.63188,196.16432v-2.05702c.37429-.00515.77293-.07346,1.16401-.2541v2.56555c-.39108-.1816-.78972-.25024-1.16401-.25443ZM325.42445,196.13033v-1.98967c1.53866-.23671,3.02237-.59958,4.38362-1.12537v4.24037c-1.36125-.52576-2.84496-.88846-4.38362-1.12533ZM211.23528,194.01321h-.24767v2.27436c-.78599.09606-1.38897.19255-1.72217.24978v-2.80371c.36719.06333,1.06267.17434,1.96984.27958ZM211.4573,194.038c.81309.08943,1.77794.17114,2.81985.21044v1.77408c-1.04191.03963-2.00676.12118-2.81985.21094v-2.19546ZM214.74668,194.26296c1.05171.02577,2.16724.00436,3.27535-.09715v1.93938c-1.10811-.10134-2.22364-.12279-3.27535-.09699v-1.74524ZM218.49158,194.11809c1.40507-.1587,2.77969-.45599,3.97627-.95987v3.95452c-1.19658-.50368-2.57119-.80065-3.97627-.95971v-2.03495ZM227.73881,193.35562v3.55991c-2.4911.19642-4.3103.39653-4.73213.44425-.02274-.01178-.04623-.02208-.06914-.03369v-4.38072c.0229-.01145.0464-.02208.06914-.03399.42184.04785,2.24103.24783,4.73213.44425ZM246.25155,192.97873l.13471-.06818c.0359.0034.0828.00809.13791.0134v4.42708s-.06461.00228-.15807.01148c-1.57908-.48695-3.80434-.73283-6.2605-.82823v-2.79774c2.38897-.09217,4.55766-.32825,6.12774-.78906l.01822.03125ZM276.16585,197.21973c-1.31743-.57087-3.86526-.84497-6.94241-.93489v-2.29855c3.07989-.09039,5.62964-.36465,6.9461-.93667l-.0037,4.17011ZM268.75388,196.27243c-2.28211-.05234-4.8248-.01013-7.35748.08266v-2.43906c2.53268.09266,5.07537.13504,7.35748.08266v2.27373ZM260.92671,196.37268c-2.33983.09151-4.65482.22427-6.73052.3627v-3.19961c2.0757.1384,4.39068.27086,6.73052.36237v2.47454ZM253.72664,196.76713c-3.08068.21123-5.57132.42973-6.73292.53642v-4.3361c1.1616.10682,3.65224.32564,6.73292.53625v3.26344ZM239.63607,196.51785c-1.87447-.05719-3.86509-.03237-5.79562.03818v-2.8411c1.93053.07059,3.92116.09557,5.79562.03788v2.76504ZM233.37042,196.57425c-1.84272.07395-3.61551.18741-5.16206.30502v-3.48724c1.54655.11794,3.31934.23044,5.16206.30489v2.87734ZM246.27135,197.82465l.04528.01482.04722-.00515c.0132-.00083.09105-.00838.22622-.02112l19.00787,48.55623-42.16298-48.58379c2.72639-.28826,17.25217-1.71316,22.8364.03901ZM276.16568,197.7368l-.04336,48.16809-28.99116-48.14132c4.26825-.38366,25.01506-2.1218,29.03452-.02676ZM276.6394,192.94458c.90074.13824,3.75649.5575,7.45658.91829v2.54526c-3.70603.36158-6.56452.78164-7.46061.91908l.00403-4.38263ZM284.56537,193.90798c2.18061.20608,4.62772.38689,7.12609.47728v1.50048c-2.49836.09072-4.94548.27182-7.12609.47741v-2.45517ZM292.16118,194.40136c2.34722.07412,4.72699.06574,6.96333-.07993v1.62875c-2.23634-.14566-4.61611-.1547-6.96333-.08042v-1.4684ZM299.5944,194.28794c2.54958-.18982,4.89215-.56687,6.75695-1.21318l.18318.09192v4.09608c-1.89394-.68656-4.30594-1.08329-6.94013-1.27954v-1.69528ZM313.21221,194.05575v2.15351h.04705c-3.08232.38689-5.45515.90766-6.25501,1.09379v-4.33649s2.78243.65718,6.20796,1.08919ZM313.68175,194.11311c1.68029.19981,3.55088.35432,5.48158.39333v1.25859c-1.93069.03868-3.80128.19322-5.48158.39319v-2.04511ZM319.63256,194.51353c1.76745.01772,3.5744-.06527,5.32254-.30439v1.85302c-1.74814-.23846-3.55509-.32274-5.32254-.30452v-1.2441ZM306.87307,192.45423l9.00765-14.41767,13.75317,14.54287c-8.47625,3.27294-21.88022.09042-22.76083-.1252ZM276.63973,192.46908l.0129-14.3025,29.10204,14.6088c-8.63755,2.68092-27.01426.01224-29.11494-.30631ZM276.17004,192.53191c-3.99274,2.09068-24.60952.37316-28.98925-.02016l29.00212-14.55947-.01287,14.57963ZM240.10559,193.2591v-.00677h-.46952v.02303c-6.03299.17919-13.36097-.49903-15.80651-.74893l13.39239-14.70031,8.76322,14.70496c-1.50949.42316-3.58664.64149-5.87958.72801ZM223.24965,192.46584c-.15695-.01739-.24783-.02739-.25958-.02884l-.07009-.00789-.06349.03204c-4.02395,2.05527-10.98765,1.19998-13.13377.86915l26.37195-14.96425-12.84502,14.09978ZM222.81719,197.79046l40.97494,47.21482-54.23877-48.03754c1.91377-.30617,9.11754-1.26555,13.26382.82272ZM266.51124,247.41342l-18.52237-47.31553,28.13283,46.71645-.00805,9.10351-9.60241-8.50443ZM276.63491,197.80303c2.13418-.32419,21.45997-3.13338,29.78392-.08184l-29.82679,48.16855.04287-48.08671ZM329.64822,197.69717l-42.21664,48.64408,19.51062-48.54128c1.36076-.32677,14.40542-3.31772,22.70601-.1028ZM330.27763,192.98695c.66208.19592,2.28904.64693,4.24406.9771v2.3432c-1.95502.32983-3.58182.78085-4.24406.9768v-4.29709ZM334.99138,194.03961c1.04481.16114,2.16467.28037,3.26987.30551v1.58152c-1.1052.02432-2.22506.14388-3.26987.30469v-2.19173ZM338.73098,194.34981c.97805-.00274,1.9336-.08752,2.80338-.2907v2.15305c-.86978-.20335-1.82533-.28809-2.80338-.29083v-1.57153ZM330.17094,192.46373l-13.45796-14.23108,26.78736,14.47571c-3.57746,2.63693-12.53644-.0029-13.32939-.24463ZM315.40796,177.53625l.13954.14728-9.26546,14.83066-29.55467-14.83535,14.85162-7.45625,23.82897,7.31366ZM275.68035,177.67884l-29.24899,14.68355-8.81638-14.7936,23.21326-7.3454,14.85211,7.45546ZM261.83936,170.20566h14.35064l-.00643,7.20007-14.34421-7.20007ZM237.08517,177.26426l-26.27787,14.91072,13.70404-13.55706,16.07008-8.11077-3.49625,6.75711ZM209.24109,193.06364l-.2512.14246-.0095-.00195-.07283.04868-.11167.06346v.0063c-.89783.52754-1.93037.26426-2.44939.06943l14.42364-11.73434-11.52905,11.40596ZM207.16215,194.08086v2.10972c-.41861.05108-.78005.16662-1.02739.26443v-2.63842c.24734.09735.60878.21288,1.02739.26426ZM208.88951,197.00671l67.22347,59.53827-.00063.73686-69.8416-60.37452c.50338-.20222,1.65099-.53754,2.61875.0994ZM276.59122,246.78338l28.94575-46.74638-19.2225,47.82502-9.73163,8.54278.00838-9.62141ZM330.17625,197.80561c.83147-.25298,9.85601-2.9036,13.38434-.19866l-55.48462,48.70853,42.10028-48.50987ZM343.95055,197.31513c-.00033-.00016-.00099-.00063-.00145-.00079h.00307l-.00162.00079ZM344.30438,193.1571l1.29344.73639v2.4845l-1.29344.73557v-3.95647ZM346.06767,194.16016l.64776.36881v1.21318l-.64776.36901v-1.95099ZM344.06447,192.48017l-5.0491-4.77612,6.07358,5.3591-1.02448-.58298ZM328.84853,178.73379l13.61976,12.8832-26.7624-14.46248-3.8688-6.65333,16.35368,7.65187.65776.58073ZM276.65342,177.19044l.00614-6.98478h13.90719l-13.91333,6.98478ZM237.73002,177.03996l3.53605-6.8343h18.06156l-21.59761,6.8343ZM276.58171,257.28233l.00049-.25235,67.47807-59.23678,2.65515-1.51061v.66307l-70.13371,60.33667Z"/>
  <path class="cls-1" d="M181.93979,223.82852c3.49239-8.44305,5.26743-17.39413,5.26743-26.61625,0-9.22274-1.77504-18.17336-5.26743-26.61671l.07669-.17549-.17322-.06072c-.03884-.09266-.07461-.18645-.11375-.27862-3.51094-8.30059-8.53634-15.75526-14.93814-22.15656-6.33108-6.33092-13.69338-11.31412-21.88375-14.81921l-.06092-.17483-.17031.07395c-.01369-.00548-.02722-.01208-.04079-.01789-8.59353-3.63485-17.72202-5.47787-27.13201-5.47787s-18.53851,1.84302-27.13171,5.47787c-.01419.00581-.02739.01241-.04125.01789l-.16018-.0693-.06574.1684c-8.19278,3.5048-15.55673,8.48895-21.88923,14.82099-6.40134,6.40131-11.42724,13.85597-14.93798,22.15656-.12923.30518-.25123.61327-.37577.92073l-.16371.06735.07026.16193c-3.32128,8.2566-5.00851,16.98985-5.00851,25.98153,0,9.40985,1.84321,18.53801,5.47774,27.13187,3.51074,8.30009,8.53664,15.75443,14.93798,22.15544,6.40147,6.40164,13.85581,11.42737,22.1564,14.93831.14114.05976.28377.11487.42507.17384l.06752.15629.15662-.06445c8.40421,3.4555,17.30886,5.21235,26.4825,5.21235s18.07862-1.75685,26.4825-5.21235l.1653.06768.06432-.16177c.13969-.05834.2802-.11246.41989-.1716,8.29996-3.51094,15.7543-8.53667,22.15577-14.93831,6.4018-6.40101,11.42721-13.85535,14.93814-22.15544.0398-.0954.07719-.19127.11682-.28601l.16484-.06719-.07138-.16243ZM53.9114,224.31867l10.56-26.63588,17.41763,14.23511v.68868l-2.34722,22.38393-25.30057-9.91353c-.11134-.25186-.22156-.50483-.32984-.75831ZM152.3505,182.78913l-.21691-.21335,2.36914-21.25906,26.74016,9.43965-11.40434,25.99846-17.48805-13.9657ZM117.50534,249.9865l-13.44717-16.59765,27.40871-.39154-13.96154,16.98919ZM131.51038,232.42446l-.01515-.00175-27.89724.39864-.28618-.35307-.00934-.01158-20.67173-20.67189-.1679-.13728v-28.24579l-.08088-.80744,20.3111-20.02348.15371.01403,28.41013.20269.01726.02161.01063.01303,20.24761,19.96645-.04412.39574.20189,28.87421-19.53656,20.10324-.24621.29954-.39702-.03689ZM80.16089,160.48882l21.78452,2.0127-19.63695,19.36077-2.14757-21.37347ZM81.88904,183.41672v27.76158l-17.08879-13.96827,17.05127-14.16647.03752.37316ZM82.46155,212.65185l.00129-.01531v-.20816l20.41278,20.41327.00485.00594-22.7705,2.2275,2.35158-22.42324ZM130.79527,162.21036l-27.61476-.19579,14.31375-16.44149,13.30101,16.63728ZM132.03003,162.7508l21.90391-1.51513-2.32046,20.82706-19.58345-19.31193ZM151.75799,212.8125l2.42989,21.71202-21.58728-1.99917,19.15739-19.71285ZM152.26041,211.53055l-.19737-28.2382,17.43373,13.92395-17.23636,14.31425ZM131.531,162.21132l-13.56901-16.9721,26.54536-11.53601,9.35567,26.96222-22.33202,1.54588ZM102.45718,161.97286l-22.21055-2.05237,10.24158-26.22193,26.54147,11.53373-14.5725,16.74057ZM81.78271,182.35485l-17.32226,14.39143-10.96415-25.37004,26.09709-10.79268,2.18932,21.77129ZM103.09253,233.40255l.23522-.00307,13.71048,16.92313-25.87101,10.69939-10.95993-25.37938,22.88524-2.24007ZM132.15652,233.06093l21.94807,2.03237-10.27221,25.92516-25.86134-10.69487,14.18548-17.26266ZM152.27427,212.28126l.08039-.08299,17.4868-14.52178,11.40708,26.00443-26.49299,10.75384-2.48127-22.15349ZM170.39058,197.49941h16.24075c-.03706,9.03665-1.81678,17.66998-5.01993,25.58031l-11.22082-25.58031ZM186.63133,196.92531h-16.24075l11.22082-25.58097c3.20314,7.91083,4.98287,16.54382,5.01993,25.58097ZM154.79924,160.81301l12.43268-11.57303c5.80044,6.01075,10.52452,13.06579,13.85855,20.85366l-26.29123-9.28062ZM166.83229,148.82797l-12.44829,11.58785-9.2139-26.55467c8.16169,3.57842,15.50419,8.68989,21.66219,14.96682ZM117.7904,144.68749v-16.60346c9.24805.03772,18.07314,1.90073,26.13333,5.24697l-26.13333,11.35649ZM117.21659,128.08404v16.60425l-26.13379-11.35712c8.06051-3.34594,16.88574-5.20941,26.13379-5.24713ZM89.80211,133.8766l-10.0745,25.79494-11.55337-10.84278c6.14945-6.26871,13.48004-11.37421,21.62787-14.95217ZM67.77414,149.24077l11.54531,10.83505-25.65235,10.60901c3.34544-8.02138,8.1604-15.282,14.10704-21.44406ZM63.91242,196.92531h-15.5369c.03607-8.79127,1.72055-17.20046,4.76147-24.93355l10.77542,24.93355ZM48.37552,197.49941h15.55109l-10.33329,26.06373c-3.32755-8.04184-5.18011-16.84274-5.2178-26.06373ZM54.57718,225.82512l24.71294,9.68296-10.23482,10.96943c-6.00415-5.90568-10.93739-12.8966-14.47812-20.65239ZM69.46652,246.87823l10.23191-10.96686,10.7616,24.91985c-7.84539-3.34739-14.94943-8.105-20.99351-13.95299ZM117.21659,250.86968v15.47017c-8.97702-.03673-17.55524-1.79276-25.42224-4.9561l25.42224-10.51406ZM117.7904,266.33985v-15.47017l25.42274,10.51357c-7.8673,3.16354-16.44585,4.91987-25.42274,4.9566ZM144.51927,260.84347l10.09982-25.49088,11.28735,11.16971c-6.12952,6.01768-13.37243,10.90515-21.38717,14.32118ZM166.31492,246.11834l-11.29138-11.17327,26.04921-10.57337c-3.50754,8.1778-8.5473,15.54802-14.75783,21.74664Z"/>
  <polygon class="cls-1" points="311.30922 151.56588 311.30922 158.78363 310.81422 158.78363 310.81422 155.42226 241.56224 155.42226 241.56224 158.78363 241.06724 158.78363 241.06724 151.56588 241.56224 151.56588 241.56224 154.92726 310.81422 154.92726 310.81422 151.56588 311.30922 151.56588"/>
  <polygon class="cls-1" points="361.97538 170.70067 361.97538 257.60943 365.33668 257.60943 365.33668 258.10443 358.11893 258.10443 358.11893 257.60943 361.48038 257.60943 361.48038 170.70067 358.11893 170.70067 358.11893 170.20567 365.33668 170.20567 365.33668 170.70067 361.97538 170.70067"/>
  <polygon class="cls-1" points="187.20719 109.31916 187.20719 116.53691 186.71219 116.53691 186.71219 113.17554 48.29476 113.17554 48.29476 116.53691 47.79976 116.53691 47.79976 109.31916 48.29476 109.31916 48.29476 112.68054 186.71219 112.68054 186.71219 109.31916 187.20719 109.31916"/>
  <polygon class="cls-1" points="33.51974 128.57906 33.51974 266.42094 36.88107 266.42094 36.88107 266.91594 29.66332 266.91594 29.66332 266.42094 33.02474 266.42094 33.02474 128.57906 29.66332 128.57906 29.66332 128.08406 36.88107 128.08406 36.88107 128.57906 33.51974 128.57906"/>

</svg>