<?xml version="1.0" encoding="utf-8"?>
<!-- Generator: Adobe Illustrator 28.2.0, SVG Export Plug-In . SVG Version: 6.00 Build 0)  -->
<svg version="1.1" id="Layer_4" xmlns="http://www.w3.org/2000/svg" xmlns:xlink="http://www.w3.org/1999/xlink" x="0px" y="0px"
	 viewBox="0 0 395 395" style="enable-background:new 0 0 395 395;" xml:space="preserve">
<path d="M172.2,196.7l0.1-0.1l-0.1-0.1c-0.2-22.9-6.3-44.4-17.3-60.7c-0.1-0.2-0.2-0.3-0.3-0.5l0-0.2l-0.1,0
	c-11.1-16.1-25.8-24.9-41.4-25l-0.4,0c-15.3,0.1-29.7,8.6-40.7,24l-0.1,0l0,0.2c-0.3,0.5-0.7,0.9-1,1.4
	c-11,16.2-17.1,37.8-17.3,60.7l0,0.2c0,0.3,0,0.6,0,0.9c0,22.9,6,44.5,16.8,60.9l0,0.2l0.2,0c0.1,0.2,0.3,0.4,0.4,0.6
	c11.2,16.5,26,25.6,41.9,25.7l0.2,0.2l0.2-0.2c15.8-0.1,30.6-9.1,41.8-25.6l0.1,0l0-0.2c11.1-16.5,17.3-38.4,17.3-61.6
	C172.2,197.3,172.2,197,172.2,196.7L172.2,196.7z M130.7,262l-17.5-11.9l24.1-15.1L130.7,262L130.7,262z M54.3,196.6L69,170.7
	l7.7,26.5H54.6L54.3,196.6L54.3,196.6z M130.5,131.5l6.9,26.7l-24.1-14.8L130.5,131.5z M156.6,171l14.3,24.8h-22.3L156.6,171z
	 M157.1,170.2l9.9-5.7c2.7,9.5,4.2,19.8,4.4,30.7L157.1,170.2z M112.2,283.3l-17.4-20.6l17.4-11.9V283.3z M112.6,249.6L112.6,249.6
	L112.6,249.6l-24.8-15.4l0,0l-10.1-36.6l0,0l0,0l9.6-38.3l25.3-15.4l0,0l0,0l25.1,15.4l10,36.9l0,0l-10,37.7l0,0L112.6,249.6
	L112.6,249.6z M77.2,196.1l-7.6-26.2l16.7-10.1C86.3,159.9,77.2,196.1,77.2,196.1z M86.8,233.6l-17.2-10.5l7.6-24.1L86.8,233.6z
	 M112.2,142.7L95,130.8l17.1-19C112.2,111.9,112.2,142.7,112.2,142.7z M138.6,159.9l17.4,10.3l-8,24.6L138.6,159.9L138.6,159.9z
	 M148.1,197.7l8,26.4l-17.4,9.3L148.1,197.7z M138.4,158.8l-7.1-27.4l22.5,4.4l2.3,33.5L138.4,158.8L138.4,158.8z M112.9,142.7
	v-31.4l17.2,19.5L112.9,142.7L112.9,142.7z M94.6,130.1l-4.1-12.6c6.6-4.1,13.9-6.4,21.4-6.5L94.6,130.1z M94.7,131.5l17.1,11.9
	l-24.3,14.8L94.7,131.5L94.7,131.5z M86.6,158.8L69.6,169l2.9-34.1l21.4-3.5L86.6,158.8L86.6,158.8z M69,222.3l-14-24.3h21.6
	L69,222.3z M68.6,223.1l-10,7.6c-2.8-10.1-4.4-21.1-4.4-32.6C54.2,198.1,68.6,223.1,68.6,223.1z M87.1,234.7l6.6,27.4l-22.7-4
	l-1.4-34.2L87.1,234.7L87.1,234.7z M88,235.3l23.8,14.8L94.4,262L88,235.3z M94.4,263.4l17.6,20.8c-7.6-0.2-14.8-2.5-21.5-6.5
	L94.4,263.4L94.4,263.4z M112.9,250.8l17.5,11.9l-17.5,21.2V250.8L112.9,250.8z M138.4,234.4l17.8-9.5l-1.9,33.8l-22.7,3.4
	L138.4,234.4L138.4,234.4z M148.8,197.5l-0.2-0.9h22.8l0,0l-14.7,26.6L148.8,197.5L148.8,197.5z M171.4,198.1
	c0,11.5-1.6,22.6-4.5,32.6l-9.9-6.6L171.4,198.1z M166.7,163.7l-9.9,5.7l-2.2-32.4C159.7,144.6,163.9,153.7,166.7,163.7L166.7,163.7
	z M153.2,134.9l-22-4.3l3.8-13.2C141.8,121.6,148,127.5,153.2,134.9L153.2,134.9z M134.4,117l-3.8,13.1L113.7,111
	C121,111.1,127.9,113.3,134.4,117z M89.8,117.9l4.1,12.7L73,134C77.9,127.3,83.6,121.9,89.8,117.9z M71.6,136l-2.8,33.1l-9.9-5.5
	C61.9,153.3,66.2,143.9,71.6,136L71.6,136z M58.7,164.4l9.9,5.5l-14.4,25.2C54.4,184.3,56,173.9,58.7,164.4z M58.9,231.5l9.9-7.5
	l1.4,33C65.4,249.6,61.6,241,58.9,231.5z M71.5,259l22.2,3.9l-3.9,14.4C82.9,272.9,76.7,266.7,71.5,259z M130.8,263.5l3.6,14.7
	c-6.4,3.8-13.4,5.9-20.7,6.1L130.8,263.5z M135.1,277.8l-3.6-14.8l22.2-3.3C148.4,267.3,142.1,273.5,135.1,277.8z M156.9,225
	l9.9,6.6c-2.8,9.7-6.8,18.6-11.7,26.1L156.9,225z"/>
<path d="M322.9,176.8L322.9,176.8l-17.1-8l0,0H286l-0.1,0l0,0h-30.6l0,0l-0.1,0h-19.7l-16.8,8.5l-18.5,15l-0.1,0.1v3.7l70.5,61
	l0.2,0.1l70.8-60.9l0.1-0.1v-2.9L322.9,176.8L322.9,176.8z M309.4,175.9l-21.9-6.7h18L309.4,175.9z M336.4,195.3v-2.4
	c0.7-0.2,1.3-0.5,1.8-0.9v4.2C337.7,195.8,337.1,195.5,336.4,195.3L336.4,195.3z M202,195.1v-2.1c0.4,0,0.8-0.1,1.2-0.3v2.6
	C202.8,195.2,202.4,195.1,202,195.1z M319.8,195.1v-2c1.5-0.2,3-0.6,4.4-1.1v4.2C322.8,195.7,321.4,195.3,319.8,195.1z M205.6,193
	h-0.2v2.3c-0.8,0.1-1.4,0.2-1.7,0.2v-2.8C204,192.8,204.7,192.9,205.6,193L205.6,193z M205.9,193c0.8,0.1,1.8,0.2,2.8,0.2v1.8
	c-1,0-2,0.1-2.8,0.2V193z M209.1,193.2c1.1,0,2.2,0,3.3-0.1v1.9c-1.1-0.1-2.2-0.1-3.3-0.1V193.2L209.1,193.2z M212.9,193.1
	c1.4-0.2,2.8-0.5,4-1v4c-1.2-0.5-2.6-0.8-4-1V193.1z M222.1,192.3v3.6c-2.5,0.2-4.3,0.4-4.7,0.4c0,0,0,0-0.1,0v-4.4c0,0,0,0,0.1,0
	C217.8,191.9,219.6,192.1,222.1,192.3L222.1,192.3z M240.6,192l0.1-0.1c0,0,0.1,0,0.1,0v4.4h0.4c-0.2,0-0.4,0-0.5,0
	c-1.6-0.5-3.8-0.7-6.3-0.8v-2.8C236.9,192.6,239.1,192.4,240.6,192L240.6,192L240.6,192z M270.6,196.2c-1.3-0.6-3.9-0.8-6.9-0.9V193
	c3.1-0.1,5.6-0.4,6.9-0.9L270.6,196.2z M263.2,195.3c-2.3-0.1-4.8,0-7.4,0.1v-2.4c2.5,0.1,5.1,0.1,7.4,0.1V195.3L263.2,195.3z
	 M255.3,195.4c-2.3,0.1-4.7,0.2-6.7,0.4v-3.2c2.1,0.1,4.4,0.3,6.7,0.4V195.4z M248.1,195.7c-3.1,0.2-5.6,0.4-6.7,0.5v-4.3
	c1.2,0.1,3.7,0.3,6.7,0.5V195.7z M234,195.5c-1.9-0.1-3.9,0-5.8,0v-2.8c1.9,0.1,3.9,0.1,5.8,0V195.5L234,195.5z M227.8,195.6
	c-1.8,0.1-3.6,0.2-5.2,0.3v-3.5c1.5,0.1,3.3,0.2,5.2,0.3V195.6z M240.7,196.8L240.7,196.8L240.7,196.8c0.1,0,0.2,0,0.3,0l19,48.6
	l-42.2-48.6C220.6,196.5,235.1,195.1,240.7,196.8z M270.6,196.7l0,48.2l-29-48.1C245.8,196.4,266.5,194.6,270.6,196.7L270.6,196.7z
	 M271,191.9c0.9,0.1,3.8,0.6,7.5,0.9v2.5c-3.7,0.4-6.6,0.8-7.5,0.9L271,191.9L271,191.9z M279,192.9c2.2,0.2,4.6,0.4,7.1,0.5v1.5
	c-2.5,0.1-4.9,0.3-7.1,0.5V192.9L279,192.9z M286.6,193.4c2.3,0.1,4.7,0.1,7-0.1v1.6c-2.2-0.1-4.6-0.2-7-0.1V193.4L286.6,193.4z
	 M294,193.3c2.5-0.2,4.9-0.6,6.8-1.2l0.1,0.1l0.1-0.1c0,0,0,0,0,0v4.3c-1.9-0.7-4.3-1.1-6.9-1.3V193.3z M301,192
	c0.1,0,0.1,0,0.2-0.1c0.5,0.1,3,0.7,6.4,1.1v2.2h0c-3.1,0.4-5.5,0.9-6.3,1.1V192H301z M308.1,193.1c1.7,0.2,3.6,0.4,5.5,0.4v1.3
	c-1.9,0-3.8,0.2-5.5,0.4V193.1z M314,193.5c1.8,0,3.6-0.1,5.3-0.3v1.9c-1.7-0.2-3.6-0.3-5.3-0.3V193.5L314,193.5z M301.3,191.4
	l9-14.4l13.8,14.5C315.6,194.8,302.2,191.6,301.3,191.4L301.3,191.4z M271,191.4l0-14.3l29.1,14.6
	C291.5,194.4,273.1,191.8,271,191.4z M270.6,191.5c-4,2.1-24.6,0.4-29,0l29-14.6L270.6,191.5z M234.5,192.2L234.5,192.2l-0.5,0v0
	c-6,0.2-13.4-0.5-15.8-0.7l13.4-14.7l8.8,14.7C238.9,191.9,236.8,192.2,234.5,192.2L234.5,192.2z M217.6,191.4c-0.2,0-0.2,0-0.3,0
	l-0.1,0l-0.1,0c-4,2.1-11,1.2-13.1,0.9l26.4-15L217.6,191.4L217.6,191.4z M217.2,196.8l41,47.2l-54.2-48
	C205.9,195.6,213.1,194.7,217.2,196.8z M260.9,246.4l-18.5-47.3l28.1,46.7l0,9.1L260.9,246.4z M271,196.8c2.1-0.3,21.5-3.1,29.8-0.1
	L271,244.9L271,196.8L271,196.8z M324,196.7l-42.2,48.6l19.5-48.5C302.7,196.5,315.7,193.5,324,196.7L324,196.7z M324.7,192
	c0.7,0.2,2.3,0.6,4.2,1v2.3c-2,0.3-3.6,0.8-4.2,1V192L324.7,192z M329.4,193c1,0.2,2.2,0.3,3.3,0.3v1.6c-1.1,0-2.2,0.1-3.3,0.3V193
	L329.4,193z M333.1,193.3c1,0,1.9-0.1,2.8-0.3v2.2c-0.9-0.2-1.8-0.3-2.8-0.3V193.3L333.1,193.3z M324.6,191.4l-13.5-14.2l26.8,14.5
	C334.3,194.3,325.4,191.7,324.6,191.4z M309.8,176.5l0.1,0.1l-9.3,14.8l-29.6-14.8l14.9-7.5L309.8,176.5z M270.1,176.7l-29.2,14.7
	l-8.8-14.8l23.2-7.3L270.1,176.7L270.1,176.7z M256.2,169.2h14.4l0,7.2L256.2,169.2L256.2,169.2z M231.5,176.2l-26.3,14.9l13.7-13.6
	l16.1-8.1L231.5,176.2L231.5,176.2z M203.6,192l-0.3,0.1l0,0l-0.1,0l-0.1,0.1v0c-0.9,0.5-1.9,0.3-2.4,0.1l14.4-11.7L203.6,192z
	 M201.6,193.1v2.1c-0.4,0.1-0.8,0.2-1,0.3v-2.6C200.8,192.9,201.1,193,201.6,193.1z M203.3,196l67.2,59.5l0,0.7l-69.8-60.4
	C201.2,195.7,202.3,195.3,203.3,196z M271,245.8l28.9-46.7l-19.2,47.8l-9.7,8.5L271,245.8z M324.6,196.8c0.8-0.3,9.9-2.9,13.4-0.2
	l-55.5,48.7L324.6,196.8L324.6,196.8z M338.3,196.3C338.3,196.3,338.3,196.3,338.3,196.3L338.3,196.3L338.3,196.3z M338.7,192.1
	l1.3,0.7v2.5l-1.3,0.7V192.1z M340.5,193.1l0.6,0.4v1.2l-0.6,0.4V193.1L340.5,193.1z M338.5,191.5l-5-4.8l6.1,5.4L338.5,191.5z
	 M323.2,177.7l13.6,12.9l-26.8-14.5l-3.9-6.7l16.4,7.7L323.2,177.7L323.2,177.7z M271.1,176.2l0-7H285L271.1,176.2z M232.1,176
	l3.5-6.8h18.1L232.1,176z M271,256.3l0-0.3l67.5-59.2l2.7-1.5v0.7L271,256.3z"/>
<polygon points="172.3,92 172.3,99.2 171.8,99.2 171.8,95.9 53.6,95.9 53.6,99.2 53.1,99.2 53.1,92 53.6,92 53.6,95.4 171.8,95.4 
	171.8,92 "/>
<polygon points="39.1,110.2 39.1,284.8 42.5,284.8 42.5,285.3 35.2,285.3 35.2,284.8 38.6,284.8 38.6,110.2 35.2,110.2 35.2,109.7 
	42.5,109.7 42.5,110.2 "/>
<polygon points="306.3,150.8 306.3,158 305.8,158 305.8,154.6 235.8,154.1 235.8,157.5 235.3,157.5 235.3,150.3 235.8,150.3 
	235.8,153.6 305.8,154.1 305.8,150.8 "/>
<polygon points="356.4,168.9 356.4,256.6 359.8,256.6 359.8,257.1 352.5,257.1 352.5,256.6 355.9,256.6 355.9,168.9 352.5,168.9 
	352.5,168.4 359.8,168.4 359.8,168.9 "/>
</svg>
