<?xml version="1.0" encoding="UTF-8"?>
<svg id="Layer_4" data-name="Layer 4" xmlns="http://www.w3.org/2000/svg" viewBox="0 0 395 395">
  <defs>
    <style>
      .cls-1 {
        fill: #000;
        stroke-width: 0px;
      }

      .cls-2 {
        fill: none;
        stroke: #07ff0e;
        stroke-miterlimit: 10;
        stroke-width: .5px;
      }
    </style>
  </defs>
  <path class="cls-1" d="M179.00514,130.58589h-.36465l.24846-.26651-24.16735-22.58824-.24846.26618v-.36449h-79.01168v.36449l-.24846-.26714-24.28932,22.58857.24846.26713h-.36465v132.61812h.36465l-.25186.2636,24.28853,23.31688.25265-.26295v.36478h79.49668v-.36478l.25783.2578,23.68232-23.68136-.2578-.25783h.36465v-132.25426ZM162.35417,140.33765l-17.51225-16.69077,4.82397-7.50139,20.1988,19.49676-7.51053,4.69541ZM139.07224,262.84015h-48.71276l-14.53416-14.91993v-102.795l15.25168-14.17485h48.71343l14.31807,14.89125v102.79856l-15.03625,14.19997ZM139.74722,130.2211h-48.62106l-4.06105-5.92809h56.49466l-3.81256,5.92809ZM90.45617,130.53239l-15.04384,13.98151-7.27481-4.3071,18.15257-15.75621,4.16608,6.0818ZM75.09681,145.17357v102.6922l-7.20439,4.48915v-111.44688l7.20439,4.26552ZM75.40474,248.53221l14.33923,14.7211-4.80546,7.59934-16.85435-17.75747,7.32059-4.56297ZM90.4062,263.56849h48.61769l4.52057,6.69666-57.87168.7886,4.73342-7.48526ZM139.69211,263.25654l14.83277-14.00761,6.96947,4.04992-17.20029,16.77552-4.60195-6.81784ZM154.837,248.58732v-102.69059l6.87875-4.30096v110.98828l-6.87875-3.99673ZM154.53003,145.22868l-14.12218-14.68791,3.89895-6.06213,17.19689,16.39044-6.97366,4.3596ZM144.18467,123.32107h-57.78519l-5.05649-7.38151h67.58863l-4.74695,7.38151ZM85.73723,123.64331l-18.48082,16.04209-7.2637-4.30098,20.53204-19.34979,5.21248,7.60868ZM66.92143,140.33313v112.62735l-7.16621,4.46625v-121.33588l7.16621,4.24228ZM67.24209,253.61919l17.16049,18.0807-3.98983,6.30901-20.43452-19.86316,7.26386-4.52654ZM85.0537,272.03312l59.14109-.80375,4.71893,6.98963h-67.77168l3.91165-6.18588ZM144.84691,270.89261l17.52013-17.0875,7.4901,4.35253-20.20137,19.85864-4.80886-7.12368ZM162.68753,253.14867v-112.16003l7.40197-4.62742v121.08841l-7.40197-4.30096ZM170.50167,135.24456l-20.43452-19.72393,4.47562-6.95934,23.50234,21.96691-7.54344,4.71636ZM149.40051,115.21029h-68.55609l-4.69184-6.84911h77.65234l-4.40441,6.84911ZM80.10839,115.42555l-20.76858,19.57312-7.56228-4.4782,23.62206-21.96853,4.7088,6.8736ZM59.02608,135.65934v122.22114l-7.48945,4.66805v-131.32327l7.48945,4.43408ZM59.34142,258.54275l20.67364,20.09614-4.6232,7.31125-23.62965-22.68427,7.57921-4.72312ZM80.68153,278.94764h68.72416l4.86733,7.21004h-78.15011l4.55862-7.21004ZM150.07051,278.63117l20.44033-20.09357,7.53684,4.37989-23.03443,23.03426-4.94274-7.32059ZM170.81781,257.87371v-121.96786l7.45803-4.66287v130.96393l-7.45803-4.3332Z"/>
  <path class="cls-1" d="M344.07632,173.50849c-6.73292-7.31897-25.47138-16.45066-26.26592-16.83577l-.09072-.04415h-89.15287l-.07461.02802c-14.01451,5.25489-26.73917,17.00275-26.86632,17.1207l-.14081.13051v4.44695l23.57629,32.12279.02627.03482,24.4031,22.34588,22.63319,15.28989.26634.2475.27634-.24331,22.76904-15.17871h.74702v-.49853l.24427-.16276.02709-.01709,23.51441-21.16382.03142-.02802,24.10274-31.74544.08992-.11794v-5.60515l-.11619-.12636ZM202.36613,177.77048v-3.23007h5.57971v3.23007h-5.57971ZM334.13976,166.84018h-3.17143l-7.84539-5.51041h1.70349c2.84754,1.56364,6.16899,3.47949,9.31333,5.51041ZM317.5339,173.65934l-4.85895-5.93838h17.99836l7.15945,5.93838h-20.29886ZM232.12415,167.72095l-4.86057,5.93838h-17.69044l6.90419-5.93838h15.64682ZM243.03253,161.32978l-6.3293,5.51041h-2.5804l5.56941-5.51041h3.34029ZM300.42254,161.32978l6.3293,5.51041h-68.70624l6.32834-5.51041h56.04859ZM305.10425,161.32978l5.56957,5.51041h-2.58037l-6.3293-5.51041h3.34009ZM263.23969,232.09253l-14.10266-21.43518h46.52242l-14.10186,21.43518h-18.3179ZM281.00653,232.9736l-8.60788,13.98827-8.60851-13.98827h17.2164ZM248.5961,209.77628l-15.13472-31.12474h77.8739l-15.13393,31.12474h-47.60525ZM233.1976,177.77048v-3.23007h78.40128v3.23007h-78.40128ZM233.53777,173.65934l3.57925-5.93838h70.56249l3.5802,5.93838h-77.72194ZM236.08834,167.72095l-3.57924,5.93838h-4.10762l4.85816-5.93838h2.82869ZM232.31671,174.5404v3.23007h-4.40442v-3.23007h4.40442ZM232.48204,178.65154l15.13455,31.12474h-5.18027l-14.27732-31.12474h4.32304ZM248.08305,210.65735l14.10269,21.43518h-2.78309l-16.35837-21.43518h5.03877ZM262.75631,232.9736l6.41919,10.4311-9.02827-10.4311h2.60908ZM282.04019,232.9736h2.60842l-9.02583,10.43014,6.41741-10.43014ZM282.61175,232.09253l14.10186-21.43518h5.03943l-16.3582,21.43518h-2.78309ZM297.17653,209.77628l15.13812-31.12474h4.32382l-14.27831,31.12474h-5.18364ZM312.47995,177.77048v-3.23007h4.40441v3.23007h-4.40441ZM312.28838,173.65934l-3.58024-5.93838h2.82886l4.858,5.93838h-4.10662ZM329.43855,166.84018h-17.51482l-5.56697-5.51041h15.233l7.84879,5.51041ZM305.40947,160.44871l-4.2831-2.93908h13.4438l5.42197,2.93908h-14.58267ZM303.86289,160.44871h-3.10276l-3.16305-2.93908h1.97323l4.29257,2.93908ZM299.46686,160.44871h-54.13644l3.16305-2.93908h47.81054l3.16285,2.93908ZM244.03652,160.44871h-3.10276l4.29323-2.93908h1.97241l-3.16288,2.93908ZM239.3751,160.44871h-12.03015l6.10031-2.93908h10.22146l-4.29162,2.93908ZM238.4483,161.32978l-5.57796,5.51041h-15.16258l7.84796-5.51041h12.89257ZM216.17459,166.84018h-4.39088c2.58713-1.82401,5.56278-3.75147,8.76048-5.51041h3.4877l-7.8573,5.51041ZM215.12977,167.72095l-6.90759,5.93838h-5.14288c1.28377-1.12504,3.94568-3.37573,7.47318-5.93838h4.5773ZM208.82595,174.5404h18.20607v3.23007h-18.20607v-3.23007ZM227.18979,178.65154l14.27732,31.12474h-9.36761l-22.84445-31.12474h17.93474ZM241.936,210.65735l16.35916,21.43518h-2.18609l-23.10983-21.43518h8.93676ZM258.98371,232.9736l7.82846,9.04632-9.75336-9.04632h1.9249ZM285.81199,232.9736h2.83223l-11.73256,10.28673,8.90033-10.28673ZM286.50228,232.09253l16.3582-21.43518h11.23822l-24.44963,21.43518h-3.14678ZM303.31763,209.77628l14.28926-31.12474h20.57101l-23.13029,31.12474h-11.72998ZM317.76542,177.77048v-3.23007h20.84739v3.23007h-20.84739ZM339.49388,174.5404h3.81754v3.23007h-3.81754v-3.23007ZM343.00528,173.65934h-3.79289l-7.15948-5.93838h3.42665c2.9502,1.97419,5.65095,4.02283,7.52572,5.93838ZM323.20511,160.44871h-1.37026l-5.41777-2.93908h1.09989c.46712.22912,2.6864,1.32643,5.68814,2.93908ZM228.72633,157.50963h2.6898l-6.09953,2.93908h-3.1189c2.11309-1.09474,4.30353-2.10022,6.52862-2.93908ZM202.79524,178.65154h5.36764l22.84445,31.12474h-5.36765l-22.84444-31.12474ZM226.54959,210.65735h5.16575l23.10308,21.43518h-4.8588l-23.41003-21.43518ZM251.22821,232.9736h4.54007l12.14556,11.26867-16.68563-11.26867ZM277.70702,243.73437l12.27362-10.76077h3.86671l-16.14033,10.76077ZM295.9123,231.5972l-.74382.49533h-4.18298l24.44963-21.43518h3.74375l-23.26658,20.93985ZM319.67325,210.07662v-.30034h-3.54024l23.14204-31.12474h4.03636v.29261l-23.63816,31.13246Z"/>
  <polygon class="cls-1" points="36.49394 108.60868 36.49394 286.39132 39.83524 286.39132 39.83524 286.88632 32.65749 286.88632 32.65749 286.39132 35.99894 286.39132 35.99894 108.60868 32.65749 108.60868 32.65749 108.11368 39.83524 108.11368 39.83524 108.60868 36.49394 108.60868"/>
  <polygon class="cls-1" points="51.05499 92.82412 178.51014 92.82412 178.51014 89.48283 179.00514 89.48283 179.00514 96.66058 178.51014 96.66058 178.51014 93.31912 51.05499 93.31912 51.05499 96.66058 50.55999 96.66058 50.55999 89.48283 51.05499 89.48283 51.05499 92.82412"/>
  <polygon class="cls-1" points="359.00122 157.12357 359.00122 247.90062 362.34251 247.90062 362.34251 248.39562 355.16476 248.39562 355.16476 247.90062 358.50622 247.90062 358.50622 157.12357 355.16476 157.12357 355.16476 156.62857 362.34251 156.62857 362.34251 157.12357 359.00122 157.12357"/>
  <polygon class="cls-1" points="228.89648 141.81986 317.51792 141.81986 317.51792 138.47856 318.01292 138.47856 318.01292 145.65631 317.51792 145.65631 317.51792 142.31486 228.89648 142.31486 228.89648 145.65631 228.40148 145.65631 228.40148 138.47856 228.89648 138.47856 228.89648 141.81986"/>
  
</svg>