<?xml version="1.0" encoding="UTF-8"?>
<svg id="Layer_4" data-name="Layer 4" xmlns="http://www.w3.org/2000/svg" viewBox="0 0 395 395">
  <defs>
    <style>
      .cls-1 {
        fill: #000;
        stroke-width: 0px;
      }

      .cls-2 {
        fill: none;
        stroke: #07ff0e;
        stroke-miterlimit: 10;
        stroke-width: .5px;
      }
    </style>
  </defs>
  <path class="cls-1" d="M190.22056,174.80302c-.96422,12.82327-8.1849,28.35519-8.25773,28.51052-.00967.02095-.02127.04061-.03448.0593l-19.66723,28.05c-.01063.01535-.02288.02917-.03545.04278-.00113.00135-.00209.0029-.00338.00423-.00097.00103-.00177.00224-.00274.00326l-16.76555,17.08781c-.01321.01354-.02771.0261-.04286.03771l-25.44029,19.34496v.00004c-.00032.00018-.00048.00042-.00064.0006-.03207.02417-.06735.04111-.10345.05436-.00387.00139-.00709.00437-.0108.00564-.04044.01345-.08266.02024-.12488.02024s-.08443-.00679-.12488-.02024c-.01144-.00381-.02127-.01221-.03239-.01708-.02804-.01229-.0564-.02385-.08153-.04292-.00016-.00008-.00016-.00018-.00032-.00026-.00016-.00016-.00048-.00022-.00064-.00038l-25.44062-19.34496c-.01515-.0116-.02965-.02417-.04286-.03771l-16.76555-17.08781c-.00097-.00103-.00177-.00224-.00274-.00326-.00129-.00133-.00226-.00288-.00338-.00423-.01257-.01362-.02481-.02743-.03545-.04278l-19.66723-28.05c-.01321-.01869-.02481-.03835-.03448-.0593-.07283-.15533-7.29352-15.68725-8.25773-28.51052-.66612-8.85747-1.57846-20.98819,6.19556-32.17468,5.31642-7.65059,12.28573-11.4501,15.96665-13.03436,8.80816-3.78952,16.66629-3.07538,20.02107-2.77116,3.43664.31228,6.82978,1.02384,10.08466,2.11471,6.79497,2.27648,12.92205,6.17451,18.22187,11.58158,5.29917-5.40677,11.42625-9.3048,18.22154-11.58158,3.25488-1.09087,6.64802-1.80243,10.08466-2.11471,3.35479-.30486,11.21323-1.01868,20.02107,2.77116,3.68092,1.58426,10.65023,5.38377,15.96665,13.03436,7.77401,11.18648,6.86168,23.31721,6.19556,32.17468ZM183.56578,143.36566l-15.57413,7.86389,21.50591,22.62355c.63567-8.57329,1.21978-19.97753-5.93178-30.48744ZM145.17395,247.71539l15.67258-15.97376-27.50215,3.69214,11.82957,12.28162ZM132.04259,235.2681l-12.31151-10.12865-12.31184,10.12865,12.31184,31.27944,12.31151-31.27944ZM106.11745,235.43377l-27.50215-3.69214,15.67258,15.97376,11.82957-12.28162ZM166.94992,150.79882l.53963-20.23631-19.38476,8.20861,4.27856,15.38047,14.56657-3.35277ZM139.44761,209.502l15.50968-37.03025-3.1914-17.49226-32.03481-3.98838-32.03514,3.98838-3.19107,17.49226,15.50936,37.03025,19.71686,14.63144,19.71653-14.63144ZM86.90107,154.92336l-13.99487-3.22098,10.99603,19.65957,2.99884-16.43859ZM74.92391,194.83924l23.94482,13.97771-14.7791-35.28718-9.16572,21.30947ZM74.88153,195.73127l3.01077,35.11406,28.50584,3.82694-7.04424-24.65529-24.47237-14.28571ZM133.06369,234.67228l28.50584-3.82694,3.01077-35.11406-24.47237,14.28571-7.04424,24.65529ZM164.53792,194.83924l-9.16523-21.30963-14.77958,35.28734,23.94482-13.97771ZM166.55595,151.70237l-13.99519,3.22098,2.99917,16.43855,10.99603-19.65953ZM147.65942,127.65916c-3.00255.30422-5.96659.91876-8.82911,1.82958l8.43853,8.15388.39059-9.98347ZM121.20093,150.37619l30.36161,3.77997-4.19235-15.07081-26.16926,11.29084ZM118.26106,150.37621l-26.1691-11.29086-4.19268,15.07081,30.36177-3.77995ZM92.19332,137.64265l8.4382-8.1539c-2.86252-.91082-5.82656-1.52536-8.82911-1.82958l.39091,9.98349ZM91.35736,138.77112l-19.38508-8.20861.53963,20.23631,14.56657,3.35277,4.27888-15.38047ZM72.04124,151.77861l-21.82383,22.95802,24.04794,19.62908,9.38808-21.82661-11.6122-20.76049ZM58.4476,203.29704l18.55718,26.46713-2.92811-34.1487-15.62908,7.68156ZM119.08816,224.64268l-18.69543-13.87354,6.76742,23.68642,11.92802-9.81289ZM132.30169,234.45557l6.76742-23.6864-18.69511,13.87352,11.9277,9.81289ZM162.45706,229.76417l18.55718-26.46713-15.62908-7.68156-2.92811,34.1487ZM165.19631,194.36577l24.04811-19.62914-21.82383-22.95802-11.61187,20.76049,9.3876,21.82667ZM168.28168,130.55893l-.53077,19.90476,15.35886-7.75518c-4.91938-6.88901-11.18036-10.50276-14.82809-12.14958ZM148.45526,127.58047l-.40525,10.35371,18.82595-7.97217c-7.983-3.1885-15.07381-2.68085-18.4207-2.38154ZM120.12714,141.24131v8.73567l26.80025-11.56305-8.94851-8.64623c-6.6564,2.27137-12.66133,6.1284-17.85174,11.4736ZM101.48295,129.7677l-8.94819,8.64623,26.80025,11.56319v-8.73582c-5.19089-5.34518-11.19599-9.20254-17.85207-11.4736ZM72.58571,129.96197l18.82627,7.97219-.40541-10.35369c-3.34689-.29934-10.43802-.80728-18.42086,2.3815ZM56.35206,142.7085l15.35886,7.75518-.53077-19.90476c-3.64772,1.64682-9.9087,5.26056-14.82809,12.14958ZM49.96428,173.85308l21.50591-22.62353-15.57413-7.86389c-7.15156,10.51003-6.56729,21.91438-5.93178,30.48742ZM58.04863,202.61045l15.64487-7.68922-23.5813-19.24802c1.11004,11.39112,6.87618,24.58812,7.93644,26.93724ZM118.8442,266.45665l-12.04162-30.59266-11.91819,12.37355,23.9598,18.21911ZM120.61795,266.45665l23.95948-18.21911-11.91819-12.37355-12.04129,30.59266ZM189.34964,175.67317l-23.5813,19.24806,15.64471,7.68922c1.06025-2.34948,6.82688-15.54893,7.9366-26.93728Z"/>
  <path class="cls-1" d="M346.18347,191.52386v3.58102c.00064.03255-.00258.06574-.01031.09894-.00258.00999-.00516.01998-.00838.02997-.00032.00064.00032.00032-.00064.00129-.02224.06929-.06187.12858-.11312.17402l-70.17044,64.6771c-.00177.00167-.00435.00218-.00612.00381-.00306.0027-.00564.0057-.0087.0083-.00338.00286-.00693.0055-.01047.00824-.00113.00091-.00161.0023-.00274.00318-.00419.00316-.00902.00409-.01337.00705-.0203.01434-.04125.02763-.06349.03777-.00177.00077-.00306.00214-.00467.00288-.00242.00107-.00516.00056-.00757.00159-.0058.0024-.01128.00477-.01708.00689-.00806.0029-.01595.00497-.02401.00733-.03545.01029-.07154.01726-.10844.01746-.00048,0-.00097.00024-.00145.00024l-.00016-.00002c-.00016,0-.00016.00002-.00016.00002,0,0,0-.00002-.00016-.00002l-.00016.00002c-.00048,0-.00097-.00024-.00145-.00024-.0369-.0002-.07299-.00717-.10844-.01746-.00806-.00236-.01595-.00443-.02401-.00733-.0058-.00211-.01128-.00449-.01708-.00689-.00242-.00103-.00516-.00052-.00757-.00159-.00161-.00075-.0029-.00211-.00467-.00288-.02224-.01013-.04318-.02342-.06349-.03777-.00435-.00296-.00918-.00389-.01337-.00705-.00113-.00089-.00161-.00228-.00274-.00318-.00354-.00274-.00709-.00538-.01047-.00824-.00306-.0026-.00564-.0056-.0087-.0083-.00177-.00163-.00435-.00214-.00612-.00381l-70.17012-64.6771c-.05479-.04866-.09668-.11344-.11795-.18949-.01063-.03835-.01547-.07734-.0145-.11537v-3.58037c0-.02403.00354-.04753.00773-.0708.00032-.00211-.00048-.00411,0-.00622.00016-.00085.00081-.00145.00097-.0023.00967-.04735.02933-.09148.05511-.13211.00322-.00506.0058-.01033.00918-.01525.01917-.02739.04093-.05317.06687-.07529l17.26345-14.6502.01257-.01063,5.32093-4.51559c.07154-.06059.16242-.0941.2562-.0941h95.15602c.09378,0,.18466.03352.2562.0941l5.32061,4.51526c.00451.00354.00902.00741.01321.01128l17.26345,14.64987c.02546.02171.04689.04691.0659.0737.00451.00634.00773.01315.01192.0198.02481.03984.04383.0829.05333.12913.00016.00085.00081.00145.00097.00232.00048.00211-.00032.00411,0,.00622.00419.02326.00773.04677.00773.0708ZM298.16509,179.31261l-22.55295-6.55277-22.55295,6.55277,22.55295,10.70556,22.55295-10.70556ZM212.17093,191.26766l2.43504.36996h5.11726l6.16059-1.11792-3.35462-12.76841-10.35826,13.51636ZM220.14249,179.56382l-13.82342,11.73115,1.70366.33749,3.21105-.44408,8.90871-11.62456ZM226.63904,190.2783l24.45867-11.10417-10.63605-6.40227-17.27054,4.38225,3.44792,13.12419ZM227.67593,190.67745l5.04265.96017h11.2519l6.29949-1.41692,1.20318-10.34718-23.79722,10.80393ZM251.06516,190.24201l5.8488,1.39561h11.79492l5.70442-1.31162-22.1361-10.50787-1.21204,10.42388ZM328.03315,177.15412l-17.27054-4.38225-10.63605,6.40227,24.45867,11.10417,3.44792-13.12419ZM276.81096,190.326l5.70442,1.31162h11.79492l5.8488-1.39561-1.21204-10.42388-22.1361,10.50787ZM307.25379,191.63762h11.2519l5.04265-.96017-23.79722-10.80393,1.20318,10.34718,6.29949,1.41692ZM325.34046,190.5197l6.16091,1.11792h5.11693l2.43504-.36996-10.35826-13.51636-3.35462,12.76841ZM339.9905,191.18838l3.21105.44408,1.70398-.33751-13.82375-11.73125,8.90871,11.62469ZM323.0448,172.74351h-9.1741l13.08721,3.32075-3.91311-3.32075ZM278.39426,172.74351l20.82658,6.05118,10.05292-6.05118h-30.87949ZM272.83002,172.74351h-30.87949l10.05292,6.05118,20.82658-6.05118ZM224.26636,176.06425l13.08721-3.32075h-9.1741l-3.91311,3.32075ZM276.0082,231.88429l23.9424-35.82701-5.31126-1.31913h-11.77784l-6.8533,2.11148v35.03466ZM305.84259,231.39247l25.21922-32.57638-34.21301,33.80695-18.16982,23.80647,27.16361-25.03704ZM272.5453,256.42947l-18.16982-23.80643-34.21301-33.80695,25.2189,32.57594,27.16393,25.03744ZM300.02505,197.37137l-24.01685,35.93882v25.3128l20.16851-26.42526c.21463-1.50798,2.50288-22.4459,3.84833-34.82636ZM275.21607,233.31019l-24.01685-35.93882c1.3453,12.37983,3.63403,33.31616,3.84833,34.82634l20.16851,26.42528v-25.3128ZM334.0621,194.73814h-2.65418l-6.23793.97425-24.78835,32.30604,33.68046-33.28029ZM324.23606,195.6286l-5.39457-.89046h-11.25932l-6.6261,1.39861c-1.50579,13.86423-3.25666,29.89237-3.83883,34.835l27.11881-35.34315ZM275.21607,196.84962l-6.8533-2.11148h-11.77784l-5.31126,1.31913,23.9424,35.82701v-35.03466ZM243.6421,194.73814h-11.25932l-5.39457.89046,27.11865,35.34307c-.58169-4.94229-2.33288-20.97047-3.83867-34.83492l-6.6261-1.39861ZM219.81636,194.73814h-2.65418l33.68046,33.28029-24.78835-32.30604-6.23793-.97425ZM214.59726,194.73814l-3.18592.50338c-.04157.00677-.08347.00677-.12504-.00032l-3.05379-.49436-2.00385.55752,35.65563,32.86439-25.88067-33.43061h-1.40637ZM344.99593,195.30436l-2.00385-.55752-3.05411.49436c-.04093.00709-.08282.00709-.12504.00032l-3.1856-.50338h-1.40669l-25.88099,33.43111,35.65627-32.86489ZM345.39135,194.59247v-2.58658l-2.10117.41613c-.02546.00516-.05124.00773-.07702.00773-.01805,0-.03609-.00129-.05414-.00387l-3.38121-.46729-3.0699.46664c-.01966.0029-.03964.00451-.05962.00451h-5.18268c-.02385,0-.04737-.00226-.07058-.00645l-6.54457-1.18755-6.23326,1.1869c-.02449.00483-.04931.00709-.07412.00709h-11.33312c-.02933,0-.05833-.00322-.08701-.00967l-6.52717-1.46824-6.14722,1.46695c-.02997.00741-.06091.01096-.09185.01096h-11.88612c-.02997,0-.05962-.00354-.08862-.00999l-6.76983-1.55678-6.76983,1.55678c-.029.00645-.05865.00999-.08862.00999h-11.88612c-.03094,0-.06187-.00354-.09185-.01096l-6.14722-1.46695-6.52717,1.46824c-.02868.00645-.05769.00967-.08701.00967h-11.33312c-.02481,0-.04963-.00226-.07412-.00709l-6.23326-1.1869-6.54425,1.18755c-.0232.00419-.04673.00645-.07058.00645h-5.183c-.01998,0-.03996-.00161-.05962-.00451l-3.0699-.46664-3.38121.46729c-.01805.00258-.03609.00387-.05414.00387-.02578,0-.05156-.00258-.07702-.00773l-2.10085-.41613v2.58658l2.27068-.63196c.05479-.01515.11279-.01869.16919-.00935l3.07699.49822,3.15401-.49854c.02063-.00322.04125-.00483.06188-.00483h5.28129c.02063,0,.04093.00161.06123.00483l6.36185.99354,6.01541-.9929c.02127-.00354.04286-.00548.06445-.00548h11.33312c.02739,0,.05479.0029.08186.0087l6.85878,1.44762,5.81722-1.44472c.03126-.00773.06316-.0116.09539-.0116h11.8858c.03964,0,.07896.00612.11666.01772l7.07309,2.1793,7.07309-2.1793c.03771-.0116.07702-.01772.11666-.01772h11.8858c.03223,0,.06413.00387.09539.0116l5.81722,1.44472,6.85878-1.44762c.02707-.0058.05446-.0087.08186-.0087h11.33312c.02159,0,.04318.00193.06445.00548l6.01541.9929,6.36185-.99354c.0203-.00322.04061-.00483.06123-.00483h5.28161c.02063,0,.04125.00161.06188.00483l3.15369.49854,3.07731-.49822c.0564-.00935.1144-.0058.16919.00935l2.27068.63196Z"/>
  <polygon class="cls-1" points="34.5029 127.47053 34.5029 267.52947 37.8442 267.52947 37.8442 268.02447 30.66645 268.02447 30.66645 267.52947 34.0079 267.52947 34.0079 127.47053 30.66645 127.47053 30.66645 126.97553 37.8442 126.97553 37.8442 127.47053 34.5029 127.47053"/>
  <polygon class="cls-1" points="49.47648 108.41298 48.98148 108.41298 48.98148 115.59073 49.47648 115.59073 49.47648 112.24927 190.1504 112.24927 190.1504 115.59073 190.6454 115.59073 190.6454 108.41298 190.1504 108.41298 190.1504 111.75427 49.47648 111.75427 49.47648 108.41298"/>
  <polygon class="cls-1" points="360.99226 172.58429 360.99226 259.69593 364.33355 259.69593 364.33355 260.19093 357.1558 260.19093 357.1558 259.69593 360.49726 259.69593 360.49726 172.58429 357.1558 172.58429 357.1558 172.08929 364.33355 172.08929 364.33355 172.58429 360.99226 172.58429"/>
  <polygon class="cls-1" points="228.22271 153.80137 227.72771 153.80137 227.72771 160.97912 228.22271 160.97912 228.22271 157.63767 322.86485 157.63767 322.86485 160.97912 323.35985 160.97912 323.35985 153.80137 322.86485 153.80137 322.86485 157.14267 228.22271 157.14267 228.22271 153.80137"/>

</svg>