<?xml version="1.0" encoding="UTF-8"?>
<svg id="Layer_4" data-name="Layer 4" xmlns="http://www.w3.org/2000/svg" viewBox="0 0 395 395">
  <defs>
    <style>
      .cls-1 {
        fill: #000;
        stroke-width: 0px;
      }

      .cls-2 {
        fill: none;
        stroke: #07ff0e;
        stroke-miterlimit: 10;
        stroke-width: .5px;
      }
    </style>
  </defs>
  <path class="cls-1" d="M177.76626,196.73953c-.00838-12.17291-.98228-24.15267-2.82114-34.65112-2.1553-12.30794-5.39213-22.18587-9.61768-29.35805-.21912-.37108-.4486-.73686-.68191-1.09893l.04768-.21463-.17078.02399c-4.53621-6.90905-11.91547-12.21739-21.96305-15.78826-10.95834-3.89555-21.56217-4.47774-26.90724-4.47774-10.43882,0-36.04864,1.93215-48.37853,19.82274-.10603.15371-.2114.31145-.31647.46857l-.34739-.0493.09765.42877c-4.46757,6.85314-7.88489,16.61134-10.16073,29.03033-2.475,13.50277-3.00416,26.93028-3.00993,35.8643l.00129.27007c.00515,13.56109.95132,25.85599,2.81335,36.54394,2.22235,12.76833,5.71959,22.89537,10.3918,30.10798l-.09669.44167.35191-.05815c5.49334,8.19908,15.71173,12.94989,23.35588,15.49499,8.52456,2.83741,18.61923,4.53202,27.00522,4.53202,13.00857,0,36.47144-6.38263,46.76783-20.05585l.52853.08699-.13408-.62116c.12312-.17048.24493-.34096.36224-.51434,11.3953-16.63906,12.87709-43.96765,12.88224-65.95892v-.26991ZM176.90902,195.53137l-19.98625-28.16118,17.33787-4.09616c1.65838,9.75322,2.58136,20.71427,2.64838,32.25734ZM98.78409,230.59888l-.01482-.26525-.19625-.02624-10.28092-33.25476.07507-.17836-.0754-.17599,10.28801-34.33158.18949-.04204.0129-.22077,16.86478-9.78608,16.80875,10.29478,10.1836,34.26169-10.60772,33.62453-16.9982,10.50489-16.2493-10.4048ZM114.4488,241.38929l-14.22224,15.80519-1.40022-25.80768,15.62246,10.0025ZM87.43972,196.87909l-12.43688,29.74254-20.51801-29.74108,20.5193-28.91318,12.43559,28.91173ZM75.69185,167.4058l22.17188-4.88215-9.96706,33.25829-12.20482-28.37614ZM87.90733,197.974l9.96541,32.23704-22.16963-3.05059,12.20423-29.18645ZM98.82729,161.3369l1.40894-23.9445,14.88996,14.48713-16.2989,9.45737ZM116.17034,151.88695l14.89768-14.49456,1.44184,24.50217-16.33952-10.00761ZM133.07446,162.44339l22.53669,4.96241-12.45493,28.95974-10.08176-33.92215ZM143.14976,197.38343l12.45044,29.77702-22.83511,3.14226,10.38467-32.91928ZM143.86457,196.87909l12.43556-28.91173,20.51867,28.91318-20.51867,29.74108-12.43556-29.74254ZM164.59137,133.1646c4.15338,7.0489,7.40632,17.20752,9.5236,29.26655l-17.3411,4.09566,7.60548-33.71283c.07026.11699.14243.23282.21202.35063ZM155.88505,166.59175l-22.53732-4.96224-1.45147-24.68618,31.69158-4.50674-7.70279,34.15517ZM163.58207,131.57453l-31.60459,4.4948,7.61706-20.4769c9.68537,3.01412,18.64886,8.12011,23.98754,15.9821ZM138.98093,115.40536l-7.56228,20.3277-14.98923-23.69991c6.99834.07026,14.97504,1.08989,22.55151,3.3722ZM130.95975,136.60396l-15.30761,14.89399-15.30827-14.89399,15.30827-24.20246,15.30761,24.20246ZM114.87417,112.03315l-14.98985,23.69991-7.62287-20.49353c8.75467-2.59664,17.32823-3.15899,22.61272-3.20638ZM67.97615,131.4819c5.8646-8.50846,14.82228-13.33844,23.67074-16.05803l7.67992,20.64546-31.4293-4.46903c.02643-.0398.05221-.0796.07864-.1184ZM99.40736,136.94333l-1.45213,24.68618-22.53669,4.96224-7.70279-34.15517,31.69162,4.50674ZM66.97133,133.01812l7.55776,33.5087-17.41393-4.11305c1.83305-10.66586,4.86816-21.40845,9.85618-29.39564ZM56.97207,163.2571l17.40879,4.11309-19.98625,28.16118c.0464-7.50073.50078-19.78178,2.57747-32.27426ZM54.39461,198.25258l19.97754,28.95833-17.66916,3.38474c-1.6993-11.01586-2.26199-22.43855-2.30838-32.34307ZM56.83608,231.43887l17.70463-3.39042-7.53845,34.42989c-5.16463-8.31815-8.30864-19.42327-10.16618-31.03947ZM75.42821,227.98383l22.52702,3.09972,1.45342,26.80154-31.65937,5.17285,7.67893-35.07412ZM90.62435,278.72988c-7.41533-2.4687-17.28665-7.03375-22.69717-14.83614l31.26879-5.10886-7.64349,20.24279c-.31004-.09814-.62231-.19546-.92813-.29779ZM92.36714,279.28692l7.58291-20.08294,14.90092,23.96173c-7.16912-.27166-15.2857-1.66756-22.48382-3.87879ZM100.38898,258.29179l14.95893-16.62438-.0696-.06237,17.22188-10.64217-1.42378,26.2316-14.48647-16.09846-.63423.5714,14.95956,16.62438-15.26313,24.54553-15.26316-24.54553ZM117.3595,283.21887c-.3068,0-.6207-.00723-.93265-.01191l14.92606-24.00298,7.58291,20.08294c-7.86007,2.64838-15.77169,3.93195-21.57632,3.93195ZM139.74406,279.00992l-7.6364-20.22504,31.0664,5.07665c-5.41342,6.96835-14.33758,11.97487-23.43,15.14839ZM131.8956,257.8851l1.45213-26.80154,22.52702-3.09972,7.67959,35.07412-31.65875-5.17285ZM164.27299,262.34832l-7.50945-34.29987,18.04559,3.45616c-1.7557,11.61864-4.91905,22.57068-10.53614,30.84371ZM174.93483,230.65944l-18.00434-3.44853,19.97982-28.96073c-.02963,10.26076-.40798,21.59969-1.97548,32.40927Z"/>
  <path class="cls-1" d="M317.38164,176.96895l-.03349-.03881-.14114-.04062-17.36625-6.82202-9.96448-.81632-39.8475-.00162-.01386-.09167-.34964.09167h-.76507l-9.62382.97696-.04607.00469-16.1136,5.98478-.08993.02353-.01287.01432-.88882.3305-24.28595,14.76073v6.20605l25.14478,25.30687.21463.1914-.00162.02208.02871.00228,25.59335,22.85699.03095.02756.86302.47939v.3527h.63485l11.6989,6.49915,1.91298.70848.06122.0493h.07349l5.59581,2.07121,6.45628-2.07121h.07026l.04702-.03752,2.1579-.69191,12.47298-6.5275h.06636l.06706-.06993,1.14081-.597,25.95335-23.37456.03416-.00307-.00129-.02577.2082-.18803,23.19408-24.98816v-5.87377l-24.17573-14.70114ZM337.85712,196.98134c-6.19651-5.33478-15.42555-.09844-16.70173.67063-8.16235-2.45873-25.73419-.1745-27.22177.02564-19.57702-5.45002-46.47908-.35336-48.26379-.00406-8.26515-2.49173-25.74195-.79969-27.27239-.64515-8.93287-3.15807-13.24739-2.59086-15.29474-1.55654-.89107.44956-1.36673.9937-1.60905,1.3698-1.04739-.69594-2.165-.4789-2.92327-.10283v-4.48704c1.47371.91103,5.56261,2.72537,11.48327-.3036.98099.33502,6.48658,2.08378,14.52386,2.08296,4.42022,0,9.60835-.52899,15.22706-2.11325,1.48823.05544,15.54739.56625,29.77092.78649l.12695.10088.11794-.09685c13.34246.20384,26.76739.14873,30.03518-.78131,1.69897.33917,21.29982,4.11998,29.85081.02482,1.11827.46421,7.54746,2.96195,11.11945.65917v4.14031c-1.02092-.37607-2.41699.03577-2.96871.22994ZM290.64907,246.059h-4.62515l16.45941-22.17366h1.19368l8.88806-.69914-21.91599,22.8728ZM256.26528,246.79038h6.24261l4.04088,6.52605h-2.26812l-8.01537-6.52605ZM227.64616,223.35329l8.38662.53127h1.78827l16.68335,22.17445h-3.96677l-1.25136-.69498-21.64011-22.01074ZM294.18113,198.38334c2.10114-.27182,18.56055-2.29145,26.41802-.12906l-18.30338,24.65592h-16.48518l8.37055-24.52685ZM285.03778,222.9102h-30.23173l-8.6696-24.58163c3.50529-.66079,28.66941-5.09147,47.30022-.02706l-8.3989,24.60869ZM276.92378,246.059h-13.95346l-7.82074-22.17445,29.555.00049-7.37345,21.60388-.40735.57008ZM245.36819,198.3484l8.66184,24.5618h-16.02625l-18.96599-25.20794c3.34901-.30647,18.85382-1.56106,26.3304.64614ZM218.12771,197.70902l18.96081,25.20118h-1.00931l-9.45721-.59846-24.56761-24.98833c.15276-.27182.54011-.78906,1.43022-1.22476,1.92779-.94522,6.03346-1.42926,14.64309,1.61037ZM238.73595,223.88455h15.63827l7.82074,22.17445h-6.7753l-16.68371-22.17445ZM263.36738,246.79038h13.03239l-4.67155,6.52605h-4.32029l-4.04055-6.52605ZM277.29955,246.79038h6.9429l-8.27967,6.52605h-3.33478l4.67155-6.52605ZM277.82227,246.059l.16629-.23186,7.48882-21.9421,16.09588.0003-16.4607,22.17366h-7.29029ZM303.63833,222.9102h-.43055l18.25118-24.58662c.77474-.4789,9.80654-5.8575,15.79037-.898l-23.67103,24.70311-9.93996.78151ZM223.42833,176.89081l25.98169-6.81754,1.03448,7.09517-39.22746,13.58287,12.21129-13.86049ZM269.78304,170.81626l17.86769,6.24182-17.95728,14.80743-18.10618-14.33372,18.19577-6.71553ZM290.14054,170.00578l.63423.05234,26.1654,7.51572,11.55644,13.16456-39.69217-14.05028,1.3361-6.68234ZM299.37411,191.29544l-9.99346-13.62814,39.33187,13.92286c-8.90099,3.57779-28.59658-.3566-28.80088-.39818l-.09088-.01818-.0896.02755c-.1057.0327-.22493.06412-.35706.09408ZM298.57745,191.4448c-4.34221.67049-16.04302.70805-27.87596.53658l17.61632-14.52644,10.25963,13.98986ZM250.91083,177.92932l17.71074,14.02015c-12.70243-.20882-25.06776-.6305-28.13055-.73877l10.41982-13.28138ZM249.79484,178.16665l-10.24742,13.06354c-13.86129,3.89166-25.01941,1.2871-28.36452.30664l38.61195-13.37018ZM340.55127,191.91419c-3.28261,2.28601-9.89162-.35756-10.63669-.66822l-10.92158-12.44156,21.55827,13.10978ZM309.80003,174.7624l-15.31857-4.40068,5.19364.42587,10.12493,3.97482ZM289.40061,169.9808l-1.29228,6.46239-18.33239-6.40424-18.62952,6.87621-1.01128-6.93436h39.26548ZM239.39694,170.94873l6.19103-.62891-15.31665,4.01914,9.12562-3.39022ZM209.79844,191.25514c-5.78853,2.99676-9.68474,1.12068-10.93125.32066l22.93662-13.94798-12.00537,13.62732ZM198.77922,197.45924c.53206-.29598,1.59618-.67964,2.58746.20836l24.16154,24.575-2.26875-.14388-24.48026-24.63948ZM226.55238,223.28432l14.35566,14.60108-16.50162-14.73724,2.14596.13616ZM251.85345,246.79038h3.27037l6.98349,5.69653-10.25386-5.69653ZM267.00058,254.04731l.23912.38673-1.04478-.38673h.80566ZM268.35473,254.84575l-.49434-.79843h3.34511l-.75926,1.06125-.73993.23701-1.35158-.49982ZM271.61348,254.73424l.49051-.68693h1.64934l-2.13985.68693ZM278.16774,252.63161l-.26103.08395,7.51651-5.92518h3.89618l-11.15166,5.84123ZM294.89977,242.68003l18.76165-19.57972,3.2639-.25717-22.02555,19.83689ZM318.07065,221.775l-3.39603.2675,23.3114-24.32978c.55301-.20754,1.89106-.57235,2.64838-.24991l-22.56375,24.31219Z"/>
  <polygon class="cls-1" points="39.12908 111.42229 39.12908 283.57771 42.47037 283.57771 42.47037 284.07271 35.29262 284.07271 35.29262 283.57771 38.63408 283.57771 38.63408 111.42229 35.29262 111.42229 35.29262 110.92729 42.47037 110.92729 42.47037 111.42229 39.12908 111.42229"/>
  <polygon class="cls-1" points="54.18512 96.36608 177.36534 96.36608 177.36534 93.02479 177.86034 93.02479 177.86034 100.20254 177.36534 100.20254 177.36534 96.86108 54.18512 96.86108 54.18512 100.20254 53.69012 100.20254 53.69012 93.02479 54.18512 93.02479 54.18512 96.36608"/>
  <polygon class="cls-1" points="356.36608 169.40538 356.36608 255.62353 359.70738 255.62353 359.70738 256.11853 352.52963 256.11853 352.52963 255.62353 355.87108 255.62353 355.87108 169.40538 352.52963 169.40538 352.52963 168.91038 359.70738 168.91038 359.70738 169.40538 356.36608 169.40538"/>
  <polygon class="cls-1" points="239.71743 154.34918 299.88485 154.34918 299.88485 151.00788 300.37985 151.00788 300.37985 158.18563 299.88485 158.18563 299.88485 154.84418 239.71743 154.84418 239.71743 158.18563 239.22243 158.18563 239.22243 151.00788 239.71743 151.00788 239.71743 154.34918"/>

</svg>