<svg width="122" height="122" viewBox="0 0 122 122" fill="none" xmlns="http://www.w3.org/2000/svg">
<path d="M60.7533 2.78773C61.0778 2.34082 60.9785 1.71548 60.5316 1.39099C60.0847 1.06651 59.4594 1.16575 59.1349 1.61266L60.7533 2.78773ZM61 33.3605L61.3792 34.2858C61.7256 34.1438 61.9637 33.8202 61.9962 33.4472C62.0286 33.0742 61.85 32.7143 61.5333 32.5146L61 33.3605ZM19.3103 19.0604L19.4678 18.0729C19.1577 18.0234 18.8425 18.1225 18.6164 18.3404C18.3903 18.5583 18.2797 18.8697 18.3177 19.1814L19.3103 19.0604ZM32.8267 61.0002L31.9968 61.558C32.2005 61.8611 32.5533 62.0291 32.917 61.9961C33.2808 61.9631 33.5976 61.7345 33.7435 61.3997L32.8267 61.0002ZM59.1349 1.61266L43.9473 22.5305L45.5657 23.7055L60.7533 2.78773L59.1349 1.61266ZM45.6707 22.7127L38.5097 6.55841L36.6813 7.36892L43.8422 23.5232L45.6707 22.7127ZM44.2231 23.9639L60.4666 34.2064L61.5333 32.5146L45.2898 22.2721L44.2231 23.9639ZM60.6207 32.4352L40.9848 40.4835L41.7434 42.3341L61.3792 34.2858L60.6207 32.4352ZM41.1404 40.4342L22.3364 44.7501L22.7838 46.6994L41.5878 42.3835L41.1404 40.4342ZM23.5528 45.6037L20.303 18.9394L18.3177 19.1814L21.5675 45.8457L23.5528 45.6037ZM19.1529 20.0479L44.599 24.1055L44.9139 22.1305L19.4678 18.0729L19.1529 20.0479ZM42.3473 41.5912L45.7397 23.3003L43.7732 22.9356L40.3809 41.2265L42.3473 41.5912ZM40.4474 41.0093L31.91 60.6007L33.7435 61.3997L42.2808 41.8083L40.4474 41.0093ZM33.6567 60.4424L23.3901 45.1669L21.7302 46.2825L31.9968 61.558L33.6567 60.4424ZM2.75185 60.0335L23.112 46.5586L22.0082 44.8908L1.64805 58.3657L2.75185 60.0335ZM5.8009 39.5901L22.1643 46.643L22.9559 44.8064L6.59253 37.7535L5.8009 39.5901Z" fill="black"/>
<path d="M60.7533 119.212C61.0778 119.659 60.9785 120.285 60.5316 120.609C60.0847 120.933 59.4594 120.834 59.1349 120.387L60.7533 119.212ZM61 88.6395L61.3792 87.7142C61.7256 87.8562 61.9637 88.1798 61.9962 88.5528C62.0286 88.9258 61.85 89.2857 61.5333 89.4854L61 88.6395ZM19.3103 102.94L19.4678 103.927C19.1577 103.977 18.8425 103.877 18.6164 103.66C18.3903 103.442 18.2797 103.13 18.3177 102.819L19.3103 102.94ZM32.8267 60.9998L31.9968 60.442C32.2005 60.1389 32.5533 59.9709 32.917 60.0039C33.2808 60.0369 33.5976 60.2655 33.7435 60.6003L32.8267 60.9998ZM59.1349 120.387L43.9473 99.4695L45.5657 98.2945L60.7533 119.212L59.1349 120.387ZM45.6707 99.2873L38.5097 115.442L36.6813 114.631L43.8422 98.4768L45.6707 99.2873ZM44.2231 98.0361L60.4666 87.7936L61.5333 89.4854L45.2898 99.7279L44.2231 98.0361ZM60.6207 89.5648L40.9848 81.5165L41.7434 79.6659L61.3792 87.7142L60.6207 89.5648ZM41.1404 81.5658L22.3364 77.2499L22.7838 75.3006L41.5878 79.6165L41.1404 81.5658ZM23.5528 76.3963L20.303 103.061L18.3177 102.819L21.5675 76.1543L23.5528 76.3963ZM19.1529 101.952L44.599 97.8945L44.9139 99.8695L19.4678 103.927L19.1529 101.952ZM42.3473 80.4088L45.7397 98.6997L43.7732 99.0644L40.3809 80.7735L42.3473 80.4088ZM40.4474 80.9907L31.91 61.3993L33.7435 60.6003L42.2808 80.1917L40.4474 80.9907ZM33.6567 61.5576L23.3901 76.8331L21.7302 75.7175L31.9968 60.442L33.6567 61.5576ZM2.75185 61.9665L23.112 75.4414L22.0082 77.1092L1.64805 63.6343L2.75185 61.9665ZM5.8009 82.4099L22.1643 75.357L22.9559 77.1936L6.59253 84.2465L5.8009 82.4099Z" fill="black"/>
<path d="M61.2467 2.78772C60.9222 2.34081 61.0215 1.71547 61.4684 1.39099C61.9153 1.0665 62.5406 1.16575 62.8651 1.61266L61.2467 2.78772ZM61 33.3605L60.6208 34.2858C60.2744 34.1438 60.0363 33.8201 60.0038 33.4472C59.9713 33.0742 60.15 32.7143 60.4667 32.5146L61 33.3605ZM102.69 19.0604L102.532 18.0729C102.842 18.0234 103.158 18.1225 103.384 18.3404C103.61 18.5583 103.72 18.8697 103.682 19.1814L102.69 19.0604ZM89.1733 61.0002L90.0032 61.558C89.7995 61.8611 89.4467 62.0291 89.083 61.9961C88.7192 61.9631 88.4024 61.7345 88.2565 61.3997L89.1733 61.0002ZM62.8651 1.61266L78.0527 22.5305L76.4343 23.7055L61.2467 2.78772L62.8651 1.61266ZM76.3293 22.7127L83.4903 6.55841L85.3187 7.36891L78.1578 23.5232L76.3293 22.7127ZM77.7769 23.9639L61.5334 34.2063L60.4667 32.5146L76.7102 22.2721L77.7769 23.9639ZM61.3793 32.4352L81.0152 40.4835L80.2566 42.3341L60.6208 34.2858L61.3793 32.4352ZM80.8596 40.4342L99.6636 44.7501L99.2162 46.6994L80.4122 42.3835L80.8596 40.4342ZM98.4472 45.6037L101.697 18.9394L103.682 19.1814L100.433 45.8457L98.4472 45.6037ZM102.847 20.0479L77.401 24.1055L77.0861 22.1305L102.532 18.0729L102.847 20.0479ZM79.6527 41.5912L76.2603 23.3003L78.2268 22.9356L81.6191 41.2265L79.6527 41.5912ZM81.5526 41.0093L90.09 60.6007L88.2565 61.3997L79.7192 41.8083L81.5526 41.0093ZM88.3433 60.4424L98.6099 45.1669L100.27 46.2825L90.0032 61.558L88.3433 60.4424ZM119.248 60.0335L98.888 46.5586L99.9918 44.8908L120.352 58.3657L119.248 60.0335ZM116.199 39.5901L99.8357 46.643L99.0441 44.8064L115.407 37.7535L116.199 39.5901Z" fill="black"/>
<path d="M61.2467 119.212C60.9222 119.659 61.0215 120.285 61.4684 120.609C61.9153 120.933 62.5406 120.834 62.8651 120.387L61.2467 119.212ZM61 88.6395L60.6208 87.7142C60.2744 87.8562 60.0363 88.1798 60.0038 88.5528C59.9714 88.9258 60.15 89.2857 60.4667 89.4854L61 88.6395ZM102.69 102.94L102.532 103.927C102.842 103.977 103.158 103.877 103.384 103.66C103.61 103.442 103.72 103.13 103.682 102.819L102.69 102.94ZM89.1733 60.9998L90.0032 60.442C89.7995 60.1389 89.4467 59.9709 89.083 60.0039C88.7193 60.0369 88.4024 60.2655 88.2565 60.6003L89.1733 60.9998ZM62.8651 120.387L78.0527 99.4695L76.4343 98.2945L61.2467 119.212L62.8651 120.387ZM76.3293 99.2873L83.4903 115.442L85.3187 114.631L78.1578 98.4768L76.3293 99.2873ZM77.7769 98.0361L61.5334 87.7936L60.4667 89.4854L76.7102 99.7279L77.7769 98.0361ZM61.3793 89.5648L81.0152 81.5165L80.2567 79.6659L60.6208 87.7142L61.3793 89.5648ZM80.8596 81.5658L99.6636 77.2499L99.2162 75.3006L80.4122 79.6165L80.8596 81.5658ZM98.4472 76.3963L101.697 103.061L103.682 102.819L100.433 76.1543L98.4472 76.3963ZM102.847 101.952L77.401 97.8945L77.0861 99.8695L102.532 103.927L102.847 101.952ZM79.6527 80.4088L76.2603 98.6997L78.2268 99.0644L81.6191 80.7735L79.6527 80.4088ZM81.5527 80.9907L90.09 61.3993L88.2565 60.6003L79.7192 80.1917L81.5527 80.9907ZM88.3433 61.5576L98.6099 76.8331L100.27 75.7175L90.0032 60.442L88.3433 61.5576ZM119.248 61.9665L98.888 75.4414L99.9918 77.1092L120.352 63.6343L119.248 61.9665ZM116.199 82.4099L99.8357 75.357L99.0441 77.1936L115.407 84.2465L116.199 82.4099Z" fill="black"/>
<path d="M60.9455 119.918C93.4778 119.918 119.85 93.5457 119.85 61.0134C119.85 28.4811 93.4778 2.1084 60.9455 2.1084C28.4132 2.1084 2.04053 28.4811 2.04053 61.0134C2.04053 93.5457 28.4132 119.918 60.9455 119.918Z" stroke="black" stroke-width="3"/>
</svg>
