<svg width="122" height="122" viewBox="0 0 122 122" fill="none" xmlns="http://www.w3.org/2000/svg">
<path d="M81.0912 55.9116C83.1433 56.2187 84.6155 57.8505 85.8994 59.4805C87.0147 60.8963 87.6978 62.5448 87.7358 64.3467C87.7751 66.2168 87.2965 68.0478 86.1103 69.4942C84.7718 71.1263 83.0173 72.8103 80.9113 72.6681C78.8493 72.5289 77.8351 70.2639 76.3423 68.8346C74.7561 67.316 72.3739 66.3493 72.0436 64.1783C71.6842 61.8157 72.8991 59.4108 74.6634 57.7988C76.3771 56.2329 78.7954 55.568 81.0912 55.9116Z" fill="#656565"/>
<path d="M44.5289 97.7349C45.9062 99.3872 46.2611 101.003 46.3319 102.416C46.3993 103.761 45.9538 104.793 44.909 105.32C43.7486 105.906 42.2957 106.481 40.3 105.462C38.3483 104.465 37.1177 102.398 35.8001 100.667C34.707 99.2312 33.8014 97.8321 33.4854 96.5099C33.1174 94.9699 32.8022 93.3097 33.913 92.7706C35.0773 92.2055 37.1544 92.8494 39.1268 93.7718C41.0759 94.6832 43.1033 96.0245 44.5289 97.7349Z" fill="#656565"/>
<path d="M101.606 48.2383C104.156 48.1898 106.848 49.0447 108.401 51.0681C109.981 53.1277 110.298 56.024 109.467 58.4834C108.729 60.6674 106.447 61.7138 104.427 62.8262C102.744 63.7534 100.981 64.2193 99.0596 64.217C96.6344 64.2142 93.8454 64.5969 92.2034 62.8121C90.4809 60.9396 90.28 57.9663 91.0906 55.5546C91.8137 53.4034 94.2089 52.5986 96.0719 51.3025C97.8713 50.0505 99.4145 48.2799 101.606 48.2383Z" fill="#656565"/>
<path d="M38.3925 49.2235C39.7415 49.2035 41.1656 49.5558 41.9869 50.3898C42.8229 51.2387 42.9907 52.4324 42.5511 53.446C42.1607 54.3462 40.9532 54.7775 39.885 55.236C38.9946 55.6181 38.0618 55.8101 37.0453 55.8092C35.7623 55.8081 34.2868 55.9658 33.4182 55.2301C32.5069 54.4584 32.4007 53.2329 32.8295 52.2389C33.212 51.3523 34.4792 51.0206 35.4647 50.4864C36.4166 49.9704 37.2331 49.2406 38.3925 49.2235Z" fill="#656565"/>
<path d="M68.7861 86.6297C68.9257 85.2878 69.4438 83.9153 70.369 83.1983C71.3107 82.4685 72.5159 82.4429 73.4705 82.9992C74.3182 83.4932 74.6038 84.7432 74.9329 85.8581C75.2072 86.7874 75.2876 87.7364 75.1666 88.7456C75.0138 90.0195 74.9961 91.5033 74.163 92.2789C73.289 93.0926 72.0595 93.0533 71.1232 92.51C70.2879 92.0255 70.1083 90.728 69.6943 89.6862C69.2944 88.68 68.6662 87.7831 68.7861 86.6297Z" fill="#656565"/>
<path d="M83.604 95.7588C84.8736 95.7351 86.2139 96.1515 86.9869 97.1371C87.7737 98.1404 87.9317 99.5511 87.5179 100.749C87.1505 101.813 86.014 102.323 85.0086 102.864C84.1707 103.316 83.2927 103.543 82.336 103.542C81.1285 103.541 79.7398 103.727 78.9223 102.858C78.0646 101.946 77.9646 100.497 78.3682 99.3225C78.7282 98.2746 79.9208 97.8827 80.8484 97.2513C81.7443 96.6415 82.5127 95.7791 83.604 95.7588Z" fill="#656565"/>
<path d="M21.827 57.8046C23.7926 58.3019 23.756 60.2827 25.1947 61.3306C26.5735 62.3348 29.3151 62.4004 29.9403 63.7137C30.5666 65.0292 29.0587 66.3359 28.1685 67.5771C27.2619 68.8413 26.5321 70.2778 24.7421 70.9622C22.9243 71.6572 20.7095 71.4801 18.6678 71.2096C16.6778 70.9459 14.5884 70.5349 13.3168 69.4482C12.0944 68.4035 12.0259 66.9501 12.1156 65.6099C12.1918 64.4725 13.1668 63.5382 13.7831 62.4816C14.4854 61.2778 14.5336 59.8342 15.973 58.9973C17.5669 58.0705 19.869 57.3091 21.827 57.8046Z" fill="#656565"/>
<path d="M97.4773 32.104C98.5911 32.3202 98.5704 33.1815 99.3857 33.6371C100.167 34.0737 101.721 34.1022 102.075 34.6732C102.43 35.2452 101.575 35.8133 101.071 36.3529C100.557 36.9026 100.144 37.5272 99.1292 37.8247C98.0991 38.1269 96.8441 38.0499 95.6871 37.9323C94.5594 37.8176 93.3754 37.639 92.6549 37.1665C91.9622 36.7123 91.9234 36.0804 91.9742 35.4976C92.0173 35.0031 92.5698 34.5969 92.9191 34.1375C93.317 33.6141 93.3444 32.9865 94.16 32.6226C95.0632 32.2196 96.3678 31.8886 97.4773 32.104Z" fill="#656565"/>
<path d="M31.9148 77.965C32.7056 78.25 32.9237 79.1807 33.4734 79.7848C34.0125 80.3773 34.8546 80.7407 35.1134 81.4806C35.3884 82.2668 35.3767 83.2001 34.9148 83.9053C34.4643 84.5932 33.4291 84.6342 32.7348 85.112C31.9812 85.6308 31.5925 86.6357 30.6785 86.821C29.7375 87.0116 28.7502 86.5967 27.9616 86.0792C27.1922 85.5743 26.5774 84.8332 26.3487 83.9796C26.1363 83.1872 26.6273 82.4169 26.7641 81.6101C26.8971 80.8249 26.6272 79.9326 27.1416 79.3003C27.6605 78.6625 28.6136 78.5581 29.4337 78.3287C30.2524 78.0996 31.1174 77.6776 31.9148 77.965Z" fill="#656565"/>
<path d="M63.0454 15.4178C64.5923 14.843 66.2641 14.3341 67.3898 14.4538C68.4907 14.5708 68.4858 15.4478 68.9052 16.0407C69.2978 16.5957 70.1096 16.9777 69.7708 17.8197C69.4327 18.6599 68.0229 19.5816 67.1148 20.4898C66.0738 21.531 65.5978 22.7195 64.0422 23.5493C62.4908 24.3768 60.9269 24.4065 59.5088 24.547C58.2305 24.6737 57.1318 24.6094 56.2869 24.3176C55.4455 24.0271 54.9989 23.4964 54.6868 22.8818C54.3213 22.1623 53.4565 21.531 54.3191 20.4434C55.1826 19.3547 57.264 18.5417 58.8565 17.6246C60.2424 16.8264 61.566 15.9675 63.0454 15.4178Z" fill="#656565"/>
<circle cx="54.8029" cy="49.7995" r="0.948906" fill="#656565"/>
<ellipse cx="85.1967" cy="45.3932" rx="0.948902" ry="0.948906" fill="#656565"/>
<circle cx="56.1669" cy="37.091" r="0.536325" fill="#656565"/>
<ellipse cx="46.7966" cy="107.378" rx="0.536325" ry="0.536324" fill="#656565"/>
<ellipse cx="90.0949" cy="46.8791" rx="0.536327" ry="0.536325" fill="#656565"/>
<circle cx="49.8527" cy="39.6018" r="0.536325" fill="#656565"/>
<ellipse cx="27.6716" cy="89.7482" rx="0.536325" ry="0.536324" fill="#656565"/>
<circle cx="29.5512" cy="56.3596" r="0.536325" fill="#656565"/>
<ellipse cx="78.6762" cy="93.7111" rx="0.536324" ry="0.536327" fill="#656565"/>
<circle cx="33.9201" cy="22.8791" r="0.536325" fill="#656565"/>
<circle cx="37.6887" cy="23.9523" r="0.536325" fill="#656565"/>
<circle cx="57.3229" cy="59.9601" r="1.57047" fill="#656565"/>
<ellipse cx="18.0839" cy="79.4386" rx="1.57047" ry="1.57047" fill="#656565"/>
<circle cx="103.729" cy="71.4484" r="1.57047" fill="#656565"/>
<ellipse cx="24.726" cy="46.3429" rx="1.57047" ry="1.57047" fill="#656565"/>
<path d="M60.7533 2.78773C61.0778 2.34082 60.9785 1.71548 60.5316 1.39099C60.0847 1.06651 59.4594 1.16575 59.1349 1.61266L60.7533 2.78773ZM61 33.3605L61.3792 34.2858C61.7256 34.1438 61.9637 33.8202 61.9962 33.4472C62.0286 33.0742 61.85 32.7143 61.5333 32.5146L61 33.3605ZM19.3103 19.0604L19.4678 18.0729C19.1577 18.0234 18.8425 18.1225 18.6164 18.3404C18.3903 18.5583 18.2797 18.8697 18.3177 19.1814L19.3103 19.0604ZM32.8267 61.0002L31.9968 61.558C32.2005 61.8611 32.5533 62.0291 32.917 61.9961C33.2807 61.9631 33.5976 61.7345 33.7435 61.3997L32.8267 61.0002ZM59.1349 1.61266L43.9473 22.5305L45.5657 23.7055L60.7533 2.78773L59.1349 1.61266ZM45.6707 22.7127L38.5097 6.55841L36.6813 7.36892L43.8422 23.5232L45.6707 22.7127ZM44.2231 23.9639L60.4666 34.2064L61.5333 32.5146L45.2898 22.2721L44.2231 23.9639ZM60.6207 32.4352L40.9848 40.4835L41.7434 42.3341L61.3792 34.2858L60.6207 32.4352ZM41.1404 40.4342L22.3364 44.7501L22.7838 46.6994L41.5878 42.3835L41.1404 40.4342ZM23.5528 45.6037L20.303 18.9394L18.3177 19.1814L21.5675 45.8457L23.5528 45.6037ZM19.1529 20.0479L44.599 24.1055L44.9139 22.1305L19.4678 18.0729L19.1529 20.0479ZM42.3473 41.5912L45.7397 23.3003L43.7732 22.9356L40.3809 41.2265L42.3473 41.5912ZM40.4474 41.0093L31.91 60.6007L33.7435 61.3997L42.2808 41.8083L40.4474 41.0093ZM33.6567 60.4424L23.3901 45.1669L21.7302 46.2825L31.9968 61.558L33.6567 60.4424ZM2.75185 60.0335L23.112 46.5586L22.0082 44.8908L1.64805 58.3657L2.75185 60.0335ZM5.8009 39.5901L22.1643 46.643L22.9559 44.8064L6.59253 37.7535L5.8009 39.5901Z" fill="black"/>
<path d="M60.7533 119.212C61.0778 119.659 60.9785 120.285 60.5316 120.609C60.0847 120.933 59.4594 120.834 59.1349 120.387L60.7533 119.212ZM61 88.6395L61.3792 87.7142C61.7256 87.8562 61.9637 88.1798 61.9962 88.5528C62.0286 88.9258 61.85 89.2857 61.5333 89.4854L61 88.6395ZM19.3103 102.94L19.4678 103.927C19.1577 103.977 18.8425 103.877 18.6164 103.66C18.3903 103.442 18.2797 103.13 18.3177 102.819L19.3103 102.94ZM32.8267 60.9998L31.9968 60.442C32.2005 60.1389 32.5533 59.9709 32.917 60.0039C33.2807 60.0369 33.5976 60.2655 33.7435 60.6003L32.8267 60.9998ZM59.1349 120.387L43.9473 99.4695L45.5657 98.2945L60.7533 119.212L59.1349 120.387ZM45.6707 99.2873L38.5097 115.442L36.6813 114.631L43.8422 98.4768L45.6707 99.2873ZM44.2231 98.0361L60.4666 87.7936L61.5333 89.4854L45.2898 99.7279L44.2231 98.0361ZM60.6207 89.5648L40.9848 81.5165L41.7434 79.6659L61.3792 87.7142L60.6207 89.5648ZM41.1404 81.5658L22.3364 77.2499L22.7838 75.3006L41.5878 79.6165L41.1404 81.5658ZM23.5528 76.3963L20.303 103.061L18.3177 102.819L21.5675 76.1543L23.5528 76.3963ZM19.1529 101.952L44.599 97.8945L44.9139 99.8695L19.4678 103.927L19.1529 101.952ZM42.3473 80.4088L45.7397 98.6997L43.7732 99.0644L40.3809 80.7735L42.3473 80.4088ZM40.4474 80.9907L31.91 61.3993L33.7435 60.6003L42.2808 80.1917L40.4474 80.9907ZM33.6567 61.5576L23.3901 76.8331L21.7302 75.7175L31.9968 60.442L33.6567 61.5576ZM2.75185 61.9665L23.112 75.4414L22.0082 77.1092L1.64805 63.6343L2.75185 61.9665ZM5.8009 82.4099L22.1643 75.357L22.9559 77.1936L6.59253 84.2465L5.8009 82.4099Z" fill="black"/>
<path d="M61.2467 2.78772C60.9222 2.34081 61.0215 1.71547 61.4684 1.39099C61.9153 1.0665 62.5406 1.16575 62.8651 1.61266L61.2467 2.78772ZM61 33.3605L60.6208 34.2858C60.2744 34.1438 60.0363 33.8201 60.0038 33.4472C59.9713 33.0742 60.15 32.7143 60.4667 32.5146L61 33.3605ZM102.69 19.0604L102.532 18.0729C102.842 18.0234 103.158 18.1225 103.384 18.3404C103.61 18.5583 103.72 18.8697 103.682 19.1814L102.69 19.0604ZM89.1733 61.0002L90.0032 61.558C89.7995 61.8611 89.4467 62.0291 89.083 61.9961C88.7192 61.9631 88.4024 61.7345 88.2565 61.3997L89.1733 61.0002ZM62.8651 1.61266L78.0527 22.5305L76.4343 23.7055L61.2467 2.78772L62.8651 1.61266ZM76.3293 22.7127L83.4903 6.55841L85.3187 7.36891L78.1577 23.5232L76.3293 22.7127ZM77.7769 23.9639L61.5334 34.2063L60.4667 32.5146L76.7102 22.2721L77.7769 23.9639ZM61.3793 32.4352L81.0152 40.4835L80.2566 42.3341L60.6208 34.2858L61.3793 32.4352ZM80.8596 40.4342L99.6636 44.7501L99.2162 46.6994L80.4122 42.3835L80.8596 40.4342ZM98.4472 45.6037L101.697 18.9394L103.682 19.1814L100.433 45.8457L98.4472 45.6037ZM102.847 20.0479L77.401 24.1055L77.0861 22.1305L102.532 18.0729L102.847 20.0479ZM79.6527 41.5912L76.2603 23.3003L78.2268 22.9356L81.6191 41.2265L79.6527 41.5912ZM81.5526 41.0093L90.09 60.6007L88.2565 61.3997L79.7192 41.8083L81.5526 41.0093ZM88.3433 60.4424L98.6099 45.1669L100.27 46.2825L90.0032 61.558L88.3433 60.4424ZM119.248 60.0335L98.888 46.5586L99.9918 44.8908L120.352 58.3657L119.248 60.0335ZM116.199 39.5901L99.8357 46.643L99.0441 44.8064L115.407 37.7535L116.199 39.5901Z" fill="black"/>
<path d="M61.2467 119.212C60.9222 119.659 61.0215 120.285 61.4684 120.609C61.9153 120.933 62.5406 120.834 62.8651 120.387L61.2467 119.212ZM61 88.6395L60.6208 87.7142C60.2744 87.8562 60.0363 88.1798 60.0038 88.5528C59.9714 88.9258 60.15 89.2857 60.4667 89.4854L61 88.6395ZM102.69 102.94L102.532 103.927C102.842 103.977 103.158 103.877 103.384 103.66C103.61 103.442 103.72 103.13 103.682 102.819L102.69 102.94ZM89.1733 60.9998L90.0032 60.442C89.7995 60.1389 89.4467 59.9709 89.083 60.0039C88.7193 60.0369 88.4024 60.2655 88.2565 60.6003L89.1733 60.9998ZM62.8651 120.387L78.0527 99.4695L76.4343 98.2945L61.2467 119.212L62.8651 120.387ZM76.3293 99.2873L83.4903 115.442L85.3187 114.631L78.1578 98.4768L76.3293 99.2873ZM77.7769 98.0361L61.5334 87.7936L60.4667 89.4854L76.7102 99.7279L77.7769 98.0361ZM61.3793 89.5648L81.0152 81.5165L80.2567 79.6659L60.6208 87.7142L61.3793 89.5648ZM80.8596 81.5658L99.6636 77.2499L99.2162 75.3006L80.4122 79.6165L80.8596 81.5658ZM98.4472 76.3963L101.697 103.061L103.682 102.819L100.433 76.1543L98.4472 76.3963ZM102.847 101.952L77.401 97.8945L77.0861 99.8695L102.532 103.927L102.847 101.952ZM79.6527 80.4088L76.2603 98.6997L78.2268 99.0644L81.6191 80.7735L79.6527 80.4088ZM81.5526 80.9907L90.09 61.3993L88.2565 60.6003L79.7192 80.1917L81.5526 80.9907ZM88.3433 61.5576L98.6099 76.8331L100.27 75.7175L90.0032 60.442L88.3433 61.5576ZM119.248 61.9665L98.888 75.4414L99.9918 77.1092L120.352 63.6343L119.248 61.9665ZM116.199 82.4099L99.8357 75.357L99.0441 77.1936L115.407 84.2465L116.199 82.4099Z" fill="black"/>
<path d="M60.9455 119.918C93.4778 119.918 119.85 93.5457 119.85 61.0134C119.85 28.4811 93.4778 2.1084 60.9455 2.1084C28.4132 2.1084 2.04053 28.4811 2.04053 61.0134C2.04053 93.5457 28.4132 119.918 60.9455 119.918Z" stroke="black" stroke-width="3"/>
</svg>
