<svg width="122" height="122" viewBox="0 0 122 122" fill="none" xmlns="http://www.w3.org/2000/svg">
<path d="M38.392 49.2225C39.741 49.2025 41.1651 49.5548 41.9864 50.3888C42.8224 51.2377 42.9902 52.4314 42.5506 53.4451C42.1602 54.3452 40.9527 54.7765 39.8845 55.235C38.9942 55.6171 38.0613 55.8092 37.0448 55.8082C35.7618 55.8071 34.2863 55.9648 33.4177 55.2292C32.5064 54.4574 32.4002 53.2319 32.829 52.2379C33.2115 51.3513 34.4787 51.0196 35.4642 50.4854C36.4162 49.9694 37.2326 49.2397 38.392 49.2225Z" fill="#656565"/>
<path d="M68.7859 86.6287C68.9255 85.2868 69.4436 83.9144 70.3688 83.1973C71.3105 82.4675 72.5157 82.4419 73.4703 82.9982C74.318 83.4923 74.6036 84.7423 74.9326 85.8571C75.2069 86.7864 75.2873 87.7354 75.1663 88.7447C75.0136 90.0185 74.9959 91.5023 74.1627 92.2779C73.2887 93.0916 72.0593 93.0523 71.1229 92.5091C70.2877 92.0245 70.1081 90.727 69.694 89.6852C69.2941 88.679 68.6659 87.7821 68.7859 86.6287Z" fill="#656565"/>
<path d="M31.9146 77.964C32.7053 78.249 32.9235 79.1797 33.4731 79.7838C34.0122 80.3763 34.8543 80.7397 35.1131 81.4796C35.3882 82.2658 35.3765 83.1991 34.9146 83.9043C34.464 84.5922 33.4289 84.6332 32.7346 85.1111C31.9809 85.6298 31.5923 86.6348 30.6782 86.82C29.7372 87.0107 28.75 86.5957 27.9614 86.0782C27.192 85.5733 26.5772 84.8323 26.3484 83.9786C26.1361 83.1862 26.6271 82.416 26.7638 81.6091C26.8969 80.8239 26.627 79.9316 27.1414 79.2993C27.6603 78.6615 28.6133 78.5571 29.4335 78.3277C30.2522 78.0987 31.1172 77.6766 31.9146 77.964Z" fill="#656565"/>
<circle cx="54.8029" cy="49.7985" r="0.948906" fill="#656565"/>
<ellipse cx="46.7966" cy="107.377" rx="0.536325" ry="0.536327" fill="#656565"/>
<ellipse cx="90.0949" cy="46.8781" rx="0.536327" ry="0.536325" fill="#656565"/>
<circle cx="49.8527" cy="39.6008" r="0.536325" fill="#656565"/>
<ellipse cx="27.6716" cy="89.7473" rx="0.536325" ry="0.536324" fill="#656565"/>
<circle cx="29.551" cy="56.3586" r="0.536325" fill="#656565"/>
<ellipse cx="78.676" cy="93.7111" rx="0.536324" ry="0.536327" fill="#656565"/>
<circle cx="37.6887" cy="23.9514" r="0.536325" fill="#656565"/>
<circle cx="57.3229" cy="59.9591" r="1.57047" fill="#656565"/>
<ellipse cx="18.0837" cy="79.4377" rx="1.57047" ry="1.57047" fill="#656565"/>
<circle cx="103.729" cy="71.4484" r="1.57047" fill="#656565"/>
<ellipse cx="24.7257" cy="46.342" rx="1.57047" ry="1.57047" fill="#656565"/>
<path d="M60.7535 2.78773C61.078 2.34082 60.9788 1.71548 60.5319 1.39099C60.085 1.06651 59.4596 1.16575 59.1351 1.61266L60.7535 2.78773ZM61.0002 33.3605L61.3795 34.2858C61.7259 34.1438 61.964 33.8202 61.9964 33.4472C62.0289 33.0742 61.8503 32.7143 61.5336 32.5146L61.0002 33.3605ZM19.3106 19.0604L19.4681 18.0729C19.158 18.0234 18.8427 18.1225 18.6166 18.3404C18.3905 18.5583 18.2799 18.8697 18.3179 19.1814L19.3106 19.0604ZM32.827 61.0002L31.997 61.558C32.2008 61.8611 32.5535 62.0291 32.9173 61.9961C33.281 61.9631 33.5978 61.7345 33.7437 61.3997L32.827 61.0002ZM59.1351 1.61266L43.9475 22.5305L45.5659 23.7055L60.7535 2.78773L59.1351 1.61266ZM45.6709 22.7127L38.51 6.55841L36.6816 7.36892L43.8425 23.5232L45.6709 22.7127ZM44.2233 23.9639L60.4668 34.2064L61.5336 32.5146L45.2901 22.2721L44.2233 23.9639ZM60.6209 32.4352L40.9851 40.4835L41.7436 42.3341L61.3795 34.2858L60.6209 32.4352ZM41.1406 40.4342L22.3367 44.7501L22.7841 46.6994L41.588 42.3835L41.1406 40.4342ZM23.553 45.6037L20.3032 18.9394L18.3179 19.1814L21.5677 45.8457L23.553 45.6037ZM19.1531 20.0479L44.5992 24.1055L44.9142 22.1305L19.4681 18.0729L19.1531 20.0479ZM42.3476 41.5912L45.7399 23.3003L43.7735 22.9356L40.3811 41.2265L42.3476 41.5912ZM40.4476 41.0093L31.9102 60.6007L33.7437 61.3997L42.2811 41.8083L40.4476 41.0093ZM33.657 60.4424L23.3903 45.1669L21.7304 46.2825L31.997 61.558L33.657 60.4424ZM2.7521 60.0335L23.1123 46.5586L22.0085 44.8908L1.64829 58.3657L2.7521 60.0335ZM5.80114 39.5901L22.1646 46.643L22.9562 44.8064L6.59277 37.7535L5.80114 39.5901Z" fill="black"/>
<path d="M60.7535 119.212C61.078 119.659 60.9788 120.285 60.5319 120.609C60.085 120.933 59.4596 120.834 59.1351 120.387L60.7535 119.212ZM61.0002 88.6395L61.3795 87.7142C61.7259 87.8562 61.964 88.1798 61.9964 88.5528C62.0289 88.9258 61.8503 89.2857 61.5336 89.4854L61.0002 88.6395ZM19.3106 102.94L19.4681 103.927C19.158 103.977 18.8427 103.877 18.6166 103.66C18.3905 103.442 18.2799 103.13 18.3179 102.819L19.3106 102.94ZM32.827 60.9998L31.997 60.442C32.2008 60.1389 32.5535 59.9709 32.9173 60.0039C33.281 60.0369 33.5978 60.2655 33.7437 60.6003L32.827 60.9998ZM59.1351 120.387L43.9475 99.4695L45.5659 98.2945L60.7535 119.212L59.1351 120.387ZM45.6709 99.2873L38.51 115.442L36.6816 114.631L43.8425 98.4768L45.6709 99.2873ZM44.2233 98.0361L60.4668 87.7936L61.5336 89.4854L45.2901 99.7279L44.2233 98.0361ZM60.6209 89.5648L40.9851 81.5165L41.7436 79.6659L61.3795 87.7142L60.6209 89.5648ZM41.1406 81.5658L22.3367 77.2499L22.7841 75.3006L41.588 79.6165L41.1406 81.5658ZM23.553 76.3963L20.3032 103.061L18.3179 102.819L21.5677 76.1543L23.553 76.3963ZM19.1531 101.952L44.5992 97.8945L44.9142 99.8695L19.4681 103.927L19.1531 101.952ZM42.3476 80.4088L45.7399 98.6997L43.7735 99.0644L40.3811 80.7735L42.3476 80.4088ZM40.4476 80.9907L31.9102 61.3993L33.7437 60.6003L42.2811 80.1917L40.4476 80.9907ZM33.657 61.5576L23.3903 76.8331L21.7304 75.7175L31.997 60.442L33.657 61.5576ZM2.7521 61.9665L23.1123 75.4414L22.0085 77.1092L1.64829 63.6343L2.7521 61.9665ZM5.80114 82.4099L22.1646 75.357L22.9562 77.1936L6.59277 84.2465L5.80114 82.4099Z" fill="black"/>
<path d="M61.2465 2.78772C60.922 2.34081 61.0212 1.71547 61.4681 1.39099C61.915 1.0665 62.5404 1.16575 62.8649 1.61266L61.2465 2.78772ZM60.9998 33.3605L60.6205 34.2858C60.2741 34.1438 60.036 33.8201 60.0036 33.4472C59.9711 33.0742 60.1497 32.7143 60.4664 32.5146L60.9998 33.3605ZM102.689 19.0604L102.532 18.0729C102.842 18.0234 103.157 18.1225 103.383 18.3404C103.609 18.5583 103.72 18.8697 103.682 19.1814L102.689 19.0604ZM89.173 61.0002L90.003 61.558C89.7992 61.8611 89.4465 62.0291 89.0827 61.9961C88.719 61.9631 88.4022 61.7345 88.2563 61.3997L89.173 61.0002ZM62.8649 1.61266L78.0525 22.5305L76.4341 23.7055L61.2465 2.78772L62.8649 1.61266ZM76.3291 22.7127L83.49 6.55841L85.3184 7.36891L78.1575 23.5232L76.3291 22.7127ZM77.7767 23.9639L61.5332 34.2063L60.4664 32.5146L76.7099 22.2721L77.7767 23.9639ZM61.3791 32.4352L81.0149 40.4835L80.2564 42.3341L60.6205 34.2858L61.3791 32.4352ZM80.8594 40.4342L99.6633 44.7501L99.2159 46.6994L80.412 42.3835L80.8594 40.4342ZM98.447 45.6037L101.697 18.9394L103.682 19.1814L100.432 45.8457L98.447 45.6037ZM102.847 20.0479L77.4008 24.1055L77.0858 22.1305L102.532 18.0729L102.847 20.0479ZM79.6524 41.5912L76.2601 23.3003L78.2265 22.9356L81.6189 41.2265L79.6524 41.5912ZM81.5524 41.0093L90.0897 60.6007L88.2563 61.3997L79.7189 41.8083L81.5524 41.0093ZM88.343 60.4424L98.6097 45.1669L100.27 46.2825L90.003 61.558L88.343 60.4424ZM119.248 60.0335L98.8877 46.5586L99.9915 44.8908L120.352 58.3657L119.248 60.0335ZM116.199 39.5901L99.8354 46.643L99.0438 44.8064L115.407 37.7535L116.199 39.5901Z" fill="black"/>
<path d="M61.2465 119.212C60.922 119.659 61.0212 120.285 61.4681 120.609C61.915 120.933 62.5404 120.834 62.8649 120.387L61.2465 119.212ZM60.9998 88.6395L60.6205 87.7142C60.2741 87.8562 60.036 88.1798 60.0036 88.5528C59.9711 88.9258 60.1497 89.2857 60.4664 89.4854L60.9998 88.6395ZM102.689 102.94L102.532 103.927C102.842 103.977 103.157 103.877 103.383 103.66C103.609 103.442 103.72 103.13 103.682 102.819L102.689 102.94ZM89.173 60.9998L90.003 60.442C89.7993 60.1389 89.4465 59.9709 89.0827 60.0039C88.719 60.0369 88.4022 60.2655 88.2563 60.6003L89.173 60.9998ZM62.8649 120.387L78.0525 99.4695L76.4341 98.2945L61.2465 119.212L62.8649 120.387ZM76.3291 99.2873L83.49 115.442L85.3184 114.631L78.1575 98.4768L76.3291 99.2873ZM77.7767 98.0361L61.5332 87.7936L60.4664 89.4854L76.7099 99.7279L77.7767 98.0361ZM61.3791 89.5648L81.0149 81.5165L80.2564 79.6659L60.6205 87.7142L61.3791 89.5648ZM80.8594 81.5658L99.6633 77.2499L99.2159 75.3006L80.412 79.6165L80.8594 81.5658ZM98.447 76.3963L101.697 103.061L103.682 102.819L100.432 76.1543L98.447 76.3963ZM102.847 101.952L77.4008 97.8945L77.0858 99.8695L102.532 103.927L102.847 101.952ZM79.6524 80.4088L76.2601 98.6997L78.2265 99.0644L81.6189 80.7735L79.6524 80.4088ZM81.5524 80.9907L90.0898 61.3993L88.2563 60.6003L79.7189 80.1917L81.5524 80.9907ZM88.3431 61.5576L98.6097 76.8331L100.27 75.7175L90.003 60.442L88.3431 61.5576ZM119.248 61.9665L98.8877 75.4414L99.9915 77.1092L120.352 63.6343L119.248 61.9665ZM116.199 82.4099L99.8355 75.357L99.0438 77.1936L115.407 84.2465L116.199 82.4099Z" fill="black"/>
<path d="M60.9455 119.918C93.4778 119.918 119.85 93.5457 119.85 61.0134C119.85 28.4811 93.4778 2.1084 60.9455 2.1084C28.4132 2.1084 2.04053 28.4811 2.04053 61.0134C2.04053 93.5457 28.4132 119.918 60.9455 119.918Z" stroke="black" stroke-width="3"/>
</svg>
