<svg xmlns="http://www.w3.org/2000/svg" viewBox="0 0 80 80"><defs><style>.a{fill:#a8996e;fill-rule:evenodd;}</style></defs><path class="a" d="M52.71664,22.252l1.74493-.93294-.5206-.36376-1.13931.67649.23153-1.30979-.5206-.36245-.27076,1.9601-.70242,1.00622.47482.33235Zm-9.40617-3.80924.41345.07214.37138,1.27562.66824.11542-.43868-1.385a.88322.88322,0,0,0,.22234-.06973.79337.79337,0,0,0,.20072-.13706.76868.76868,0,0,0,.15624-.20078.88965.88965,0,0,0,.09255-.27292.96213.96213,0,0,0-.00481-.36189.839.839,0,0,0-.13821-.3186.94578.94578,0,0,0-.268-.24647,1.07212,1.07212,0,0,0-.3894-.14187l-1.155-.19958-.50839,2.948.5745.09859ZM43.528,17.184l.542.095a.43442.43442,0,0,1,.28605.1587.4131.4131,0,0,1-.09856.56508.42927.42927,0,0,1-.3221.0541l-.54325-.09378Zm13.14807,6.78345-1.43753-.07982L55.16006,25.327l1.43623.07851ZM19.42179,38.294l-.518-.01832L18.858,39.66132l-.72466-.02355.03794-1.17894-.5206-.017-.03794,1.17894-.6998-.02225.04317-1.38437-.51929-.017-.0641,1.968,2.98756.09552ZM42.40406,50.95609l-.26554.7092h4.46827l-.15043-.7092Zm6.70109-29.44858L50.166,19.27787l.705.335.22368-.46975-1.93852-.92247-.22367.46974.70633.33628-1.06081,2.231Zm3.09351,35.15616.32832.403,1.0739-.87407.45651.56134-.91171.74714.32832.40432.91432-.74583.44212.54171-1.07259.87668.327.403L55.61,57.73662l-1.8862-2.316Zm6.29167-25.84111.26292.615,1.18378.123-.73382.9421.26161.61368L60.51256,31.66l1.68083.23029-.25768-.60713-1.09352-.106.6841-.85705-.25768-.61237-1.00327,1.3726Zm-4.31166-1.24814-.02524-.12985H25.74452l-.02283.13225a35.73622,35.73622,0,0,0,.33051,11.85092C27.23486,47.23718,30.60253,54.91136,39.94,58.47733l.05649.02284.05889-.024C49.52258,54.7767,52.8578,47.10973,53.99,41.32915A34.50979,34.50979,0,0,0,54.17867,29.57442ZM43.26918,40.64265c.05408.03606.12379.03606.13461.09858.00961.06012.09495.14548.1298.22363.02284.04929.06851.06973.05048.1046a.44566.44566,0,0,1-.14543.12624c-.02163.00481-.0637-.04208-.14783-.02044-.07331.02044-.24518.0036-.28364.04929a.56654.56654,0,0,1-.20673.07935c-.05048-.21881-.10216-.44124-.15865-.67087.19711-.02525.39062-.0493.58412-.07094A.18817.18817,0,0,0,43.26918,40.64265Zm-10.24726.24646c-.00961.21882-.40864.321-.226.4725.16225.13586.04207.2609-.09735.41238H31.897c-.012-.22242-.02043-.44484-.02283-.66245.35575-.1575.73074-.3126,1.12015-.46288C33.0051,40.72079,33.02313,40.85184,33.02192,40.88911Zm16.1485.14668c.01322.07935.09856.16472.11418.26811a.94026.94026,0,0,1-.04567.43282.14949.14949,0,0,0-.012.03727H47.86518c-.02764-.14908-.05889-.29816-.09014-.446q-.0613-.27954-.13341-.56267c.09735.01923.26441.06372.29206.12744.02283.0505-.03366.12384.006.14788.04448.02645.08894.0529.13822.07935.04688.02765-.006.09378.05168.119.07933.03486.07572-.0012.15144.0517.161.11542.1911-.16351.22956-.18516.107-.06131.18509.06493.30768.06373.07572-.00121.18629-.18155.28485-.2609a.11887.11887,0,0,1,.09375-.03727C49.2209,40.87709,49.156,40.96125,49.17042,41.03579Zm-13.61012.18275c-.09495-.0541-.28485.0012-.38941-.02044-.00721-.0012-.20793-.10219-.28485-.14788-.02043-.01323-.0012-.03126.01443-.03847.02884-.01323.06249-.03848.07331-.04088.018-.00481-.03485-.09979-.0661-.12143a.34892.34892,0,0,1-.07452-.09979c-.03005-.04449-.06851-.09979-.07091-.1022-.0613-.11782.00481-.19477-.16706-.208-.03846-.0024-.22.29576-.35336.303-.01923-.17914-.03725-.35588-.05047-.529,1.0216-.339,1.33769-.43162,2.21627-.67929.09615.62038.21153,1.2636.34013,1.91764-.33052.09138-.65623.18515-.98073.28254a.65126.65126,0,0,0,.05889-.17072C35.82471,41.48665,35.594,41.24018,35.5603,41.21854ZM30.74556,39.9862c0,.018-.07091.012-.09615.012a.05.05,0,0,0-.05048.03246.39342.39342,0,0,0-.0012.12143,1.08627,1.08627,0,0,1-.18389.31019.37886.37886,0,0,1-.1923.00481c.03846-.20318.08172-.40276.131-.59874.09014-.0529.18389-.1058.27884-.1587A.22852.22852,0,0,1,30.74556,39.9862Zm-.268-.56748q.13881-.45085.31609-.87286c.07212.08176.20072.16351.17307.28855-.02283.10219-.10937.15509-.137.25248a.68734.68734,0,0,1-.07932.184C30.65782,39.32013,30.56648,39.36943,30.47754,39.41872Zm1.37375-1.65314c-.08654.06132-.03125.09618-.17307.16591-.018.00842-.21033.25609-.17187.32582.03846.07094-.09375.3655-.01442.41.07812.04449-.04928.14909-.04928.16832a.26576.26576,0,0,1-.22716-.07213c-.10456-.16592.04087-.333.02044-.38474a.43124.43124,0,0,0-.27644-.19958c.03366-.07093.06851-.14066.10457-.2104.30768-.18274.65382-.36429,1.03241-.54463-.03846.10821-.07571.21882-.11057.33063A.132.132,0,0,0,31.85129,37.76558Zm.661-.53141c.405-.17914.85213-.35708,1.32687-.53261.04688-.01563.09255-.03246.13822-.0493a10.49441,10.49441,0,0,0-.16706,1.31049c-.0649.02285-.1286.04689-.19471.06974-.06129-.05411-.07211-.16712-.09975-.20079-.04928-.06011-.13822-.02524-.17428-.04087-.04326-.02044-.04206-.09138-.09494-.09138a1.02536,1.02536,0,0,1-.28725-.1046,1.64862,1.64862,0,0,0-.38461-.184.325.325,0,0,0-.14422.04689C32.45464,37.38926,32.48228,37.31592,32.51233,37.23417Zm-.01563,3.24016c-.04447.01683-.08894.03486-.13221.0529.00121-.17193.03726-.11061.0625-.22724.00721-.03246-.15023-.07814-.1911-.1094a.30937.30937,0,0,1-.0625-.42922c.04928-.05771.39663-.3691.29086-.41479-.21153-.09378.17187-.50616.30287-.45446.12981.0529.28125-.25609.43148-.208.15144.0481.09735.05892.13461.17313.02164.06974-.02524.1575-.03485.22-.01322.07094-.13341.095-.10336.2116.03.11542-.30889.5254-.34495.54584-.0697.03968-.07692.29937.08293.22483.13462-.06132.19952.11782.22476.15629C32.933,40.3012,32.71184,40.38656,32.4967,40.47433Zm2.50953-3.92546c.01082.05771.05168.12383.05769.16712.00481.04809.06611.09137.08053.08536l.0613-.02525c.07812-.03246.09615.03246.17787.02525a.28037.28037,0,0,1,.10216.03847c.05169.02645.03486.10941.006.14548-.03.03607-.05649.07093-.08293.07574-.18509.03366-.37018-.07454-.30888.27292a.36345.36345,0,0,0,.08293.18275c-.32451.09738-.59373.18635-1.01439.32461a9.63439,9.63439,0,0,1,.18148-1.3177c.31129-.1034.53965-.17794.74277-.24166A.44233.44233,0,0,0,35.00623,36.54887Zm13.657,3.38563a.39438.39438,0,0,0-.375.13826c-.21273-.01923-.43268-.03607-.661-.04689a.04744.04744,0,0,1,.006-.01683c.08173-.2128-.0024-.45687.09135-.6829.02283-.0565.13461-.1623.21634-.14667.03485.006.05288.089.11538.12143a.20907.20907,0,0,1,.05769.11542c.006.02284.07091-.01323.11538.006.0661.02885.16105.089.20792.0529a1.5871,1.5871,0,0,1,.24639-.16832l.01563-.00481c.08413.19838.16225.39916.23677.60355A1.35193,1.35193,0,0,1,48.66323,39.9345Zm-2.36651,1.12774c.00241-.02044.0613.01924.1286-.0012.02885-.00962.03726-.09017.03846-.09017-.05889-.03968-.23677-.07094-.37258-.12744-.03245-.01443-.01562-.06613-.05048-.07695-.14422-.04929-.28485-.06132-.33172-.11542-.07812-.09257-.05769-.22843.05889-.23324a3.18886,3.18886,0,0,1,.48436.13225,2.0365,2.0365,0,0,1,.2572,0c.03847.04328.02524.25969.09135.27412.11538.02765.1286.13225.1959.21761.03125.04088.09976.02525.15264.07695a1.94513,1.94513,0,0,1,.20072.29336.23069.23069,0,0,0,.30047.0553c.02163.101.04327.20319.0625.30658H46.2823a.28.28,0,0,1-.02284-.14307c.00842-.02044.04447-.02765.05289-.0541a1.11545,1.11545,0,0,0,.09374-.22242C46.4133,41.28707,46.28831,41.12356,46.29672,41.06224Zm-2.20065-2.68831c.17067.23445.15505.22964-.0685.34987-.08534.04448-.3137.17794-.30889.30177.00361.1022.11658.16231-.02884.2104-.0589.01924-.27283.21281-.32571.09017-.03846-.08656.04327-.20679-.00721-.28975-.02164-.03847-.09976-.04448-.14543-.02164-.018.00962-.03486-.01322-.04447-.03967-.07933-.202-.52883-.36069-.65623-.47491a.136.136,0,0,1-.02524-.15028c.64421-.07334.96271-.09859,1.63456-.15029a.2218.2218,0,0,0,.01082.03006C44.14175,38.28857,44.06362,38.32705,44.09607,38.37393Zm-5.05151.52781c.143.59513.29086,1.23234.44109,1.8972-.80045.16351-1.59971.35107-2.38213.55786-.13341-.68049-.24879-1.32491-.34134-1.92C37.51937,39.236,38.28617,39.05683,39.04456,38.90174Zm-.393-4.24527a.47626.47626,0,0,0,.03246-.12263c.00961-.05891-.09495-.14668-.11539-.18636a.26447.26447,0,0,0-.10336-.07093c.357-.06492.71031-.12143,1.05405-.16832a5.50716,5.50716,0,0,1,.542.72257c-.47835.06853-.96631.15029-1.45548.24407A.43975.43975,0,0,1,38.65154,34.65647Zm5.85317,1.32372a.5577.5577,0,0,0,.07092-.33785c-.00241-.01082.03485-.0529.0661-.09017q.18748.20559.36537.428v.0012c-.13221-.0012-.24639-.00241-.34975-.00241C44.60447,35.979,44.554,35.979,44.50471,35.98019Zm-1.25236.69612c-.01442.0541-.13942.12864-.17547.23565-.08414.24767.21634.50977.1947.5266a.03315.03315,0,0,0-.0024.03246.75353.75353,0,0,0,.12379.19116.23227.23227,0,0,0,.14543.06613.09861.09861,0,0,0,.04086-.01443.1083.1083,0,0,1,.04688-.0024.14842.14842,0,0,0,.10576-.02886.83863.83863,0,0,0,.1226-.101c.04326.09258.08413.18635.125.28254-.76079.0565-1.10333.09017-1.685.1599a.56694.56694,0,0,0-.11418-.1587c-.02283-.024-.21634.08656-.29205.1599-.17909-.5266-.36778-1.02314-.56128-1.48121.65021-.083,1.28721-.14548,1.89777-.184l.06129.1046C43.19947,36.57892,43.27759,36.57892,43.25235,36.67631Zm-6.55747,2.22182c.13581-.024.15023.06372.27884-.16471.05528-.09739.0048-.17674.024-.3126.01322-.09979.17788-.517.07332-.59873-.12019-.09378.24278-.30418.33412-.29216.07332.00962.07933-.04569.09735-.089.00361-.00721.02524-.13586.04447-.2116q.51923-.12083,1.02882-.226c.12139.4713.25239.99549.38941,1.56177-1.05646.22362-1.35332.297-2.25594.5278-.01082-.06372-.01923-.12744-.02764-.19116Zm2.07805-3.23174c-.01322-.02164.03846-.11662.00481-.13946a.65817.65817,0,0,1-.119-.13346c.53243-.101,1.06486-.19,1.58648-.2633a12.738,12.738,0,0,1,.58171,1.14217c-.66464.09378-1.33048.20679-1.98551.33544q-.08473-.31921-.17067-.624C38.75971,35.8828,38.83784,35.77339,38.77293,35.66639ZM43.03,36.0403c-.79564.06012-1.07809.09258-1.84128.18515-.1911-.422-.3846-.80433-.57811-1.14217.56128-.06973,1.09612-.12143,1.5949-.15269A8.66787,8.66787,0,0,1,43.03,36.0403ZM42.34733,34.6a6.33341,6.33341,0,0,0-.74516-.67929c.31849-.012.62618-.01322.91583-.00481a6.514,6.514,0,0,1,1.05525.65164C43.18264,34.5651,42.7716,34.57592,42.34733,34.6Zm-.42306.02766c-.49037.03727-.99155.089-1.49634.15389a6.54817,6.54817,0,0,0-.51922-.72257c.50239-.06012.69469-.07575,1.19347-.113A5.35575,5.35575,0,0,1,41.92427,34.62762Zm-3.43258,2.04989c-.238.0493-.47594.101-.71151.1551l.00481-.012a.92668.92668,0,0,1,.59252-.56988C38.41477,36.38776,38.452,36.52963,38.49169,36.67751Zm1.06848.13947a1.35243,1.35243,0,0,1-.21995.19837c-.02644.01563-.14783.25489-.09735.32823.05048.07093.08774.16351.16346.20679-.03486.04448.24037-.15029.22475-.06733-.03365.16592.22715-.06372.24158-.07214.15384-.13826.3233-.34385.47354-.47369.05168-.04329-.07211-.14909-.20192-.22.23918-.03727.48316-.07454.82209-.12384.19831.4701.39181.98107.5745,1.5257-.72594.101-1.4711.226-2.21868.37271-.1334-.54343-.26441-1.06643-.39421-1.557C39.178,36.88671,39.38109,36.84944,39.56017,36.817Zm5.32314.62158c.07692-.09017-.0637-.18876-.08534-.24527-.01923-.0529.20793-.315.11659-.39675-.02885-.02645-.30769-.16351-.30889-.18275a2.66416,2.66416,0,0,0-.05168-.303c.20913-.00241.375,0,.58772.0036a1.01686,1.01686,0,0,1-.02163.14548c-.03486.15389.25359.16832.268.16591a.51891.51891,0,0,1,.08653-.01082c.07572.11182.15024.226.22355.34386-.113.03606-.1959.36429-.1947.452.006.37752.1274.13226.14062.2585a.229.229,0,0,1-.0613.131c-.30768.0024-.62257.01082-.94227.02524.03245-.20078.31128-.09979.33172-.28253C44.97465,37.52152,44.82562,37.50829,44.88331,37.43856Zm1.423-1.05921a.1947.1947,0,0,1,.02764.01322,1.38721,1.38721,0,0,1,.16826.45807c-.024.08176-.30047.03366-.44589.05531-.09015-.14548-.18029-.28615-.274-.42441l.04207-.03246a.59152.59152,0,0,1,.23918-.09138C46.14649,36.36372,46.227,36.37093,46.30634,36.37935Zm-1.02761-.57951q-.20373-.25248-.41946-.48452c.125-.11662.40383-.24286.48676-.13105C45.43617,35.30571,45.27272,35.6688,45.27873,35.79984Zm-1.5276-.755c.01322.01924.00481.13586.02164.17674.08413.19236-.04447.07093-.09255.32221-.04687.24887.12139.113-.08894.327a.46359.46359,0,0,0-.08173.13946c-.03.00121-.06129.00241-.09374.00481a9.46064,9.46064,0,0,0-.79445-1.1061c.54446-.02284.75839-.024,1.19588-.018C43.8545,34.95945,43.768,34.9895,43.75113,35.04481Zm-2.56482-1.41148c-.131-.07815-.26441-.15029-.39662-.21281.05649,0,.113.00121.16466.00241a5.2029,5.2029,0,0,1,.80767.18876C41.59135,33.61529,41.42068,33.62371,41.18631,33.63333ZM39.6467,33.78a4.20167,4.20167,0,0,0-.33172-.28374c.21754-.02285.42787-.04208.631-.05411a3.09319,3.09319,0,0,1,.67426.23205C40.30654,33.70066,39.98083,33.73552,39.6467,33.78Zm2.00474,4.67328c.05048.15629.09976.3162.149.4773a.70835.70835,0,0,1-.08894.03487c-.06851.00962-.03486.24046-.03846.24767a.3004.3004,0,0,0,.018.19c.02043.06853.10216.01323.12139.04569.05889.09618-.15144.35347.03245.36429a.42191.42191,0,0,0,.18869-.07454c.05289.196.10577.39315.15865.59393-.78242.1082-1.56846.24045-2.34487.39434-.16947-.74421-.31129-1.35377-.4435-1.896C40.14789,38.68412,40.90267,38.55668,41.65144,38.45329Zm.90262,1.82987c-.08654-.33423-.17428-.65885-.26562-.97385.34134-.119.21634.28013.363.1587.02524-.02044.1899.08777.006.16592-.11778.05049.03365.14307.07452.17192.119.08056.26681-.46287.56729-.21039.02764.02284.0012.0565-.02524.089-.02765.03367-.01323.05531-.06611.08657a.4288.4288,0,0,1-.13221.06973c-.02764.006.01924.14307.02284.15149.02163.06973-.15023.184-.25119.25609C42.74876,40.25912,42.65141,40.27114,42.55406,40.28316ZM45.44819,41.364c-.04206-.19357-.08774-.38474-.13341-.57349a.50067.50067,0,0,0,.32932.19958,1.71756,1.71756,0,0,1,.17307.024c.0637.012.119.083.18629.11061a.47989.47989,0,0,1,.18149.208c.012.02645.03365.184-.03486.22122a.64141.64141,0,0,1-.27283.04087.12061.12061,0,0,0-.11417.12985.25819.25819,0,0,1-.00361.04929h-.22475C45.50708,41.63693,45.47824,41.49987,45.44819,41.364Zm3.6393-1.97656c.23076.03968.74517.00721.91343.40156.14663.34386-.4519.15029-.71031.13706Q49.19326,39.652,49.08749,39.38746Zm-4.82435-5.04c-.01683.01083-.17788-.05771-.22476-.01923.00481.02284-.02764.1046-.01923.113.012.012-.01442.01082-.05889.04329a7.97038,7.97038,0,0,0-.74276-.5242c.17427.01683.34013.03847.49277.06492.18148.07575.35936.1587.536.24888C44.27035,34.30661,44.28116,34.33426,44.26314,34.34748Zm-5.44213-.7911a1.74927,1.74927,0,0,1,.42186.27893c-.2524.03727-.50719.07935-.762.125a.04023.04023,0,0,1-.02765-.02284.11034.11034,0,0,0-.07692-.03607c-.07211-.00361-.17307.02044-.22235.00962-.05408-.012-.03846-.03247-.02523-.06252.02523-.05892.17787-.00241.19831-.16592a.27192.27192,0,0,1,.00841-.0517C38.4977,33.60327,38.66,33.57922,38.821,33.55638Zm-2.46626,5.6315c-1.04684.29456-1.3389.38834-2.18743.66847-.00481-.07815-.00962-.15629-.01322-.23324a.23462.23462,0,0,0,.18268-.28494,1.3553,1.3553,0,0,1,.07332-.26691c.16946-.02645.08053-.38473.17427-.45446.09375-.06853-.01442-.25128-.09014-.22483a.25833.25833,0,0,0-.14062.12263c-.02524.0529-.12379.03126-.11778-.0024a.18562.18562,0,0,0-.09375-.14548c.0024-.0553.0036-.11181.006-.16712.62378-.20679.9591-.31259,1.34971-.42681a.62171.62171,0,0,0-.03846.36309c.01923.06132.08894.03848.1238.095.02764.04449-.00241.17193.024.20559.04447.05892.12861.15991.13462.16712.07571.08536.12739.24527.1971.25609a.18771.18771,0,0,1,.12861.05771c.018.02765.12259.02885.14062.05049.04687.05651.08653.07334.125.06974Zm-1.01319-3.32071-.0012.0012c-.30889.09138-.542.16712-.90382.28735.02885-.1046.05889-.20439.09014-.30177A.70554.70554,0,0,1,35.34156,35.86717Zm-1.86653.06372c.11659-.0036.24639.17313.30769.17674.07211.0024.232-.14307.37138-.16351-.03366.11061-.06611.22242-.09495.339l-.0637.02164c-.07933.02886-.15865.05651-.23918.08537-.3858.14187-.73435.28013-1.05765.41719a5.8741,5.8741,0,0,1,.60094-1.00752c.02283-.00961.04687-.01923.06971-.03005C33.3897,35.84914,33.41374,35.9333,33.475,35.93089Zm-1.33529.45928q.283-.16773.61416-.33183a5.81654,5.81654,0,0,0-.34373.62158.382.382,0,0,0-.17428-.1058,1.1808,1.1808,0,0,1-.18869-.07575C32.07845,36.4623,32.10849,36.425,32.13974,36.39017Zm-.37258.50976c.02524-.02284.43027-.06131.45671-.01442a.11471.11471,0,0,0,.07091.04328c-.00961.02284-.02043.04569-.03124.06853-.3197.14548-.62378.29336-.90382.44364q.16226-.26149.34133-.50616A.29387.29387,0,0,0,31.76716,36.89993ZM30.034,38.68773a5.797,5.797,0,0,1,.54085-.41,9.27835,9.27835,0,0,0-.49277,1.37181c-.11538.07214-.21033.13225-.29086.18395a.2224.2224,0,0,0-.00841-.17313,1.06551,1.06551,0,0,1-.12379-.25248C29.74559,39.22635,29.86217,38.99792,30.034,38.68773Zm1.49635,2.5789c.0024.16712.00841.33664.018.50736h-.58051a.60067.60067,0,0,1-.05649-.21039C31.10973,41.46381,31.31525,41.36522,31.53039,41.26663Zm5.65726.50736-.01442-.06612c.786-.20679,1.58768-.39555,2.39175-.56027.04446.2056.09134.41479.13821.62639Zm2.89293,0c-.03966-.17914-.07932-.35707-.11778-.5302l-.03726-.16712c1.11054-.2104,1.43505-.25969,2.35329-.39435.07571.309.15143.63962.232,1.00511.006.02765.01322.05771.01923.08656Zm3.8941-.07333c.08293-.06733.0637-.1575.1286-.25609.05048-.07574.1863-.15029.1851-.20439,0-.03487-.07452-.125-.07693-.19838-.0024-.06131.0613-.11061.09856-.13465.10336-.06493.2572.03006.3173-.02645.10095-.09138.15624-.27533.2572-.33905.07572.28855.14663.58552.21273.88729.02524.11542.04808.22964.07212.34505H43.92661A.12267.12267,0,0,1,43.97468,41.70066ZM39.09384,56.26633A18.2374,18.2374,0,0,1,28.17713,43.56059H39.09384Zm1.78479-.00962V43.56059H51.69558A19.77552,19.77552,0,0,1,40.87863,56.25671ZM52.16071,41.774h-.03606a12.7213,12.7213,0,0,0-24.35255,0h-.01923l-.01082-.05169a37.85,37.85,0,0,1-.49277-10.57049h25.421A33.37593,33.37593,0,0,1,52.16071,41.774Zm9.7034-8.24394a2.22946,2.22946,0,0,0-.31369.04689c-.10817.02405-.226.0529-.34975.083-.1262.03006-.24158.06131-.34975.09137a2.127,2.127,0,0,0-.29927.1034,1.07236,1.07236,0,0,0-.24518.15028.90289.90289,0,0,0-.1935.22724,1.095,1.095,0,0,0-.149.40637,1.13518,1.13518,0,0,0,.02644.45446,1.27959,1.27959,0,0,0,.15024.3655.96417.96417,0,0,0,.25239.27772,1.008,1.008,0,0,0,.34495.16472,1.22724,1.22724,0,0,0,.43147.03366l-.14062-.57469a.663.663,0,0,1-.33292-.08657.44868.44868,0,0,1-.20071-.30057.53188.53188,0,0,1-.01082-.22.44532.44532,0,0,1,.07211-.18034.474.474,0,0,1,.08293-.09378.52076.52076,0,0,1,.13341-.08055,1.57111,1.57111,0,0,1,.22235-.07935c.09254-.02765.20552-.05771.34494-.09258.13822-.03366.2548-.06011.34855-.07935a1.86919,1.86919,0,0,1,.23316-.03486.5626.5626,0,0,1,.15624.00962.50664.50664,0,0,1,.11659.04448.42886.42886,0,0,1,.14663.12624.5121.5121,0,0,1,.09375.19958.44859.44859,0,0,1-.03726.35948.64262.64262,0,0,1-.2536.232l.143.5759a1.23075,1.23075,0,0,0,.36538-.23325,1.01539,1.01539,0,0,0,.22955-.30658.97661.97661,0,0,0,.09375-.36189,1.24063,1.24063,0,0,0-.03726-.39435,1.08831,1.08831,0,0,0-.5108-.70453.88.88,0,0,0-.27643-.11182,1.08492,1.08492,0,0,0-.28725-.01683M57.853,54.6305a1.11588,1.11588,0,0,0-.14784-.24767,2.11408,2.11408,0,0,0-.21634-.22963c-.08052-.07695-.16946-.1575-.26681-.24287-.09615-.08536-.1875-.16471-.27283-.23685a2.155,2.155,0,0,0-.2548-.18755,1.1142,1.1142,0,0,0-.262-.119.90336.90336,0,0,0-.29566-.02885,1.13023,1.13023,0,0,0-.42066.1058,1.15926,1.15926,0,0,0-.35816.27893,1.2537,1.2537,0,0,0-.21634.33063,1.0014,1.0014,0,0,0-.08534.36429,1.01614,1.01614,0,0,0,.0601.37872,1.2195,1.2195,0,0,0,.21634.37631l.393-.44244a.66372.66372,0,0,1-.11778-.32461.45028.45028,0,0,1,.13461-.33424.54511.54511,0,0,1,.17548-.13345.43338.43338,0,0,1,.18869-.04208.44383.44383,0,0,1,.125.01442.54524.54524,0,0,1,.14062.06493,1.76071,1.76071,0,0,1,.1923.13826c.07331.06011.16345.13826.27042.23324.10577.09378.19351.17434.262.24046a1.74727,1.74727,0,0,1,.16106.17433.57321.57321,0,0,1,.08052.13225.49157.49157,0,0,1,.02885.12264.44382.44382,0,0,1-.02044.19236.51593.51593,0,0,1-.11057.19.45493.45493,0,0,1-.3173.17313.67493.67493,0,0,1-.33412-.07815l-.393.44244a1.24841,1.24841,0,0,0,.39783.17073,1.03,1.03,0,0,0,.3822.01442.97743.97743,0,0,0,.35094-.12623,1.30933,1.30933,0,0,0,.30528-.25489,1.14228,1.14228,0,0,0,.23317-.38834,1.12165,1.12165,0,0,0,.05649-.43041.85346.85346,0,0,0-.0649-.291m.54582-25.06277-.743-1.16978.61347-.38993.63179.99575.4395-.2787-.63178-.99706L59.3,27.35379l.743,1.16977.4395-.28-1.0569-1.66177-2.5219,1.60289,1.05559,1.66176Zm-9.427,31.31316,1.3839.38992.3911-1.38567-1.3839-.39124ZM47.525,17.62918l-.55593-.17926-.91693,2.84594.55592.17795Zm-22.9862,7.69908-.02746-1.43932-1.44016.02878.03009,1.43933Zm3.36428-2.0229-1.78678-2.39844-.467.34936,1.78678,2.39713Zm1.7567-1.14885-.87769-1.61335,1.91758,1.04678.45651-.24861-1.42707-2.62742-.51275.27871.87508,1.60942-1.915-1.04285-.45781.24861,1.42707,2.62611Zm-6.79,6.32126-.446-.26955-.71549,1.18548-.62132-.37423.60954-1.00883-.44473-.26955-.60955,1.01015-.6017-.36245L20.756,27.202l-.446-.26955L19.2936,28.61908l2.55853,1.544ZM71.12757,42.55485C72.62632,42.06913,76,41.00751,76,41.00751l-4.77268-1.88157s3.21143-1.44515,4.66812-2.10279L70.9557,35.69823c1.3425-.85723,4.40971-2.56688,4.40971-2.56688l-5.06594-.83318,4.04314-3.067-5.07195-.21882,3.72463-3.49985-5.09358.34386c1.02641-1.18546,2.25714-2.68951,3.31359-3.86054l-5.02747.87406,2.84485-4.22843-4.87483,1.45837c.69949-1.41509,2.34848-4.53742,2.34848-4.53742L62.0185,17.32011l1.63456-4.50977-4.41933,2.46108c.399-1.52811.96271-3.36159,1.34611-4.90532L56.4033,13.32973s.53484-3.52871.77641-5.04359l-3.81717,3.38443.2572-5.10009-.2572.30058c-1.05406,1.15779-2.08407,2.443-3.18259,3.48542l-.30047-5.03277L46.894,9.44394c-.27042-1.55816-.62137-3.39885-.8341-4.98467L43.49508,8.856,42.06964,4.01082l-1.99993,4.6324L38.11665,4,36.64194,8.856,34.18048,4.422l-.92184,4.97746L30.32845,5.266l-.39782,5.06281L26.57016,6.54163l.17548,5.08686-3.79435-3.3688.73916,5.01233-4.09-2.98407,1.24876,4.94018s-3.01072-1.73369-4.38207-2.51878L18.276,17.48121l-4.67653-1.98256L15.90705,20l-4.84238-1.468,2.83043,4.2104-5.00584-.921L12.138,25.75654l-5.03589-.41,3.6357,3.56718-5.06113.12984,4.03352,3.1548-5.02508.70093,4.36885,2.65584c-1.50115.45687-3.43138.85723-4.93013,1.29967l4.596,2.098C7.24629,39.56718,4,40.83679,4,40.83679s3.42657,1.03156,4.8532,1.61707L4.30768,44.78149s3.47465.72978,5.01666,1.05921c-1.30044.87045-4.2787,2.82777-4.2787,2.82777l5.108.499c-1.17184,1.02915-3.93857,3.30387-3.93857,3.30387l5.13805-.04568L7.80035,56.12143l5.09358-.63962c-.9567,1.25759-3.1309,4.06493-3.1309,4.06493L14.77969,58.395l-2.67059,4.3679,4.87364-1.69522-2.185,4.606s3.22465-1.63391,4.63686-2.20619l-1.63937,4.87045,4.29794-2.734-1.03723,5.01352L25.03055,67.477l-.49277,5.04238,3.67055-3.685L28.17227,74.009s2.25834-2.87106,3.2571-3.9976c.21634,1.56778.625,5.10851.625,5.10851l2.72347-4.37632,1.09972,5.02195.22235-.398,2.12853-4.28735L39.92669,76l1.77638-4.75383,2.21146,4.54463,1.19588-5.02434s1.90859,3.02614,2.709,4.38232l.64661-5.13736s2.173,2.83379,3.18619,4.06252l.13822-5.00631,3.51671,3.48662-.41224-5.0039L58.79985,70.71c-.31248-1.444-1.04684-5.07124-1.04684-5.07124,1.31246.89931,3.00591,1.93688,4.334,2.79411l-1.58409-4.8945,4.59961,2.26751s-1.54442-3.25338-2.14416-4.66727c1.41462.51458,3.40734,1.21311,4.80753,1.78419.17067.12865-2.51795-4.42561-2.51795-4.42561l4.89047,1.2095-3.01553-4.10219,5.00464.66606L68.58438,52.5254l5.14166.11782-3.91213-3.33393,5.09959-.46288-4.24265-2.8927,5.001-.98226Zm3.55637-1.74331-6.68367-.24286,3.01432-1.19988C72.23931,39.8401,73.45561,40.32462,74.68394,40.81154Zm-7.912,6.37091,2.47348,1.90321-3.15855.22363S66.57243,47.8966,66.77194,47.18245Zm-1.19827-17.9982,3.13811.04689c-.78723.71416-1.524,1.43913-2.38213,2.08236Zm.99515,2.81335,3.10567.46528c-.899.61316-1.631,1.236-2.56,1.7926Zm.84733,12.17072,2.7403,1.71446-3.18379.51458Zm-.131-9.12654,2.99629.77668-2.65255,1.45Zm.41465,6.11241,2.94341,1.37061c-1.01319.32942-2.08647.57229-3.11408.85723Zm-.04207-3.08386,3.05639,1.05561c-.9579.41479-1.98551.82837-2.98548,1.22753ZM74.55534,36.969l-6.65363.51338L70.743,35.96874Zm-.5709-3.74752-6.52622,1.20469,2.62612-1.85633Zm-.91463-3.72107-6.33873,1.94169,2.43982-2.116Zm-1.32688-3.602-6.14042,2.67147,2.197-2.42861S70.44009,25.985,71.74293,25.89841ZM65.26,28.47009l-1.05645-2.02825c1.07087-.11542,3.13331-.30057,3.13331-.30057S65.95947,27.65615,65.26,28.47009Zm4.6561-5.93567L64.0617,25.90923l1.87373-2.67749C67.23467,23.00331,68.63126,22.77848,69.91607,22.53442Zm-6.1272,3.22212-1.27159-1.991,2.99028-.45446Zm4.11284-6.443-5.38443,3.90021,1.64057-2.80012C65.41622,20.04208,66.67219,19.69943,67.90171,19.3135Zm-5.75582,3.90021h-.07211l-1.399-1.74332,3.084-1.0568Zm3.28355-6.85783L60.56061,20.856l1.34851-3.10671Zm-5.26785,4.57228L58.503,19.34235c.9591-.50015,1.97108-.97145,2.98548-1.39946Zm-.85574-5.28524L62.73,13.6856l-4.42653,5.04118Zm-1.34371,3.156L56.1473,17.42831,58.89,15.71506C58.66284,16.69973,58.247,17.75654,57.96214,18.79892Zm-1.44106-5.18545,3.15374-2.25669L55.87687,16.8416Zm-.98674,3.32792c-.643-.327-1.286-.81395-1.95667-1.1566l2.56963-2.02825C55.93216,14.81335,55.73505,15.88458,55.53434,16.94139Zm-2.02878-4.92576,2.91457-2.64382-3.1862,5.85632Zm-3.11048-1.373,2.59848-2.91434-2.54319,6.17253C50.436,12.91494,50.365,11.74271,50.39508,10.64262Zm2.76915,1.50045-.27163,3.257-2.05522-.95822ZM50.05135,10.8434l.05649,3.28464-2.11291-.71415V13.3141Zm-.68508-4.315-1.8569,6.401-.41465-3.257ZM46.79424,9.914l.4447,3.257-2.27276-.4725ZM45.63082,5.82146,44.495,12.24286l-.756-3.08506ZM43.42537,9.37181l.8293,3.18485-2.30041-.24407ZM41.85451,5.25759l-.41466,6.6847L40.274,8.96543Zm-1.792,4.07334s.79324,1.8972,1.137,2.95521l-2.28718-.04328ZM38.01329,5.28644l.34253,6.65585L36.91357,9.05681ZM36.68521,9.37181l1.4711,2.94078-2.2992.24407ZM34.21414,5.7s.71391,4.38593,1.05645,6.58611L33.52906,9.57139Zm-.85695,4.18515,1.7848,2.77127L32.9149,13.171ZM30.47267,6.55726l1.7848,6.37211-2.0408-2.39255ZM30.147,10.98287l2.01195,2.35888c-.68747.27172-1.45548.50015-2.15737.78629Zm-.80285,2.97445-2.32084-2.13646L26.87544,7.7872Zm-.02765.45566-2.09969.95823-.21153-3.13075ZM12.35188,40.226c-1.01438-.34265-2.042-.81395-3.05518-1.19988.99876-.39916,2.06964-.72618,3.11288-1.07A15.23355,15.23355,0,0,0,12.35188,40.226Zm.17187,3.08506-3.15734-.927s1.98671-.92816,2.98547-1.37181Zm-2.95543-7.6838,3.18379-.71536-.27162,2.25669Zm3.05519,8.398.44229,2.27231L9.83755,45.7385Zm-2.399-11.72708c1.07208-.15871,2.185-.22964,3.28355-.34266L12.924,34.18335Zm2.98308,14.7424c.244.68651.45791,1.45718.71632,2.17013L10.66684,49.04Zm.45431-15.72106-2.19464-2.098,3.06841-.13706ZM24.03419,13.80463l2.60448,1.91043-2.06243,1.22633Zm.018,3.49865-1.87614,1.45356-.8918-2.97205Zm-.6346-7.85934L26.575,15.29907l-2.578-1.90682Zm-3.227,2.01263,3.7703,5.48482-2.7475-1.56658Zm-3.01192,2.33,4.35562,5.08447-2.89053-1.29967Zm4.48062,5.42712L19.949,20.856l-1.21751-2.87467Zm-7.22212-2.74362C16.05128,18.02825,17.7219,19.4722,19.336,21.028l-3.01312-.939Zm4.99743,4.92937c-.48436.59874-.98434,1.19868-1.4711,1.78659l-1.48072-2.66787Zm-7.424-1.98738c1.7848,1.34416,3.59724,2.64383,5.36761,4.01443l-3.1273-.67809ZM17.52,23.77036,16.29286,25.6856l-.03245.06252-1.8485-2.64262Zm-7.567-1.12894,5.75581,3.35678-3.13571-.232Zm5.92648,3.69943L14.8518,28.398l-2.08286-2.28435Zm-7.5995-.27893c2.042.88608,3.97222,1.80823,6.013,2.67869l-3.14653.13345Zm-1.411,3.56477,6.36758,2.02946-3.22585.34145ZM5.941,33.32612l6.53945,1.3153-3.21144.6853Zm-.51561,3.816,6.64041.58311-3.084,1.02915Zm-.09975,3.798,6.68487-.12865L9.096,42.14127Zm.34253,3.81364,6.5695-.89931L9.53948,45.54013ZM6.411,48.5266l6.45531-1.61587-2.542,1.95612Zm1.14179,3.62729,6.22695-2.3-2.28478,2.22784Zm6.61155-2.22783.92906,2.12805-3.2559.12864ZM9.096,55.65494l5.92649-2.98767-2.02758,2.4719Zm6.29787-2.91433c.40023.61316.78483,1.29846,1.17063,1.95491l-3.22585.54223Zm-4.35442,6.19777,5.52505-3.59964-1.756,2.716Zm5.9385-3.55635,1.37135,1.81425-3.09966.81875Zm-3.71021,6.64382,5.18252-4.21521-1.43265,2.88188Zm5.5539-4.21521,1.542,1.64232-2.917,1.15059Zm.59373,5.24557-3.53594,1.68921,4.65489-4.67929Zm1.50476-3.01774,1.71388,1.4716-2.8136,1.41509Zm1.12857,5.21431-3.30037,2.08476,4.11284-5.242Zm1.19827-3.257,1.84369,1.29967-2.62972,1.771Zm1.76677,5.09048L21.8756,69.53893l3.52873-5.7Zm.732-3.34717,1.98551,1.07L25.30458,66.924Zm-.48316,7.584,2.85568-5.99819.04447,3.11031Zm3.43018,1.45838,2.29439-6.33c.1298,1.08686.36417,3.13315.36417,3.13315Zm-.23317-4.547.02885-3.08266,2.05521.85843Zm3.1898,1.034-.34975-2.98527,2.15738.61316Zm.79084,4.56628,1.5324-6.56808.64781,3.06823Zm2.4278-3.8389L34.243,67.067l2.19824.3703Zm1.35933,4.44244.80165-6.657.91224,3.08627Zm1.99753-3.85332-.96992-3.03336,2.3004.12864Zm1.887,4.0517.02884-6.6835,1.29563,3.05981Zm1.54321-3.9988s-.81487-1.99819-1.31486-2.95762c.75719-.04208,2.27036-.12864,2.27036-.12864Zm2.25594,3.77157-.71512-6.6282,1.5997,2.7845Zm1.09972-4.1563-1.61533-2.77126,2.22829-.38594ZM47.68,73.78179l-1.44106-6.544,1.92662,2.64382Zm.65743-4.24286-1.92782-2.615,2.15618-.61436Zm3.01192,3.15719-2.12733-6.31319,2.22709,2.43462Zm-1.98311-6.62939,2.05522-.856.04688,3.12474ZM40,65.9453A25.9453,25.9453,0,1,1,65.93784,40,25.94066,25.94066,0,0,1,40,65.9453Zm28.05075-13.682-3.10687-.1587.899-2.03667Zm-1.51918,2.98287-3.08644-.4208c.47474-.78389,1.09972-1.95732,1.09972-1.95732ZM64.71312,58.086l-3.08283-.7899,1.32808-1.81425Zm-2.12493,2.71116L59.646,59.596l1.4723-1.6844ZM58.991,60.13826l1.17064,3.01413L57.348,61.60866Zm-2.328,1.95732.81247,3.11512-2.62732-1.81545ZM54.56322,66.966l-2.399-2.098,1.95786-1.05681Zm.36777,4.44L52.0645,65.2107l2.51074,2.23144Zm3.30277-1.96814L54.77715,63.7391l2.60088,1.813Zm3.15615-2.17132-4.084-5.3141,2.85568,1.58581ZM64.284,64.74542,59.646,59.93989l2.971,1.22753Zm2.60689-2.82056L61.7048,57.63871l3.16817.82237ZM69.1,58.8398,63.51724,55.168l3.19461.43643Zm1.88455-3.33033-5.92648-3.04178,3.13451.13466Zm1.54322-3.49865-6.24018-2.35768,3.17178-.2633ZM73.726,48.40758l-6.55868-1.71086,3.25711-.51457Zm-5.96976-4.75264,3.13091-.87165,3.49507,1.82747ZM32.31907,18.22585l.79,2.33956.55461-.18581-.79267-2.34086.74035-.24992-.16612-.4933-2.03269.68695.16742.4933ZM18.164,32.4862a1.0632,1.0632,0,0,0,.22355.18154,2.5763,2.5763,0,0,0,.28244.14307c.10457.04208.21514.08777.33533.13586.119.04689.23076.089.33773.12864a2.34033,2.34033,0,0,0,.30287.08777,1.02189,1.02189,0,0,0,.28845.02044.86576.86576,0,0,0,.28725-.07334,1.08511,1.08511,0,0,0,.59974-.62879,1.32843,1.32843,0,0,0,.09615-.44725,1.018,1.018,0,0,0-.10216-.46288.91711.91711,0,0,0-.26922-.34265,1.84272,1.84272,0,0,0-.47354-.25609l-.40624-.16111-.41465,1.0508.45311.17914.20192-.51217.10577.04208a.67562.67562,0,0,1,.18989.1082.548.548,0,0,1,.13221.16231.47023.47023,0,0,1,.04928.2092.6066.6066,0,0,1-.04567.23925.52351.52351,0,0,1-.119.18515.427.427,0,0,1-.16346.1046.37818.37818,0,0,1-.12018.02645.57606.57606,0,0,1-.155-.01322,1.74279,1.74279,0,0,1-.22715-.06493c-.09135-.03-.20072-.07213-.33413-.125-.1322-.0517-.24158-.09739-.32811-.13586a1.82106,1.82106,0,0,1-.20793-.1058.58831.58831,0,0,1-.12259-.09739.42474.42474,0,0,1-.07091-.101.48173.48173,0,0,1-.04928-.18876.49482.49482,0,0,1,.03846-.21761.524.524,0,0,1,.23557-.291.59251.59251,0,0,1,.36658-.0481l.21754-.547a1.32743,1.32743,0,0,0-.37739-.02886,1.00066,1.00066,0,0,0-.363.09378,1.02452,1.02452,0,0,0-.32091.23444,1.20079,1.20079,0,0,0-.24278.39676,1.12028,1.12028,0,0,0-.08653.44845,1.14341,1.14341,0,0,0,.095.4208.90441.90441,0,0,0,.161.25008m15.54816-6.221a2.05613,2.05613,0,0,0,.61416.75142,2.66648,2.66648,0,0,0,.893.43042,4.022,4.022,0,0,0,1.07448.13947,4.71265,4.71265,0,0,0,.79084-.06613,2.3648,2.3648,0,0,0,.67186-.208.1764.1764,0,0,0,.08292-.083.57006.57006,0,0,0,.01443-.16832v-.65765c0-.35828.0024-.6817.006-.80193l.0024-.422a.0769.0769,0,0,0-.08293-.07815h-.0012c-.161.00722-.26562.01082-.31129.01082-.03966,0-.14663-.0024-.3221-.006-.256-.00841-.43629-.012-.54446-.012-.13821,0-.16586.0529-.16586.09979,0,.02645.012.08777.12861.08777a1.02506,1.02506,0,0,1,.22595.01683.26072.26072,0,0,1,.17187.09137.40024.40024,0,0,1,.05288.2116c.00481.12023.00721.43884.00721.78991v.56266a.17858.17858,0,0,1-.09134.18395.66823.66823,0,0,1-.20552.0517,2.82528,2.82528,0,0,1-.28605.012,2.08146,2.08146,0,0,1-.83651-.16471,1.8543,1.8543,0,0,1-.64782-.46288,2.09,2.09,0,0,1-.41344-.70454,2.65884,2.65884,0,0,1-.14543-.87887,2.37644,2.37644,0,0,1,.14062-.87406,1.43963,1.43963,0,0,1,.39542-.56267,1.3979,1.3979,0,0,1,.55407-.29335,2.46808,2.46808,0,0,1,1.4074.07694,1.41856,1.41856,0,0,1,.50359.31019.58553.58553,0,0,1,.13461.21521,1.3709,1.3709,0,0,1,.05889.2609c.01443.09137.0625.11061.09976.11061.04807,0,.10456-.02766.10456-.16592,0-.25248.00361-.44725.012-.5807s.01563-.24407.024-.33063c.00361-.03366.006-.05771.006-.06973,0-.03126-.01082-.1046-.12019-.11181-.06009-.00361-.13221-.012-.21874-.024-.08654-.01082-.16947-.02525-.24759-.04088a1.46774,1.46774,0,0,0-.15985-.02765c-.07211-.00962-.16466-.02164-.27643-.03366-.113-.01083-.22115-.02044-.32451-.02645a4.49844,4.49844,0,0,0-1.15381.06973,2.48563,2.48563,0,0,0-.78363.3162,2.17669,2.17669,0,0,0-.75959.7911A2.35922,2.35922,0,0,0,33.48977,25.2a2.413,2.413,0,0,0,.22235,1.06523m7.14555,1.04141-.149-.01442a.20619.20619,0,0,1-.14663-.06974.42.42,0,0,1-.05889-.18875c-.01082-.11422-.018-.26811-.02043-.45928q-.00361-.29035-.00361-.84641V23.75148c0-.12985.00481-.24406.01322-.34385a.54923.54923,0,0,1,.05048-.22122.18866.18866,0,0,1,.137-.083,1.03,1.03,0,0,1,.17308-.018c.12259,0,.13461-.06973.13461-.09979,0-.08776-.125-.08776-.16586-.08776-.08293,0-.22956.0036-.43629.012-.14783.00361-.24518.006-.29326.006-.05889,0-.17307-.0024-.33893-.006-.21634-.00842-.36176-.012-.43869-.012-.04927,0-.18388,0-.18388.08776,0,.03006.01442.09979.137.09979a.85056.85056,0,0,1,.20552.02285c.10577.024.16226.12143.17187.29937.00842.09979.01323.214.01323.34385V25.728c0,.3667-.00241.64563-.006.8392-.00481.19236-.012.34626-.02525.46047-.018.15991-.0649.24888-.14062.26451a.96661.96661,0,0,1-.20672.024c-.11778,0-.137.0541-.137.08777,0,.04448.02884.09859.15985.09859.08413,0,.24157-.00361.47474-.012.15384-.0036.24879-.006.28-.006.05529,0,.14663.00241.274.006.27042.00842.49037.012.65863.012.1274,0,.15264-.05411.15264-.09859,0-.03367-.01562-.08777-.13461-.08777a1.36123,1.36123,0,0,1-.15024-.00962m.88555.19081c.10577,0,.21153-.00241.32331-.006.10817-.0036.1935-.006.26681-.006.06611-.0036.10577-.006.11659-.006.05288,0,.155.00481.31008.012.14062.00361.24879.006.32451.006.1238,0,.14182-.06252.14182-.09979,0-.03246-.01682-.08777-.131-.08777H43.0076a.25115.25115,0,0,1-.15985-.03727.139.139,0,0,1-.03966-.10821.99543.99543,0,0,1,.08653-.35106l.34014-.87767,1.35692.01563.476,1.26721s.03.09257.05408.1611c.02164.06012.04688.11783.11779.11783.06129,0,.131-.00361.20552-.006.08413-.0024.17427-.006.262-.006l.5721.012a1.35788,1.35788,0,0,0,.23076-.012c.07812-.01683.08533-.06612.08533-.08776,0-.02044-.00721-.08777-.11658-.08777a1.3143,1.3143,0,0,1-.244-.02284.47791.47791,0,0,1-.23076-.15029,1.67135,1.67135,0,0,1-.26682-.47851l-1.30525-3.24376c-.09134-.232-.15143-.37872-.18028-.43763-.0637-.14909-.12139-.21641-.18629-.21641a.13158.13158,0,0,0-.10817.06732.84053.84053,0,0,0-.09615.19718l-1.50115,3.75954a1.42629,1.42629,0,0,1-.20432.37632.39675.39675,0,0,1-.27163.13706,1.36657,1.36657,0,0,1-.18148.012c-.10337,0-.11178.06733-.11178.08777C41.59058,27.43492,41.611,27.49744,41.74322,27.49744Zm2.1706-3.39045.54085,1.45-1.0865.012Zm-6.28673-4.608-.08633-.51423-1.3669.22636-.119-.71573,1.16546-.19366-.08633-.51423-1.16415.19366L35.856,17.289l1.3669-.22767-.085-.51293-1.94244.32189.4879,2.95061ZM19.79579,35.84974a1.36362,1.36362,0,0,0,.01923-.44484.90989.90989,0,0,0-.143-.38593.89477.89477,0,0,0-.226-.23806,1.22974,1.22974,0,0,0-.27523-.14547,1.89889,1.89889,0,0,0-.30768-.08777l-.32932-.06733-.3209-.06492a1.78389,1.78389,0,0,0-.31369-.03727,1.14361,1.14361,0,0,0-.30047.02885.92485.92485,0,0,0-.57811.434,1.3069,1.3069,0,0,0-.155.416l-.21394,1.05921,2.9314.59152Zm-.52162-.04929-.08773.43282-1.90859-.38593.08773-.43282a.63008.63008,0,0,1,.09495-.24286.49118.49118,0,0,1,.17187-.14909.44574.44574,0,0,1,.12379-.04328.61727.61727,0,0,1,.15985-.006,1.82737,1.82737,0,0,1,.21514.02645c.08293.01322.17788.03126.28725.0541a3.94341,3.94341,0,0,1,.506.125.55821.55821,0,0,1,.256.1563.49961.49961,0,0,1,.09975.20438A.64281.64281,0,0,1,19.27417,35.80045ZM38.895,18.26982a2.10879,2.10879,0,0,0,.03365.315,1.03214,1.03214,0,0,0,.08895.27412.83917.83917,0,0,0,.17667.23805,1.09082,1.09082,0,0,0,.36177.23926,1.12215,1.12215,0,0,0,.4495.07935,1.35474,1.35474,0,0,0,.44951-.08176,1.01019,1.01019,0,0,0,.3882-.26931.92066.92066,0,0,0,.21514-.37751,1.80626,1.80626,0,0,0,.0601-.53622l-.006-.43764-1.12857.01443.006.48693.54926-.00722.0024.11422a.69285.69285,0,0,1-.03.21641.51061.51061,0,0,1-.09975.18395.47036.47036,0,0,1-.17548.12624.61424.61424,0,0,1-.23917.04689.51833.51833,0,0,1-.21634-.03968.42719.42719,0,0,1-.15745-.11181.3488.3488,0,0,1-.07091-.101.57478.57478,0,0,1-.04687-.14908,1.70417,1.70417,0,0,1-.02524-.23445c-.00481-.095-.00962-.214-.012-.35708-.0012-.14187,0-.26089.0024-.35467a2.05152,2.05152,0,0,1,.02044-.23324.616.616,0,0,1,.04206-.15029.53258.53258,0,0,1,.06851-.1034.452.452,0,0,1,.15624-.11662.51151.51151,0,0,1,.21634-.04689.531.531,0,0,1,.35816.107.59687.59687,0,0,1,.18389.32221l.58772-.00721a1.29042,1.29042,0,0,0-.11658-.35829,1.00654,1.00654,0,0,0-.22355-.303,1.06037,1.06037,0,0,0-.33773-.208,1.24177,1.24177,0,0,0-.46032-.07454,1.162,1.162,0,0,0-.4471.09017,1.10661,1.10661,0,0,0-.35336.24888.88062.88062,0,0,0-.17186.24286,1.04361,1.04361,0,0,0-.08173.27532,2.15213,2.15213,0,0,0-.02644.315c-.0012.113-.0012.23324.0012.36189.0012.12864.0036.24887.00841.36068M59.82976,45.73527l.50622.11645.30739-1.32025,2.40286.55741.13343-.56788-2.9117-.67648ZM19.41,41.58085l-.51537.06543.16874,1.34511-2.44734.31142.07325.57835,2.96663-.37554Zm2.19144,10.10679a2.11836,2.11836,0,0,0,.2584-.18034,1.091,1.091,0,0,0,.19711-.21161.85778.85778,0,0,0,.12259-.27051,1.09793,1.09793,0,0,0,.03606-.43042,1.14005,1.14005,0,0,0-.15024-.43643,1.12166,1.12166,0,0,0-.29566-.35106,1.155,1.155,0,0,0-.38581-.18877.88263.88263,0,0,0-.29566-.03245,1.086,1.086,0,0,0-.28244.0589,2.07956,2.07956,0,0,0-.28965.12865c-.09856.0529-.20312.11061-.3161.17553-.11177.06252-.21514.12384-.31009.18155a1.81778,1.81778,0,0,0-.2584.18275,1.0904,1.0904,0,0,0-.19591.2128.87421.87421,0,0,0-.12379.27051,1.18838,1.18838,0,0,0,.40984,1.21552,1.09876,1.09876,0,0,0,.387.19.8528.8528,0,0,0,.29566.03245,1.0688,1.0688,0,0,0,.28244-.06011,2.06394,2.06394,0,0,0,.28725-.13105c.09856-.05169.20432-.11061.3161-.17433.11177-.06252.21513-.12383.31129-.18154m-.90983-.1563a1.78122,1.78122,0,0,1-.21393.095.55152.55152,0,0,1-.15264.03487.422.422,0,0,1-.1226-.00842.48075.48075,0,0,1-.17908-.08175.53048.53048,0,0,1-.14663-.16832.50092.50092,0,0,1-.0673-.2104.46728.46728,0,0,1,.02283-.19357.40749.40749,0,0,1,.05409-.113.55914.55914,0,0,1,.10577-.11421,1.84793,1.84793,0,0,1,.1923-.13586c.07812-.04929.18028-.10941.30407-.18034.1238-.06974.22836-.12624.31129-.16952a1.80485,1.80485,0,0,1,.21393-.095.521.521,0,0,1,.15144-.03246.44125.44125,0,0,1,.1262.01082.47254.47254,0,0,1,.17788.08056.5036.5036,0,0,1,.14422.16591.53556.53556,0,0,1,.06971.2116.46443.46443,0,0,1-.07812.30658.53232.53232,0,0,1-.107.11182,1.76973,1.76973,0,0,1-.1911.13586c-.07932.05049-.18148.1094-.30407.18034-.1238.06973-.22956.12744-.31129.16952m-.10045-4.51377-1.89535.04711,1.55-1.09258-.153-.4632-3.09221.17534.19228.57966,1.9359-.14917-1.61935,1.11089.13734.41479,1.96206-.07327L17.962,48.59821l.191.57835,2.58992-1.69579Zm38.11105,1.722.48267.19627.52191-1.28492.671.27478-.44343,1.09258.48267.19627.44473-1.09258.64879.26431-.52191,1.28231.48136.19758.74165-1.82533-2.76911-1.12529Zm-.89077,1.66177,1.55788.96827-2.18443.03663-.27469.44227,2.5389,1.578.30609-.49461-1.55265-.967,2.18051-.03926.276-.44095-2.54022-1.58065ZM24.4826,53.611l-1.41138,1.1737.654-2.08571-.33355-.40039-2.29822,1.91168.37279.45012,1.40745-1.17109-.6501,2.08179.33225.40039,2.29953-1.91168ZM42.7671,62.18a.766.766,0,0,0-.29326-.22242.64239.64239,0,0,0,.29085-.63962.86846.86846,0,0,0-.09735-.34024.77341.77341,0,0,0-.21153-.25368.83284.83284,0,0,0-.30288-.15029,1.00946,1.00946,0,0,0-.369-.03126,1.04086,1.04086,0,0,0-.34854.089.82114.82114,0,0,0-.44349.4737.89747.89747,0,0,0-.04688.3655l.54325-.04689a.36913.36913,0,0,1,.08894-.27533.36378.36378,0,0,1,.24879-.11662.36938.36938,0,0,1,.26321.07454.36134.36134,0,0,1,.13341.27413.41429.41429,0,0,1-.0649.27412.351.351,0,0,1-.28.131l-.07932.00842.04086.4725.07933-.00842a.42633.42633,0,0,1,.3197.08537.418.418,0,0,1,.13341.29095.402.402,0,0,1-.08654.3174.41108.41108,0,0,1-.27884.13105.50337.50337,0,0,1-.15384-.00962.34721.34721,0,0,1-.13341-.06011.35524.35524,0,0,1-.09975-.11422.461.461,0,0,1-.05168-.16952l-.54446.04689a.94142.94142,0,0,0,.119.39074.78553.78553,0,0,0,.23437.25488.86531.86531,0,0,0,.31369.131,1.27,1.27,0,0,0,.35816.01924,1.21854,1.21854,0,0,0,.35936-.08536.84189.84189,0,0,0,.286-.19117.79.79,0,0,0,.18148-.29576.9542.9542,0,0,0,.04207-.39555A.75033.75033,0,0,0,42.7671,62.18m2.18371-2.13-.463.66077.14127.57181.46305-.66209.58077,2.333.52845-.13084-.71943-2.90351ZM26.56369,56.83508l-.59254.10729.28123-1.53746-.52191-.43572-.33878,2.06347-1.52125.2787.54414.454,1.6429-.3245-.83191.99968.446.37422,1.91628-2.29637-.44866-.37423Zm12.471,4.01709a.86073.86073,0,0,0-.28124-.19958,1.10326,1.10326,0,0,0-.36057-.089,1.08015,1.08015,0,0,0-.37138.03727.8161.8161,0,0,0-.52522.43763,1.02107,1.02107,0,0,0-.101.38714.98013.98013,0,0,0,.03966.37752.8524.8524,0,0,0,.15505.28855.75385.75385,0,0,0,.238.19356.74242.74242,0,0,0,.28725.08176.86844.86844,0,0,0,.11177,0,.45822.45822,0,0,0,.113-.02164l-.70911,1.18545.58892.04328.72594-1.242c.07692-.13225.14543-.25969.20312-.38473a1.11935,1.11935,0,0,0,.10216-.39315,1.00844,1.00844,0,0,0-.04207-.39795.80343.80343,0,0,0-.17427-.30418m-.32691.66727a.44069.44069,0,0,1-.13341.31379.39336.39336,0,0,1-.55407-.04448.45906.45906,0,0,1-.08053-.32823.442.442,0,0,1,.13221-.31259.3943.3943,0,0,1,.55166.04088.44789.44789,0,0,1,.08414.33063M34.425,60.47l-.13211.57442.71288-.38077-.5376,2.34217.53106.12431.66972-2.91659-.53237-.123Zm-4.94047-.54564.45,1.366,1.3669-.4475-.44866-1.36867ZM60.47071,42.61455l.51929.038.0981-1.353,2.46173.17926.04186-.58358-2.97972-.2159ZM46.719,46.10471l.30047-.35949-.226-.18875.59734-.70935-.625-.52419-.59613.70934-.22476-.19-.26441.3138.01082.00841a4.76072,4.76072,0,0,1,1.02761.94019m13.90212-6.73649.51929-.04318-.11249-1.38044.72466-.06019.09548,1.17632.5193-.04187-.09549-1.17633.69849-.05888.11249,1.38306.5193-.04187-.16089-1.964-2.97972.24207ZM33.49361,50.51107l-1.51077-3.12955h-1.167v.14308s1.68624,1.88157,2.67779,2.98647M44.58278,48.0613l.62739-.74542.28845.24286.20672-.24647c-.10095-.3691-.41344-.61917-.88458-.96543-.02885-.02164-.05529-.04328-.08413-.06493l-.3137.37271.28365.23926-.62618.74541Zm-.18833,1.67959.0012.0012h-.0024l-.34134.91734h1.80162l-.15384-.82477a2.45814,2.45814,0,0,0,1.16823-2.0042,2.1899,2.1899,0,0,0,.012-.232c.00121-.03247-.0012-.06613-.0012-.09979-.0024-.03848-.0024-.07815-.006-.11422-.0036-.04328-.00961-.08416-.01562-.125-.00361-.02525-.006-.0517-.01082-.07694-.00721-.04569-.01923-.09258-.03005-.13707-.0048-.01562-.006-.03366-.012-.04929-.01442-.04929-.03124-.09738-.04687-.14427-.0036-.00962-.00721-.02044-.012-.03126a1.3237,1.3237,0,0,0-.0625-.14548l-.00721-.01563c-.024-.0517-.05048-.09979-.07812-.14668l-.0036-.00721a1.68639,1.68639,0,0,0-.09135-.14187,4.201,4.201,0,0,0-1.00477-.93778l-.02524-.01924c-.08894-.06612-.17548-.12985-.2548-.19236l-.5084.63841c.07211.05771.15505.11782.23677.17914.02284.01683.04447.03366.06851.0517a2.71091,2.71091,0,0,1,.92785.9462l.00361.00961a1.1197,1.1197,0,0,1,.08053.24166c.00841.03968.01682.08056.02524.12143l.00721.09258a1.49253,1.49253,0,0,1-.00121.25368c-.08172.80192-.55527,1.49685-1.2824,1.43072l-1.79562-1.50887-.43147.51458,1.84729,1.55576ZM30.81351,46.82654v.10991H33.6912l-1.62066-1.04809Zm4.38325.10991h2.93v-.11122l-1.21387-.87537ZM34.183,50.99273V47.38264H32.43941Zm1.14322-.43311,2.80182-3.03436v-.14262h-1.1236Zm-.74035-3.17829v3.69383l1.9516-3.69383Zm9.27531,2.33956-1.31588-1.107-.34664.76022.96534.81Zm-11.22036-3.9817,1.77108,1.14361,1.99084-1.14361Z"/></svg>