<svg xmlns="http://www.w3.org/2000/svg" viewBox="0 0 80 80"><defs><style>.a{fill:#937d67;}</style></defs><path class="a" d="M29.92334,25.985l-8.16689,6.11148L39.87463,48.365l.04965-.04862.1531.001L58.24417,32.19468,50.39279,26.015Zm10.5792,19.60981L25.16389,31.79641l6.10318-4.5453,18.02508.02589,6.44248,4.96421ZM32.81986,28.46688l-5.60769,4.13983,12.945,11.46153,13.07736-11.715-5.24667-3.86569ZM40.453,42.048,29.76724,32.41635l4.3074-3.23672,13.10529.01755,4.15223,3.44262ZM35.6203,30.24412l-3.86053,2.73194,8.40894,7.50384,8.6479-7.58554-3.49329-2.6378Zm4.73876,8.86925L33.719,33.183l2.95333-2.2747,8.0593.01137,2.4992,2.07815ZM45.35963,50.836l2.66574-2.24162-.01034,6.698-2.65747,2.3595Zm-13.57824-.01857,2.66885-2.24161-.01035,6.69593-2.65436,2.3595Zm8.0924-2.45192-5.04288,4.79563-.0062,4.507,5.377.0031,4.65807-4.61873.00311-2.282-2.15681-.00316,2.51162-2.44227-5.13908-.00827-.13035.11478Zm2.733,2.40192-2.79505,2.3182,2.65644.0031-.00311,2.24471-5.01495-.00827.0062-4.56494h.269ZM31.72708,9.23634l.18724-.31443.18723-.31347.22861-.38167.17689-.29586L34.458,4.66515,37.31615,7.1768l.25964.22755.33309.29277.27516.24206.27516.241,1.5889,1.39653,1.591-1.39028.27516-.24106.27515-.24.33413-.29277.25964-.22653,2.8654-2.50434,1.94267,3.273.17585.29687.22654.38065.1862.31449.18724.31448L49.446,11.07975l1.94371-.8307.3362-.14376.33619-.14382.40964-.17477.3155-.13555,3.4995-1.49578.83479,3.71258.07552.33722.09827.43343.07965.35692.08069.35685.46239,2.06168,2.10715-.18935.36516-.03309.36412-.03308.4417-.03933.34344-.031,3.78915-.34139-.35172,3.7881-.03206.34448-.04138.4417-.03413.36513-.03311.36417-.19654,2.104,2.06163.47063.35585.08176.35792.0817.43342.0983.33516.07653,3.7095.84717L70.38816,27.3049l-.13655.31651-.17585.40755-.14482.3362-.14482.3352L68.94926,30.642l1.8144,1.08514.31447.18726.31447.18828.38067.22754.29585.17691L75.33484,34.458l-2.51162,2.85815-.22653.25962-.29275.3321-.24206.27515-.241.27515L70.42333,40.046l1.39132,1.592.24.27515.24206.27521.29171.33615.22758.25861,2.50333,2.86541-3.273,1.94165-.29688.17483-.38171.22653-.31447.18721-.31447.18726-1.81854,1.07788.83169,1.94474.14379.33722.14379.3362.17378.40755.13551.31758,1.4958,3.4995-3.7126.8348-.3362.07551-.43342.09723-.35792.08069-.35585.08069-2.06266.46444.1893,2.1041.0331.36614.03311.36417.0393.44171.031.34441.34032,3.78816-3.7881-.35173-.34344-.03208L60.68,64.9036l-.36515-.03309-.36413-.03415-2.10715-.19655-.46963,2.0606-.08069.35686-.08172.35691-.0993.43344-.07552.33513-.84721,3.70949L52.69513,70.3861l-.3155-.13549-.4086-.1759-.3362-.14477-.33515-.14484L49.358,68.94822l-1.0841,1.81443-.18826.31449-.18724.31442-.22861.38274-.17688.29485-1.951,3.2657-2.85607-2.51159-.25862-.22761-.33619-.29479-.27412-.24207-.27516-.24105L39.955,70.42228l-1.592,1.39236-.2762.24-.27516.24105-.33412.2917-.25964.22761-2.86643,2.50332-1.94164-3.27195-.17586-.2958-.22757-.3828-.1862-.3155-.18723-.31442L30.55506,68.9193l-1.94371.83064-.33723.14376-.33619.14382-.40859.17483-.31654.13549-3.49951,1.49477L22.8785,68.131l-.07551-.33621-.09827-.43343-.07966-.35685-.08068-.35692L22.081,64.585l-2.10508.19029-.36516.03208-.36412.03308-.44274.04034-.34344.03107-3.78914.34031.35171-3.78709.03206-.3434.04138-.44272.03414-.36418.03414-.36619.19551-2.104-2.0606-.46962-.35688-.0817-.35688-.08176-.43343-.09824-.3362-.07652-3.70949-.84623,1.50614-3.49533.13655-.31657.17585-.40755.14379-.3362.14586-.33621.83686-1.94159L9.23737,48.2719l-.31447-.18619-.31447-.18928-.3817-.22761L7.93088,47.493,4.66412,45.541l2.51369-2.85708.22654-.25861.29274-.33311.24206-.27515.24206-.27515L9.5777,39.954,8.18638,38.362l-.241-.27515-.241-.27616-.29274-.33419-.22654-.26063-2.50438-2.8644,3.273-1.94159.29688-.17691.3817-.22654.31447-.18619.31447-.18726,1.81855-1.07889-.83066-1.94266-.14379-.33728L9.96148,27.938l-.17482-.40862-.13551-.31657L8.15638,23.71436l3.71157-.83587.33619-.07551.43446-.09723.35689-.08069.35687-.08069,2.06163-.46444-.1893-2.10505-.03206-.36418-.0331-.36512-.04035-.4417-.031-.34347-.34033-3.79018,3.78811.35274.34344.03208.4417.04034.36412.03416.36516.03416,2.10508.19654.46963-2.0606.08172-.35692.08173-.35685.0993-.43242.07552-.33722.8472-3.70949,3.49433,1.50614.31654.13656.4086.17584.33516.14483.33722.14484,1.93957.83581ZM34.35352,4,32.14293,7.70122l-.1769.29586-2.9047-1.83817L27.78173,9.3491l-.31653-.13657L23.50537,7.50575l-.95892,4.20392-.07656.3362L19.139,11.19662l-.23172,3.42815-.34343-.03106L14.272,14.19335l.38688,4.294.031.34346-3.43123.22136.84,3.33193-.3362.07652-4.206.94656,1.69441,3.965.13551.31651L6.191,28.959l1.82992,2.90986-.29585.17584L4.01657,34.24594,6.853,37.491l.22758.26069-2.64609,2.195,2.63988,2.20235-.22861.25861L3.999,45.64546,7.7002,47.85608l.29688.17792L6.15785,50.93869l3.19227,1.2796-.13757.3165L7.50572,56.49361l4.204.95893.33723.07759L11.19453,60.861l3.43123.23172-.03311.34346L14.1944,65.727l4.29291-.38589.34343-.03.22034,3.43017,3.335-.841.07551.33621.94548,4.20708,3.965-1.69549.31654-.13549,1.27028,3.19644,2.912-1.83.17482.29586,2.19921,3.7074L37.492,73.146l.25965-.22659,2.19611,2.64613,2.20335-2.63988.25757.22754L45.64648,76l2.21163-3.70122.17585-.29586,2.9047,1.83924,1.28063-3.19227.31551.13657,3.95983,1.70678.95891-4.20392.07656-.33519,3.33089.85033.23171-3.43018.3424.032,4.294.39935-.38688-4.29295-.031-.3434,3.43124-.22035-.841-3.335.33619-.07552,4.206-.94655-1.69338-3.96393-.13551-.31657,3.19538-1.27025-1.831-2.90987.29688-.17691,3.70639-2.19919L73.147,42.508l-.22655-.25861,2.64609-2.19508L72.92771,37.852l.22757-.25968L76.001,34.35561,72.2998,32.143l-.29585-.17691,1.83923-2.90468-3.19124-1.2796.13655-.31657,1.70578-3.95983-4.20292-.95893-.33723-.07759.85135-3.32985-3.43123-.23064.0331-.34448.39929-4.29187-4.29395.38583-.34343.031-.22137-3.43017-3.333.841-.07552-.33722-.94547-4.206-3.965,1.69441-.31757.13549L51.0421,6.192l-2.9109,1.8299L47.9543,7.725l-2.19921-3.7074L42.509,6.85506l-.25964.22653L40.0543,4.43552,37.852,7.07332l-.25965-.22754Zm38.02,39.14921L72.147,42.8906l-.29275-.33519-.241-.27515-.241-.27623-1.712-1.9592,1.71923-1.95511.24206-.27407.241-.27522.29275-.33305.22758-.25861,2.0668-2.35128L71.7622,32.992l-.29481-.17691-.38274-.22862-.31344-.1872-.31343-.18828-2.23335-1.33339,1.0303-2.38955.14482-.3362.14379-.33621.17585-.40755.13654-.3165L71.095,24.21586l-3.05263-.69615-.33619-.0776-.4324-.0983-.35791-.0817-.35689-.08069-2.53644-.57928.241-2.5902.03414-.36417.03414-.36513.04034-.4417.03207-.34448.28964-3.11575-3.11676.28033-.34447.03005-.44067.04136-.36515.03207-.36412.03308-2.59231.23279-.57-2.53748-.08069-.35691-.08069-.35685-.09723-.43451-.07552-.33614-.6879-3.05369-2.87884,1.231-.31654.13549-.4086.17483-.33619.14383-.33723.14275-2.39265,1.023L47.88118,9.56717l-.18827-.31442-.1862-.31448-.22551-.38173-.17585-.29687L45.50714,5.567,43.14965,7.62659l-.25861.22755-.33515.29277-.27516.24-.2762.24106-1.95716,1.712L38.09125,8.62069l-.27516-.241L37.542,8.13762l-.33412-.29276-.25965-.22761L34.598,5.55046,32.99251,8.238l-.17689.29586-.22758.38166-.18826.31348-.18827.31549-1.33443,2.23335-2.38851-1.02926-.33619-.14584-.33723-.14484-.40757-.17584-.31653-.13656L24.21634,8.90619l-.69618,3.05262-.07758.3362-.09827.43236-.08172.35692-.08173.35685-.57928,2.53647-2.59023-.241-.36413-.03415-.36515-.03309-.44171-.04243-.34343-.03106-3.11676-.29068.28034,3.11783.03206.34448.03931.44171.0331.36512.03311.36411.23378,2.59127-2.53851.571-.35792.08069-.35791.07968-.43343.09824-.33619.07551-3.05366.68687,1.22994,2.87886.13552.31758.17481.40755.14379.33621.14482.33721,1.022,2.39264L9.56767,32.119l-.31551.1872-.3155.18726L8.556,32.719l-.29689.17685L5.56646,34.493,7.626,36.85154l.22654.25962.29275.33412.241.27516.24206.27515,1.711,1.96028-1.71717,1.953L8.3791,42.184l-.241.27515-.29274.33412-.22758.25861L5.54991,45.40428l2.68747,1.60438.29585.17691.38171.22754.3155.18828.3124.18726L11.77723,49.122l-1.0303,2.38955-.14482.33722-.14483.33513-.17585.40761-.13654.31758-1.23823,2.8747,3.05159.69722.33516.07551.43343.09925.35792.08176.35688.08069,2.53644.57929-.24,2.59019-.03517.3662-.03414.36411-.04137.44278-.031.3434L15.30569,64.621l3.11676-.28134.34447-.03107.44171-.04034.36515-.03208.36516-.03308,2.59023-.2338.57205,2.53856.07964.35685.08069.35691.09828.43337.07447.33621.68791,3.05369L27,69.816l.31757-.13556.40861-.17483.33722-.14376.3362-.14376L30.79226,68.196l1.32719,2.2365.1862.31442.18826.3155.22654.38173.17483.29687,1.5982,2.69267L36.852,72.37309l.25964-.22653.33309-.29277.2762-.24.27516-.241,1.96025-1.713,1.953,1.71814.27516.24106.27516.24207.33517.29378.25757.22754,2.35024,2.06787,1.60648-2.6875L47.185,71.467l.22862-.38173.18723-.31448.18827-.31449L49.1225,68.224l2.39059,1.02818.33619.14484.33515.14585.40758.1759.31757.13549,2.8747,1.23925.69617-3.05261.07759-.3352.09827-.43236.08172-.35792.08069-.35692.57928-2.5364,2.59127.24206.36412.0341.36515.03315.44171.04236.34344.03106,3.11469.2917-.2793-3.11885-.03-.34441-.04035-.44171-.0331-.36417-.0331-.36613L63.97082,57.47l2.53747-.571.35585-.07968.35792-.08069.43343-.09824.33619-.0745,3.05573-.68788-1.23-2.87987-.13655-.31657-.17378-.40755-.14379-.3362-.14378-.33722L68.1965,49.20684,70.434,47.88071l.31343-.1862.3155-.18726.38171-.22654.29689-.17583,2.69264-1.59718Zm-61.008-3.19233A28.6343,28.6343,0,1,1,39.95841,68.63462,28.636,28.636,0,0,1,11.36552,39.95688m56.03167.08536a27.39764,27.39764,0,1,0-27.43743,27.3547,27.428,27.428,0,0,0,27.43743-27.3547m-54.36384-.08277A26.96627,26.96627,0,1,1,39.9608,66.96559,26.99775,26.99775,0,0,1,13.03335,39.95947m27.0434,8.35732-.1293.11485L39.874,48.3644l.05069-.04761ZM35.93687,64.54687h-.70919v-3.212h-.65742v-.55649h1.36661Zm2.376,0H37.5441l.85412-1.28376c-.10094.02071-.14407.0267-.16564.02973a.80623.80623,0,0,1-.12165.0091.95751.95751,0,0,1-.78554-.37018,1.26722,1.26722,0,0,1-.32224-.9033,1.18892,1.18892,0,0,1,.08671-.44518,1.34332,1.34332,0,0,1,.23683-.40894,1.20814,1.20814,0,0,1,.44906-.35325,1.28005,1.28005,0,0,1,.56294-.11264,1.253,1.253,0,0,1,.51248.09837,1.21237,1.21237,0,0,1,.42707.28469,1.24526,1.24526,0,0,1,.28471.41935,1.13151,1.13151,0,0,1,.10094.48142,1.4842,1.4842,0,0,1-.10871.56293,4.20586,4.20586,0,0,1-.42189.7519Zm.64188-2.48735a.64321.64321,0,0,0-.18117-.48009.53438.53438,0,0,0-.43484-.198.54606.54606,0,0,0-.44129.18506.63407.63407,0,0,0-.17471.47233.61351.61351,0,0,0,.17082.46847.5407.5407,0,0,0,.43483.18379.56726.56726,0,0,0,.4426-.18638A.57736.57736,0,0,0,38.9547,62.05952Zm2.04465,2.48735h-.75318l1.40542-3.1059H40.17887v-.66262h2.156v.69886Zm4.01432-3.76852v.65227H43.71954l-.11648.647a.92109.92109,0,0,1,.24589-.10089,1.01793,1.01793,0,0,1,.27177-.03365,1.11428,1.11428,0,0,1,.88648.38823,1.24822,1.24822,0,0,1,.36624.93695,1.23257,1.23257,0,0,1-.08671.47492,1.2925,1.2925,0,0,1-.25235.41544,1.283,1.283,0,0,1-1.00684.46848,1.18938,1.18938,0,0,1-.9046-.34814,1.29221,1.29221,0,0,1-.41541-.90456h.70918a.60764.60764,0,0,0,.1993.41152.54315.54315,0,0,0,.40635.15785.52387.52387,0,0,0,.431-.19282.67767.67767,0,0,0,.17212-.48786.603.603,0,0,0-.17341-.4724.58428.58428,0,0,0-.45812-.17987.54345.54345,0,0,0-.29377.06863.48609.48609,0,0,0-.198.20317l-.62636-.14237.35977-1.96192Zm-16.77445-3.185-2.11906,3.05867-.58441-.40389,2.11905-3.05867Zm-1.3456-.95148-2.50984,2.74779-.589-.53685.63707-3.01328.06192-.11523L22.6169,57.77921l-.52888-.48212,2.50982-2.74772.585.53326-.62659,3.00178-.054.12243,1.86644-2.04343Zm-3.17314-3.05987-2.377,1.9176.44221.5472-.51994.41942-1.33748-1.655.51992-.41948.44891.55548,2.377-1.91754Zm-1.26606-1.64138-3.16671,1.95656-1.08238-1.74934.56835-.35117.70874,1.14543.73027-.45118-.67719-1.09448.56836-.35116.67719,1.09448.73137-.45188-.70874-1.14543.56836-.35117ZM18.931,49.66572l-.1546-.35553a.80506.80506,0,0,0-.3515-.44789.46792.46792,0,0,0-.45509-.01074.47987.47987,0,0,0-.3019.35774.51839.51839,0,0,0-.01015.23316,1.55474,1.55474,0,0,0,.10467.30243l.15673.36039Zm2.07288-.1264-3.41437,1.48334-.442-1.01644a2.1437,2.1437,0,0,1-.18224-.56357,1.00018,1.00018,0,0,1,.024-.44978,1.11244,1.11244,0,0,1,.24751-.46337,1.0521,1.0521,0,0,1,.41126-.31088,1.15474,1.15474,0,0,1,.43852-.09389,1.08463,1.08463,0,0,1,.43676.0579.95813.95813,0,0,1,.30249.1663,1.58559,1.58559,0,0,1,.29967.31575l.84674-1.49793.3485.80146-.9087,1.48852,1.30874-.56861Zm-1.27-2.99024-3.61478.89011-.19043-.77356,2.20676-2.15133.11558-.06137-2.70323.66566-.171-.69464,3.61477-.89011.18917.76838L16.989,46.44983l-.113.07172,2.68813-.66192Zm-2.44709-4.86389-.05-.93253L16.101,41.2623l-.13741.02475.13919.00852Zm1.63111,1.30473-3.80241-1.39015-.02973-.55479,3.631-1.80925.04178.77961-.93588.46551.07271,1.35688.98087.374Zm-.10751-4.7349-3.03968-.29687-.06892.70012-.66489-.0649.20843-2.11756.66489.06491-.07.71073,3.03969.29687ZM19.09,36.29979l-3.6515-.72052.13813-.69666,3.65151.72052Zm-1.99125-4.45925a1.25612,1.25612,0,0,0-.06629.68018,1.25294,1.25294,0,0,0,1.47582,1.02673,1.22956,1.22956,0,0,0,.60172-.28588,1.25533,1.25533,0,0,0,.42879-1.20257,1.23907,1.23907,0,0,0-.2856-.60309,1.15462,1.15462,0,0,0-.54143-.37945,1.13932,1.13932,0,0,0-.64744-.04792,1.22509,1.22509,0,0,0-.59256.28134A1.13357,1.13357,0,0,0,17.09877,31.84054Zm-.64942-.16744a1.952,1.952,0,0,1,.58864-.88044,1.81247,1.81247,0,0,1,.91264-.456,1.77127,1.77127,0,0,1,1.01591.07652,1.73738,1.73738,0,0,1,.8239.57758,1.83575,1.83575,0,0,1,.41922.92363,2.057,2.057,0,0,1-.67278,1.88382,1.84082,1.84082,0,0,1-.9098.45,1.89163,1.89163,0,0,1-1.82806-.64854,1.86753,1.86753,0,0,1-.43012-.91618A1.79574,1.79574,0,0,1,16.44935,31.6731Zm4.58165-1.266-3.18834-1.9176.41163-.68263,3.08239.03081.1252.03794-2.38433-1.434.36964-.613,3.18834,1.91753-.40887.67809-3.06908-.02279-.13071-.02885,2.371,1.426Zm1.738-5.20053.62346-.69628-1.16427-.43956-.1148-.07936.09257.10417Zm.23309,2.07487L21.292,23.61511l.37088-.41424,3.84911,1.27764-.52119.58206-.99153-.32989-.90718,1.0131.43031.95665Zm2.90921-3.15395L23.55231,21.2522l.54987-.45029,1.93557,2.35924.90373-.74009.42338.51608Zm5.56717-6.45463-.771.3631a1.51,1.51,0,0,0-.27968-.10847,1.11429,1.11429,0,0,0-.25634-.03081,1.26247,1.26247,0,0,0-.58869.12426,1.34144,1.34144,0,0,0-.76286,1.06057,1.1779,1.1779,0,0,0,.5424,1.13634,1.30376,1.30376,0,0,0,.65193.21625,1.249,1.249,0,0,0,.67884-.12388,1.19751,1.19751,0,0,0,.633-.66837,1.28712,1.28712,0,0,0,.10283-.423l-1.45269.68415-.27524-.58377,2.26349-1.06607.03364.07141a1.6751,1.6751,0,0,1,.16171.98248,1.85084,1.85084,0,0,1-.374.944,2.18119,2.18119,0,0,1-1.85858.87249,1.85907,1.85907,0,0,1-.97634-.318,1.70336,1.70336,0,0,1-.66328-.75632,1.72884,1.72884,0,0,1-.1673-1.00059,1.881,1.881,0,0,1,.372-.96227,1.9496,1.9496,0,0,1,.81191-.67191,1.99093,1.99093,0,0,1,.5151-.16466,2.02,2.02,0,0,1,.54745-.03195,1.95424,1.95424,0,0,1,.53211.10752A2.06928,2.06928,0,0,1,31.47843,17.6729Zm2.0058,2.10562-.97992-3.587,1.98648-.54267.17588.64381-1.30074.35534.226.82716,1.24283-.33949.17588.64381-1.24284.33948.22632.82849,1.30073-.35534.17588.64381Zm2.71791-.69-.31859-3.70489.96333-.08321,1.26447,2.656.06291.21782.02479-.2254.71134-2.82671.96333-.08321.31861,3.70488-.70822.06118-.2387-2.77576-.7512,2.86131-.59926.05177-1.2233-2.69071.23871,2.77576ZM43.22148,15.909a1.25932,1.25932,0,0,0-.67973.0769,1.16755,1.16755,0,0,0-.53064.38912,1.26041,1.26041,0,0,0-.169,1.2669,1.22644,1.22644,0,0,0,.40459.52846,1.25755,1.25755,0,0,0,1.26633.16851,1.2425,1.2425,0,0,0,.5314-.4047,1.15419,1.15419,0,0,0,.25936-.60808,1.13553,1.13553,0,0,0-.08717-.64267,1.22172,1.22172,0,0,0-.39827-.52044A1.134,1.134,0,0,0,43.22148,15.909Zm.02946-.6695a1.95247,1.95247,0,0,1,.984.39189,1.80772,1.80772,0,0,1,.63559.79685,1.76641,1.76641,0,0,1,.1355,1.00868,1.73768,1.73768,0,0,1-.39486.9254,1.84114,1.84114,0,0,1-.8176.602,2.06045,2.06045,0,0,1-1.984-.26511,1.8357,1.8357,0,0,1-.62907-.79528,1.7358,1.7358,0,0,1-.13715-.99649,1.75619,1.75619,0,0,1,.39346-.925,1.87317,1.87317,0,0,1,.80806-.61116A1.80148,1.80148,0,0,1,43.25094,15.23954Zm2.20352,4.31611,1.09805-3.55392.67919.209-.901,2.916,1.11628.34366-.19708.63781Zm5.35744-1.28086a1.25846,1.25846,0,0,0-.66771-.14793A1.25332,1.25332,0,0,0,48.944,19.46618a1.22564,1.22564,0,0,0,.21065.63125,1.25637,1.25637,0,0,0,1.14255.5705,1.2436,1.2436,0,0,0,.63409-.21031,1.15528,1.15528,0,0,0,.443-.49108,1.136,1.136,0,0,0,.12662-.63616,1.22078,1.22078,0,0,0-.20729-.62159A1.13174,1.13174,0,0,0,50.8119,18.27479Zm.24563-.62373a1.94974,1.94974,0,0,1,.803.69008,1.80709,1.80709,0,0,1,.34177.96007,1.76757,1.76757,0,0,1-.2.99813,1.73942,1.73942,0,0,1-.67437.74716,1.84175,1.84175,0,0,1-.9689.30414,2.05879,2.05879,0,0,1-1.78969-.89478,1.83492,1.83492,0,0,1-.3361-.95653,1.7368,1.7368,0,0,1,.19445-.98715,1.758,1.758,0,0,1,.67289-.74723,1.87447,1.87447,0,0,1,.96285-.31581A1.79913,1.79913,0,0,1,51.05753,17.65106Zm5.3347,4.96339-.66594-.53086a1.50232,1.50232,0,0,0-.02581-.29863,1.11355,1.11355,0,0,0-.08528-.24346,1.25883,1.25883,0,0,0-.37107-.47283,1.34236,1.34236,0,0,0-1.28888-.21549,1.18008,1.18008,0,0,0-.78181.98816,1.30056,1.30056,0,0,0,.093.68,1.24552,1.24552,0,0,0,.41039.5539,1.19787,1.19787,0,0,0,.87936.27225,1.29147,1.29147,0,0,0,.42532-.0947l-1.25477-1.00016.40314-.50459L56.085,23.30643l-.04928.06169a1.68018,1.68018,0,0,1-.81138.579,1.8543,1.8543,0,0,1-1.01276.08158,2.1767,2.1767,0,0,1-1.6028-1.28093,1.85529,1.85529,0,0,1-.14464-1.01575,1.705,1.705,0,0,1,.38714-.92868,1.73441,1.73441,0,0,1,.82517-.592,1.8856,1.8856,0,0,1,1.02836-.09149,1.9482,1.9482,0,0,1,.96138.43116,1.98626,1.98626,0,0,1,.37492.38905,2.01266,2.01266,0,0,1,.26994.47669,1.94892,1.94892,0,0,1,.13789.52454A2.068,2.068,0,0,1,56.39223,22.61445Zm-1.114,2.70782,2.72322-2.537.48461.51918-2.72322,2.537Zm3.58941,2.87343.473.67563a2.40032,2.40032,0,0,1-.36208.03366,1.68908,1.68908,0,0,1-.302-.02955,2.0648,2.0648,0,0,1-.91467-.44979,1.8919,1.8919,0,0,1-.34549-.37952,1.8356,1.8356,0,0,1-.35163-.96284,1.86344,1.86344,0,0,1,.168-1.005,1.757,1.757,0,0,1,.64457-.77811,1.73471,1.73471,0,0,1,.94378-.33374,1.99357,1.99357,0,0,1,1.77086.84547,1.92335,1.92335,0,0,1,.31917.71894,1.85689,1.85689,0,0,1,.02756.77646,1.25684,1.25684,0,0,1-.07118.29119,3.13078,3.13078,0,0,1-.16278.34542l-.463-.66148a1.652,1.652,0,0,0,.03923-.29725,1.3973,1.3973,0,0,0-.23653-.79054,1.13593,1.13593,0,0,0-.50247-.41525,1.21633,1.21633,0,0,0-.64626-.11157,1.1644,1.1644,0,0,0-.61726.22332,1.147,1.147,0,0,0-.41867.50478,1.238,1.238,0,0,0-.11565.64981,1.13034,1.13034,0,0,0,.21679.61331,1.16273,1.16273,0,0,0,.35055.33368,1.22308,1.22308,0,0,0,.24534.12356A2.07114,2.07114,0,0,0,58.86765,28.1957Zm1.75007,2.13688.37864.85367.88039-.87968.11966-.072-.13316.04148Zm-1.9892-.6399,4.04947-.05152.22523.50782-2.75047,2.98038-.31651-.71364.70923-.76743-.55093-1.24216-1.05-.001Zm1.582,3.99147,3.5932-.97364.18572.68535-2.9483.79888.30523,1.12642-.6449.1747Zm.89931,4.12676,3.70895-.3196.06067.70752-3.70894.3196Zm.14509,1.69069,3.718.18088-.03924.79578-2.73059,1.4305-.12831.02576,2.78043.13524-.03523.71458-3.718-.18088.039-.79042,2.71508-1.43125.12883-.03643L61.22,40.21088Zm.73424,3.91487-.157.72538a.45331.45331,0,0,0-.37073.079.51444.51444,0,0,0-.20223.33469.471.471,0,0,0,.0553.384.42991.42991,0,0,0,.30457.21144.44882.44882,0,0,0,.41532-.08908,1.51,1.51,0,0,0,.3315-.43015c.06545-.1127.07465-.1307.07924-.13973a1.67122,1.67122,0,0,1,.20756-.27969.97317.97317,0,0,1,.44289-.27465.9343.9343,0,0,1,.51745-.02551.92275.92275,0,0,1,.48258.258,1.01595,1.01595,0,0,1,.28807.48054,1.08465,1.08465,0,0,1,.01921.57524,1.10216,1.10216,0,0,1-.25034.52334.96631.96631,0,0,1-.45247.31278,1.08149,1.08149,0,0,1-.56759.04609l.15473-.715a.38261.38261,0,0,0,.30456-.07.4144.4144,0,0,0,.16487-.26909.33707.33707,0,0,0-.048-.28911.36919.36919,0,0,0-.25059-.161.33136.33136,0,0,0-.28437.0471,1.06323,1.06323,0,0,0-.26916.32573l-.08656.149a1.76891,1.76891,0,0,1-.40313.51021.96138.96138,0,0,1-.89913.21928,1.07514,1.07514,0,0,1-.55428-.28772,1.118,1.118,0,0,1-.32728-.53193,1.19506,1.19506,0,0,1-.02313-.64286,1.16946,1.16946,0,0,1,.55092-.81365.95533.95533,0,0,1,.40494-.16359A1.09727,1.09727,0,0,1,61.98918,43.41647Zm-1.87163,3.30529,2.88068,1.01266.23406-.66357.63012.22148-.70795,2.00707-.63012-.22149.23761-.67367-2.88068-1.01259Zm-.725,1.85882,3.374,1.569-.30028.64381-3.374-1.569Zm-.97424,1.79871,2.616,1.5735.36348-.60264.57221.34416-1.09937,1.823-.57221-.34423.369-.61179-2.616-1.57357Zm1.95845,4.063-.44153.55674-1.82039-1.44034a2.304,2.304,0,0,0-.25758-.18853.58631.58631,0,0,0-.181-.06844.542.542,0,0,0-.31354.02052.506.506,0,0,0-.24838.17577.54647.54647,0,0,0-.1158.26366.49224.49224,0,0,0,.02229.28115.53687.53687,0,0,0,.1132.19667,2.19869,2.19869,0,0,0,.25851.23l1.82039,1.44041-.44484.56091-1.8204-1.44035a1.969,1.969,0,0,1-.4265-.4191,1.05673,1.05673,0,0,1-.1865-.42807,1.258,1.258,0,0,1,.00957-.57638,1.17919,1.17919,0,0,1,.23985-.51482,1.20961,1.20961,0,0,1,.42486-.33791,1.33457,1.33457,0,0,1,.54311-.15588,1.03163,1.03163,0,0,1,.4801.07557,2.23243,2.23243,0,0,1,.52423.32806Zm-5.47744.72008,2.10541,2.20935.51013-.48521.46053.48332-1.54294,1.46749-.46053-.48325.51786-.49253-2.10543-2.20942Zm-1.52981,1.28837L55.576,59.44445l-1.65839,1.22031-.396-.53736,1.0859-.799-.50884-.6904-1.03757.76345-.396-.53729,1.03757-.76346-.50962-.69141-1.0859.799-.396-.5373Z"/></svg>